<svg width="21" height="21" viewBox="0 0 21 21" fill="none" xmlns="http://www.w3.org/2000/svg">
<mask id="mask0_392_107" style="mask-type:alpha" maskUnits="userSpaceOnUse" x="0" y="0" width="21" height="21">
<rect width="21" height="21" fill="#D9D9D9"/>
</mask>
<g mask="url(#mask0_392_107)">
<path d="M9.49967 10.6799L18.3382 5.0574C18.14 4.7239 17.7791 4.5 17.3654 4.5H1.63393C1.22026 4.5 0.859294 4.7239 0.661133 5.0574L9.49967 10.6799Z" fill="#0095D5"/>
<path d="M9.7849 11.7704C9.69816 11.8255 9.59875 11.8537 9.5 11.8537C9.40125 11.8537 9.30184 11.8262 9.2151 11.7704L0.5 6.22656V15.3568C0.5 15.9882 1.00775 16.4999 1.63426 16.4999H17.3657C17.9923 16.4999 18.5 15.9882 18.5 15.3568V6.22656L9.7849 11.771V11.7704Z" fill="#0095D5"/>
</g>
</svg>
