<svg width="21" height="21" viewBox="0 0 21 21" fill="none" xmlns="http://www.w3.org/2000/svg">
<mask id="mask0_392_105" style="mask-type:alpha" maskUnits="userSpaceOnUse" x="0" y="0" width="21" height="21">
<rect width="21" height="21" fill="#D9D9D9"/>
</mask>
<g mask="url(#mask0_392_105)">
<path d="M15.4937 8.04503C15.4937 12.0077 7.99686 20.8652 7.99686 20.8652C7.99686 20.8652 0.5 12.0077 0.5 8.04503C0.5 4.08231 3.85915 0.865234 8.00314 0.865234C12.1471 0.865234 15.5 4.0763 15.5 8.04503H15.4937Z" fill="#0095D5"/>
<path d="M8 10.8652C9.38071 10.8652 10.5 9.74595 10.5 8.36523C10.5 6.98452 9.38071 5.86523 8 5.86523C6.61929 5.86523 5.5 6.98452 5.5 8.36523C5.5 9.74595 6.61929 10.8652 8 10.8652Z" fill="white"/>
</g>
</svg>
