<svg width="21" height="21" viewBox="0 0 21 21" fill="none" xmlns="http://www.w3.org/2000/svg">
<mask id="mask0_392_108" style="mask-type:alpha" maskUnits="userSpaceOnUse" x="0" y="0" width="21" height="21">
<rect width="21" height="21" fill="#D9D9D9"/>
</mask>
<g mask="url(#mask0_392_108)">
<path d="M18.2221 15.4377L15.1963 12.8145C14.69 12.3267 13.889 12.3236 13.4011 12.8145L12.4621 13.7534C12.2411 13.9589 12.0386 14.1031 11.8913 14.1676C11.2714 14.3946 10.0347 14.5971 8.73968 13.3913L7.13472 11.7867C5.86733 10.4214 6.14965 9.12361 6.3215 8.65726C6.40436 8.46704 6.54245 8.27068 6.73272 8.06205L7.69017 7.10174C8.18117 6.61085 8.18424 5.81621 7.70244 5.32225L5.08786 2.30325L5.06331 2.2787C4.84543 2.06087 4.48946 1.95962 4.08131 2.01485C3.71613 2.06393 3.35402 2.23268 3.11466 2.47199L1.85033 3.73605L1.82271 3.76673C-1.97334 8.3075 3.60259 13.9773 3.65783 14.0356L6.4688 16.8491C6.51177 16.892 9.67258 20 13.1679 20C14.3616 20 15.5953 19.638 16.7553 18.6654L18.0288 17.3921C18.2682 17.1528 18.44 16.7908 18.486 16.4257C18.5382 16.0268 18.4431 15.6771 18.2191 15.4408L18.2221 15.4377Z" fill="#0095D5"/>
</g>
</svg>
