<svg width="21" height="21" viewBox="0 0 21 21" fill="none" xmlns="http://www.w3.org/2000/svg">
<mask id="mask0_392_110" style="mask-type:alpha" maskUnits="userSpaceOnUse" x="0" y="0" width="21" height="21">
<rect width="21" height="21" fill="#D9D9D9"/>
</mask>
<g mask="url(#mask0_392_110)">
<path d="M12.5 6.75H6.5C6.085 6.75 5.75 6.415 5.75 6C5.75 5.585 6.085 5.25 6.5 5.25H12.5C12.915 5.25 13.25 5.585 13.25 6C13.25 6.415 12.915 6.75 12.5 6.75Z" fill="#0095D5"/>
<path d="M12.5 9.75H6.5C6.085 9.75 5.75 9.415 5.75 9C5.75 8.585 6.085 8.25 6.5 8.25H12.5C12.915 8.25 13.25 8.585 13.25 9C13.25 9.415 12.915 9.75 12.5 9.75Z" fill="#0095D5"/>
<path d="M18.495 12.7C18.49 12.63 18.48 12.56 18.455 12.4925L17 8.5275V2.25C17 1.835 16.665 1.5 16.25 1.5H2.75C2.335 1.5 2 1.835 2 2.25V8.525L0.545 12.4925C0.52 12.5625 0.51 12.63 0.505 12.7C0.505 12.7175 0.5 12.7325 0.5 12.75V18.75C0.5 19.165 0.835 19.5 1.25 19.5H17.75C18.165 19.5 18.5 19.165 18.5 18.75V12.75C18.5 12.7325 18.4975 12.7175 18.495 12.7ZM11.25 12.69C11.25 13.58 10.6125 14.3725 9.73 14.485C8.6625 14.6225 7.75 13.79 7.75 12.75V12.25H3.5V3H15.5V12.25H11.25V12.69Z" fill="#0095D5"/>
</g>
</svg>
