<svg width="54" height="26" viewBox="0 0 54 26" fill="none" xmlns="http://www.w3.org/2000/svg">
<path d="M9.24758 17.5481C9.24758 17.2132 9.30763 16.8487 9.42773 16.4546C9.54782 16.0409 9.69795 15.637 9.87809 15.243C10.0783 14.8293 10.2984 14.4353 10.5386 14.0609C10.7788 13.6866 11.009 13.3615 11.2292 13.0857C11.3493 12.9478 11.5294 12.8788 11.7696 12.8788C12.0098 12.8788 12.21 12.9478 12.3701 13.0857C12.5503 13.2039 12.6404 13.3911 12.6404 13.6472C12.6404 13.9033 12.5103 14.1791 12.25 14.4747C11.9898 14.7505 11.7797 15.0361 11.6195 15.3317C11.4594 15.6666 11.3093 15.9917 11.1692 16.3069C11.0491 16.6221 10.989 16.9669 10.989 17.3412C10.989 17.7352 11.1391 17.9126 11.4394 17.8732C11.9598 17.7943 12.4502 17.6958 12.9106 17.5776C13.391 17.4594 13.8614 17.3412 14.3217 17.223C14.7821 17.1048 15.2525 17.0063 15.7329 16.9275C16.2333 16.829 16.7637 16.7797 17.3242 16.7797H17.7445C17.9247 16.7797 18.0348 16.8881 18.0748 17.1048C18.1148 17.3215 18.0848 17.4594 17.9847 17.5185C17.5844 17.7155 17.1941 17.883 16.8138 18.0209C16.4335 18.1391 15.9731 18.277 15.4326 18.4346C14.7321 18.6514 14.0215 18.8779 13.3009 19.1143C12.6003 19.3508 11.8697 19.469 11.1091 19.469C10.8689 19.469 10.5987 19.4394 10.2984 19.3803C9.99819 19.3212 9.758 19.1833 9.57785 18.9666C9.35767 18.7302 9.24758 18.2573 9.24758 17.5481ZM14.0215 13.2926C13.9014 12.9576 13.8614 12.5242 13.9014 11.9923C13.9414 11.4406 13.9614 10.9382 13.9614 10.4851C13.9614 10.4063 13.9714 10.2684 13.9915 10.0714C14.0115 9.87436 14.0315 9.67735 14.0515 9.48034C14.0715 9.26362 14.0915 9.06661 14.1116 8.88929C14.1316 8.69228 14.1416 8.56422 14.1416 8.50512C14.1616 8.3672 14.1816 8.22929 14.2016 8.09138C14.2217 7.93377 14.2317 7.80571 14.2317 7.70721C14.0715 7.80571 13.8413 7.96332 13.5411 8.18004C13.2409 8.37706 12.9706 8.55437 12.7304 8.71198C12.0699 9.16511 11.3193 9.58869 10.4786 9.98272C9.65791 10.3768 8.81722 10.5738 7.95652 10.5738C7.71632 10.5738 7.52617 10.495 7.38605 10.3373C7.26595 10.16 7.2059 9.99257 7.2059 9.83496C7.2059 9.67735 7.23593 9.50989 7.29598 9.33257C7.35603 9.15526 7.48613 9.0469 7.6863 9.0075C7.9265 8.9681 8.20673 8.9287 8.52699 8.88929C8.84725 8.84989 9.11747 8.79079 9.33765 8.71198C10.2984 8.37706 11.1692 7.94362 11.9498 7.41168C12.7504 6.86004 13.5711 6.2493 14.4118 5.57945C14.592 5.44154 14.7221 5.28393 14.8021 5.10662C14.9022 4.9096 14.9823 4.73229 15.0423 4.57468C15.1224 4.39736 15.2225 4.25945 15.3426 4.16095C15.4627 4.04274 15.6528 3.98363 15.913 3.98363C16.4135 3.98363 16.6637 4.23975 16.6637 4.75199C16.6637 5.04751 16.6136 5.28393 16.5135 5.46124C16.4335 5.63855 16.3434 5.85527 16.2433 6.11139C16.0031 6.64333 15.823 7.23437 15.7029 7.88452C15.5828 8.51497 15.5027 9.11586 15.4627 9.6872C15.4226 10.1009 15.3926 10.5048 15.3726 10.8988C15.3526 11.2732 15.3426 11.677 15.3426 12.1105C15.3426 12.4454 15.2925 12.7606 15.1924 13.0561C15.0924 13.332 14.8922 13.4896 14.592 13.529C14.4919 13.5487 14.3818 13.5388 14.2617 13.4994C14.1416 13.46 14.0615 13.3911 14.0215 13.2926ZM0.0600492 15.7749C-0.0200164 15.5779 -0.0200164 15.3809 0.0600492 15.1839C0.140115 14.9672 0.200164 14.7997 0.240197 14.6815C0.400328 14.3466 0.620509 13.992 0.900738 13.6176C1.18097 13.2236 1.39114 12.8985 1.53125 12.6424C1.87153 12.0514 2.23183 11.4702 2.61214 10.8988C2.99245 10.3275 3.2927 9.81526 3.51288 9.36213C3.63298 9.10601 3.7831 8.81049 3.96325 8.47556C4.16341 8.12094 4.34356 7.75646 4.50369 7.38213C4.68384 7.0078 4.83396 6.64333 4.95406 6.2887C5.09417 5.93408 5.16423 5.61885 5.16423 5.34303C4.82395 5.34303 4.41362 5.46124 3.93322 5.69766C3.47285 5.91437 3.04249 6.15079 2.64217 6.40691C2.50205 6.50542 2.33191 6.62363 2.13175 6.76154C1.9516 6.89945 1.68138 7.02751 1.32108 7.14571C1.14093 7.20482 0.980804 7.20482 0.840689 7.14571C0.720591 7.08661 0.620508 6.99795 0.540443 6.87975C0.460377 6.76154 0.410336 6.63348 0.39032 6.49557C0.370303 6.33796 0.39032 6.19019 0.450369 6.05229C0.550451 5.83557 0.710582 5.63855 0.930763 5.46124C1.15094 5.26423 1.35111 5.11647 1.53125 5.01796C1.77145 4.88005 2.04167 4.74214 2.34192 4.60423C2.64217 4.44662 2.94241 4.30871 3.24266 4.1905C3.56292 4.05259 3.88318 3.94423 4.20344 3.86542C4.52371 3.78662 4.81394 3.74722 5.07416 3.74722C5.25431 3.74722 5.45447 3.75707 5.67465 3.77677C5.89483 3.79647 6.105 3.84572 6.30517 3.92453C6.50533 4.00333 6.66546 4.12154 6.78556 4.27915C6.92568 4.41706 6.99573 4.60423 6.99573 4.84065C6.99573 5.31348 6.92568 5.79617 6.78556 6.2887C6.66546 6.76154 6.49532 7.23437 6.27514 7.70721C6.07498 8.18004 5.8548 8.64302 5.6146 9.09616C5.3744 9.54929 5.15422 9.97287 4.95406 10.3669C4.85398 10.5442 4.70385 10.8003 4.50369 11.1353C4.32354 11.4505 4.1534 11.7953 3.99327 12.1696C4.11337 12.2287 4.26349 12.2976 4.44364 12.3764C4.62379 12.4356 4.80394 12.4947 4.98408 12.5538C5.16423 12.6129 5.32436 12.6621 5.46448 12.7015C5.62461 12.7409 5.7347 12.7705 5.79475 12.7902C5.93486 12.8296 6.105 12.869 6.30517 12.9084C6.50533 12.9478 6.70549 12.9872 6.90566 13.0266C7.10582 13.066 7.28597 13.1054 7.4461 13.1448C7.62625 13.1645 7.75636 13.1744 7.83642 13.1744C8.0566 13.2138 8.21673 13.2729 8.31682 13.3517C8.43691 13.4305 8.49696 13.5881 8.49696 13.8245C8.49696 14.1791 8.33683 14.3958 8.01657 14.4747C7.71632 14.5338 7.42608 14.5436 7.14586 14.5042C6.42526 14.4254 5.76472 14.3269 5.16423 14.2087C4.56374 14.0905 3.84315 13.9132 3.00246 13.6767C2.88236 13.8541 2.77227 14.0215 2.67219 14.1791C2.57211 14.317 2.48203 14.455 2.40197 14.5929C2.34192 14.7308 2.29188 14.8194 2.25185 14.8588C2.09171 15.0952 1.90156 15.3711 1.68138 15.6863C1.48121 15.9818 1.23101 16.1493 0.930763 16.1887C0.730599 16.2084 0.550451 16.1887 0.39032 16.1296C0.230189 16.0508 0.120098 15.9326 0.0600492 15.7749Z" fill="black"/>
<path d="M26.2854 19.4985C26.2854 19.0651 26.3354 18.6711 26.4355 18.3164C26.5556 17.9421 26.7057 17.5481 26.8859 17.1343C26.9659 16.9964 27.076 16.7502 27.2161 16.3955C27.3763 16.0409 27.5564 15.6863 27.7566 15.3317C27.9567 14.977 28.1569 14.6618 28.3571 14.386C28.5572 14.1102 28.7474 13.9624 28.9275 13.9427C29.1277 13.923 29.3579 13.9624 29.6181 14.0609C29.8983 14.1397 30.0485 14.2875 30.0685 14.5042C30.0885 14.7012 29.9984 14.9278 29.7982 15.1839C29.6181 15.4203 29.458 15.6567 29.3179 15.8932C29.0376 16.3463 28.8074 16.76 28.6273 17.1343C28.4471 17.489 28.307 17.952 28.2069 18.5233C28.1869 18.6021 28.1769 18.6908 28.1769 18.7893C28.1769 18.8878 28.2169 18.9666 28.297 19.0257C28.3571 19.0848 28.4471 19.1143 28.5672 19.1143C28.7073 19.1143 28.8375 19.1045 28.9576 19.0848C29.0977 19.0454 29.2178 19.006 29.3179 18.9666C29.4379 18.9272 29.518 18.8976 29.558 18.8779C30.3387 18.543 31.1994 18.2376 32.1402 17.9618C33.1009 17.686 34.1218 17.4693 35.2027 17.3117C35.4829 17.2526 35.7231 17.2329 35.9233 17.2526C36.1434 17.2723 36.3536 17.3215 36.5538 17.4003C36.6138 17.42 36.6539 17.489 36.6739 17.6072C36.7139 17.7057 36.7239 17.8239 36.7039 17.9618C36.7039 18.08 36.6739 18.1982 36.6138 18.3164C36.5738 18.4149 36.4937 18.474 36.3736 18.4937C36.2535 18.5332 36.0033 18.5824 35.623 18.6415C35.2627 18.7006 34.9425 18.7597 34.6622 18.8188C34.0818 18.9764 33.4412 19.1636 32.7407 19.3803C32.0601 19.5773 31.3595 19.8236 30.6389 20.1191C30.1986 20.2964 29.7282 20.4934 29.2278 20.7102C28.7474 20.9072 28.1369 20.9564 27.3963 20.8579C27.076 20.8185 26.8058 20.6609 26.5856 20.3851C26.3854 20.1093 26.2854 19.8137 26.2854 19.4985ZM31.7498 12.3764C31.7699 11.9627 31.7899 11.549 31.8099 11.1353C31.8499 10.7018 31.9 10.2684 31.96 9.83496C32.0601 9.06661 32.1602 8.23915 32.2603 7.35258C32.3804 6.44631 32.5705 5.5893 32.8307 4.78154C32.9508 4.44662 33.0509 4.14124 33.131 3.86542C33.2311 3.5896 33.3411 3.35319 33.4612 3.15617C33.5613 2.99856 33.7515 2.91976 34.0317 2.91976C34.3119 2.90005 34.5321 2.93946 34.6923 3.03796C34.7723 3.09707 34.8424 3.17587 34.9024 3.27438C34.9825 3.35319 35.0225 3.43199 35.0225 3.5108C35.0425 3.78662 34.9925 4.03289 34.8724 4.2496C34.7523 4.46632 34.6522 4.69288 34.5722 4.9293C34.3119 5.83557 34.0918 6.85019 33.9116 7.97318C33.7515 9.09616 33.5813 10.1699 33.4012 11.1944C33.3612 11.5096 33.3111 11.8248 33.2511 12.14C33.191 12.4553 33.141 12.7508 33.101 13.0266C33.0809 13.2236 33.0109 13.4305 32.8908 13.6472C32.7707 13.8639 32.6306 13.9526 32.4704 13.9132C32.2903 13.8738 32.1502 13.795 32.0501 13.6767C31.95 13.5585 31.8699 13.4206 31.8099 13.263C31.7699 13.1054 31.7498 12.9478 31.7498 12.7902C31.7498 12.6326 31.7498 12.4947 31.7498 12.3764ZM22.172 13.6176C22.3121 13.4797 22.5623 13.3418 22.9226 13.2039C23.2829 13.0463 23.6332 12.869 23.9735 12.672C24.0335 12.4356 24.0836 12.1991 24.1236 11.9627C24.1636 11.7066 24.2037 11.4603 24.2437 11.2239C24.2637 11.1057 24.2937 10.9481 24.3338 10.7511C24.3738 10.5344 24.4038 10.3078 24.4238 10.0714C24.4639 9.83496 24.5039 9.59855 24.5439 9.36213C24.584 9.10601 24.614 8.87944 24.634 8.68243C24.6941 8.07168 24.4038 7.78601 23.7633 7.82541C23.3029 7.84512 22.8225 7.95347 22.3221 8.15049C21.8217 8.3475 21.4214 8.72183 21.1211 9.27347C21.0811 9.33258 21.0411 9.50989 21.001 9.80541C20.961 10.1009 20.951 10.3768 20.971 10.6329C20.991 10.8496 21.001 10.9973 21.001 11.0762C21.0211 11.155 21.0311 11.2141 21.0311 11.2535C21.0311 11.2929 21.0311 11.352 21.0311 11.4308C21.0511 11.4899 21.0611 11.6081 21.0611 11.7854C21.0811 12.1794 20.981 12.4159 20.7608 12.4947C20.5607 12.5735 20.4106 12.6129 20.3105 12.6129C20.1503 12.6129 20.0102 12.5636 19.8901 12.4651C19.79 12.3666 19.7 12.2484 19.6199 12.1105C19.5398 11.9726 19.4798 11.8248 19.4398 11.6672C19.3997 11.5096 19.3697 11.3815 19.3497 11.283C19.3297 11.1845 19.3097 11.0466 19.2896 10.8693C19.2696 10.692 19.2596 10.5836 19.2596 10.5442C19.2596 10.3078 19.2596 10.0418 19.2596 9.74631C19.2596 9.43108 19.2696 9.11586 19.2896 8.80064C19.2896 8.78094 19.2996 8.69228 19.3197 8.53467C19.3397 8.35735 19.3597 8.17019 19.3797 7.97318C19.4197 7.75646 19.4598 7.53974 19.4998 7.32303C19.5398 7.10631 19.5699 6.93885 19.5899 6.82064C19.6499 6.44631 19.7 6.17049 19.74 5.99318C19.8001 5.79617 19.8901 5.54005 20.0102 5.22482C20.1103 5.00811 20.2905 4.88005 20.5507 4.84065C20.8109 4.80124 21.0511 4.83079 21.2713 4.9293C21.4314 4.98841 21.5315 5.08691 21.5715 5.22482C21.6316 5.34303 21.6416 5.47109 21.6015 5.609C21.5415 5.86512 21.4714 6.12124 21.3914 6.37736C21.3313 6.61378 21.2813 6.84034 21.2412 7.05706C21.6616 6.78124 22.0919 6.57437 22.5323 6.43646C22.9727 6.29855 23.4831 6.2296 24.0635 6.2296C24.7641 6.2296 25.3146 6.38721 25.7149 6.70243C26.1352 7.01766 26.3254 7.46094 26.2854 8.03228C26.2453 8.60362 26.1753 9.16511 26.0752 9.71675C25.9951 10.2684 25.9151 10.7314 25.835 11.1057C25.795 11.3027 25.7549 11.4702 25.7149 11.6081C25.6949 11.746 25.6649 11.8938 25.6248 12.0514C26.1252 11.8938 26.4955 11.7756 26.7357 11.6967C26.9759 11.6179 27.2762 11.5391 27.6365 11.4603C27.7566 11.4406 27.8567 11.4603 27.9367 11.5194C28.0368 11.5785 28.1069 11.6573 28.1469 11.7559C28.2069 11.8544 28.227 11.9627 28.2069 12.0809C28.2069 12.1794 28.1669 12.2582 28.0868 12.3173C28.0068 12.3764 27.8867 12.4553 27.7265 12.5538C27.5664 12.6326 27.3963 12.7212 27.2161 12.8197C27.036 12.8985 26.8558 12.9872 26.6757 13.0857C26.4955 13.1645 26.3354 13.2335 26.1953 13.2926C26.0552 13.3517 25.865 13.4403 25.6248 13.5585C25.4046 13.6767 25.1344 13.8147 24.8142 13.9723C24.7341 14.0117 24.604 14.0806 24.4238 14.1791C24.2637 14.2579 24.0836 14.3466 23.8834 14.4451C23.7033 14.5239 23.5231 14.6126 23.343 14.7111C23.1628 14.7899 23.0327 14.8391 22.9526 14.8588C22.7725 14.9376 22.6023 14.9376 22.4422 14.8588C22.2821 14.78 22.162 14.6717 22.0819 14.5338C22.0019 14.3958 21.9618 14.2382 21.9618 14.0609C21.9818 13.8836 22.0519 13.7358 22.172 13.6176Z" fill="black"/>
<path d="M43.1278 7.41168C43.1478 7.15557 43.2579 6.86989 43.458 6.55467C43.7983 6.02273 44.0685 5.54005 44.2687 5.10662C44.4889 4.67318 44.7091 4.1708 44.9292 3.59946C45.0293 3.32363 45.0994 3.06751 45.1394 2.8311C45.1995 2.59468 45.2495 2.35826 45.2895 2.12185C45.3296 1.90513 45.2595 1.73767 45.0794 1.61946C44.9192 1.50125 44.699 1.44215 44.4188 1.44215C44.0185 1.44215 43.5681 1.50125 43.0677 1.61946C42.5673 1.73767 42.197 1.83617 41.9568 1.91498C41.6966 1.99379 41.4964 1.96423 41.3563 1.82632C41.2362 1.66871 41.1762 1.48155 41.1762 1.26483C41.1762 1.06782 41.2262 0.910207 41.3263 0.791998C41.4464 0.654088 41.5865 0.54573 41.7466 0.466925C41.9068 0.368417 42.0869 0.299461 42.2871 0.260059C42.4872 0.220657 42.6674 0.181254 42.8275 0.14185C43.1678 0.0827465 43.5881 0.0433435 44.0885 0.0236411C44.609 -0.0157612 45.0393 -0.00591005 45.3796 0.0531947C45.84 0.131999 46.2003 0.309312 46.4605 0.585132C46.7407 0.860952 46.8708 1.28453 46.8508 1.85588C46.8508 2.1317 46.8308 2.33856 46.7908 2.47647C46.7707 2.61438 46.7407 2.7917 46.7007 3.00841C46.5406 3.79647 46.2803 4.55497 45.92 5.28393C45.5798 5.99318 45.1995 6.63348 44.7791 7.20482C44.5789 7.46094 44.3388 7.6481 44.0585 7.76631C43.8584 7.84512 43.6482 7.84512 43.428 7.76631C43.2078 7.6875 43.1077 7.5693 43.1278 7.41168ZM46.0702 25.2021C46.0702 24.8081 46.0902 24.3845 46.1302 23.9313C46.1703 23.4979 46.2303 23.0743 46.3104 22.6606C46.3504 22.4045 46.4004 22.109 46.4605 21.774C46.5205 21.4391 46.5806 21.1042 46.6406 20.7693C46.7007 20.4343 46.7707 20.0994 46.8508 19.7645C46.9309 19.4296 47.0109 19.134 47.091 18.8779C47.2311 18.4051 47.3312 17.9815 47.3913 17.6072C47.4713 17.2329 47.5814 16.7896 47.7215 16.2773C47.7816 16.0212 47.8616 15.7355 47.9617 15.4203C48.0818 15.0854 48.2019 14.7603 48.322 14.4451C48.4421 14.1102 48.5522 13.8048 48.6523 13.529C48.7724 13.2335 48.8625 13.0069 48.9225 12.8493C49.0226 12.5735 49.1227 12.3075 49.2228 12.0514C49.3429 11.7756 49.4429 11.5096 49.523 11.2535C49.6031 10.9776 49.6831 10.7117 49.7632 10.4556C49.8433 10.1994 49.9133 9.92362 49.9734 9.6281C49.553 9.6675 49.1327 9.7266 48.7123 9.80541C48.312 9.86451 47.8316 9.94332 47.2712 10.0418C47.1511 10.0615 46.9509 10.1108 46.6707 10.1896C46.4104 10.2487 46.1202 10.3176 45.7999 10.3965C45.4997 10.4753 45.1995 10.5541 44.8992 10.6329C44.599 10.7117 44.3688 10.7708 44.2086 10.8102C43.5081 11.0072 42.8175 11.2338 42.1369 11.4899C41.4564 11.746 40.7758 12.0317 40.0953 12.3469C39.9351 12.4257 39.755 12.5144 39.5548 12.6129C39.3747 12.7114 39.1945 12.8197 39.0144 12.9379C38.7942 13.0956 38.574 13.2532 38.3538 13.4108C38.1537 13.5487 37.8935 13.6176 37.5732 13.6176C37.1328 13.6176 36.9127 13.3615 36.9127 12.8493C36.9127 12.6523 36.9727 12.4651 37.0928 12.2878C37.2129 12.1105 37.363 11.9529 37.5432 11.815C37.7233 11.677 37.9135 11.5588 38.1137 11.4603C38.3138 11.3421 38.494 11.2436 38.6541 11.1648C38.9944 11.0072 39.3246 10.8693 39.6449 10.7511C39.9652 10.6132 40.2954 10.4753 40.6357 10.3373C41.2162 10.1206 41.7967 9.92362 42.3771 9.74631C42.9576 9.56899 43.5581 9.39168 44.1786 9.21437C45.0994 8.93855 46.0401 8.73168 47.0009 8.59377C47.6214 8.49526 48.3821 8.37706 49.2828 8.23915C50.1835 8.10124 51.3145 8.03228 52.6756 8.03228C52.7556 8.03228 52.8657 8.04213 53.0059 8.06183C53.166 8.06183 53.3161 8.09138 53.4562 8.15049C53.5963 8.18989 53.7164 8.25885 53.8165 8.35735C53.9366 8.43616 53.9967 8.54452 53.9967 8.68243C54.0167 8.95825 53.9466 9.12571 53.7865 9.18481C53.6464 9.24392 53.4662 9.29317 53.246 9.33257C53.0259 9.37198 52.7757 9.40153 52.4954 9.42123C52.2352 9.44093 51.995 9.46064 51.7748 9.48034C51.4946 9.50004 51.2244 9.50989 50.9642 9.50989C51.1844 9.6281 51.3145 9.77586 51.3545 9.95317C51.3945 10.1108 51.3945 10.2782 51.3545 10.4556C51.1944 10.9678 51.0242 11.4702 50.8441 11.9627C50.6839 12.4553 50.5338 12.9576 50.3937 13.4699C50.2336 14.0215 50.0634 14.5633 49.8833 15.0952C49.7232 15.6272 49.533 16.1788 49.3128 16.7502C49.0926 17.3215 48.9225 17.8535 48.8024 18.346C48.7023 18.8188 48.5722 19.3705 48.4121 20.0009C48.332 20.3358 48.2219 20.7693 48.0818 21.3012C47.9417 21.8331 47.8216 22.2863 47.7215 22.6606C47.6415 23.0152 47.5514 23.3699 47.4513 23.7245C47.3712 24.0988 47.2912 24.4928 47.2111 24.9066C47.131 25.3006 47.051 25.5764 46.9709 25.734C46.9109 25.9113 46.7908 26 46.6106 26C46.3904 26 46.2403 25.9113 46.1602 25.734C46.1002 25.5764 46.0702 25.3991 46.0702 25.2021ZM41.8367 17.4594C41.8367 17.1836 41.8467 16.9078 41.8667 16.632C41.8867 16.3561 41.9168 16.0803 41.9568 15.8045C41.9968 15.5287 42.0369 15.2627 42.0769 15.0066C42.1369 14.7308 42.207 14.455 42.2871 14.1791C42.3671 13.923 42.4572 13.6964 42.5573 13.4994C42.6574 13.3024 42.8275 13.2039 43.0677 13.2039C43.3079 13.2039 43.5081 13.263 43.6682 13.3812C43.8483 13.4994 43.9484 13.6964 43.9684 13.9723C43.9885 14.2875 43.9484 14.583 43.8483 14.8588C43.7683 15.115 43.6782 15.4302 43.5781 15.8045C43.478 16.1788 43.428 16.5729 43.428 16.9866C43.428 17.3806 43.428 17.7746 43.428 18.1687C43.428 18.4445 43.428 18.74 43.428 19.0552C43.448 19.3508 43.478 19.6364 43.5181 19.9123C43.5981 20.4639 43.6082 20.8185 43.5481 20.9761C43.5081 21.1337 43.398 21.2323 43.2178 21.2717C42.7975 21.3308 42.4972 21.2125 42.3171 20.917C42.157 20.6215 42.0269 20.2373 41.9268 19.7645C41.8867 19.6069 41.8567 19.3508 41.8367 18.9961C41.8367 18.6415 41.8367 18.1293 41.8367 17.4594Z" fill="black"/>
</svg>
