<svg width="248" height="28" viewBox="0 0 248 28" fill="none" xmlns="http://www.w3.org/2000/svg">
<path d="M6.86365 0.102903H0V27.8251H6.86365V0.102903Z" fill="#0095D5"/>
<path d="M52.8409 0.102903H26.9092V6.10217H36.3352V27.8251H43.1885V6.10217H52.8409V0.102903Z" fill="#ED1A2E"/>
<path d="M17.5965 27.8045L7.3473 15.8574V12.1838L17.545 0.123484H25.9214L13.8611 13.8611L26.1272 27.8045H17.5965Z" fill="#0095D5"/>
<path d="M74.0287 0.102903L69.0893 16.2381L64.1499 0.102903H53.8287V27.8251H60.6821V11.3708L65.5391 27.8251H72.6395L77.4965 11.3708V27.8251H84.3602V0.102903H74.0287Z" fill="#00133F"/>
<path d="M100.588 27.7427C100.403 27.7427 99.95 27.6604 99.95 26.9401V18.2036H92.9423C92.5821 18.2036 92.4484 18.0081 92.3969 17.8846C92.3352 17.7405 92.3146 17.5553 92.3146 17.3083V15.3326C92.3146 15.0856 92.3455 14.9004 92.4072 14.7666C92.4689 14.6329 92.613 14.4682 92.9526 14.4682H110.22C110.415 14.4682 110.868 14.5505 110.868 15.3326V17.3083C110.868 18.0801 110.456 18.1933 110.22 18.1933H103.212V26.9298C103.212 27.6501 102.77 27.7325 102.574 27.7325H100.588V27.7427ZM94.7843 13.007C94.6814 13.007 94.5888 12.9864 94.5167 12.935C94.3932 12.8526 94.3006 12.6983 94.208 12.4204L93.7038 10.5167C93.5186 9.7964 93.889 9.52885 94.1257 9.43624C94.9798 9.11724 95.8339 8.75707 96.6365 8.35575C97.4392 7.96472 98.211 7.54281 98.9107 7.12091C99.6104 6.69901 100.259 6.2771 100.825 5.86549C101.391 5.46417 101.874 5.07313 102.245 4.72326C102.368 4.61007 102.409 4.53804 102.43 4.49688C102.409 4.49688 102.389 4.49688 102.358 4.49688H95.803C95.5869 4.49688 95.4223 4.43513 95.3194 4.31165C95.2268 4.19846 95.1856 4.02352 95.1856 3.7251V1.53326C95.1856 1.25542 95.2268 1.09078 95.3194 0.977582C95.4223 0.854098 95.5766 0.792356 95.803 0.792356H105.27C105.97 0.792356 106.505 0.967291 106.865 1.31716C107.225 1.66703 107.411 2.1301 107.411 2.68578C107.411 3.05623 107.349 3.43697 107.215 3.81771C107.092 4.19846 106.917 4.56891 106.711 4.92907C106.505 5.28923 106.258 5.64939 105.98 5.99927C105.702 6.34914 105.404 6.67843 105.116 6.98714C105.054 7.05917 104.982 7.1312 104.91 7.19294L105.713 7.58398C106.093 7.7692 106.484 7.95443 106.886 8.11907C107.287 8.29401 107.678 8.45865 108.059 8.6233C108.429 8.77766 108.789 8.92172 109.119 9.03491C109.386 9.14811 109.541 9.27159 109.592 9.43624C109.644 9.5803 109.633 9.78611 109.551 10.1154L109.026 11.9882C108.933 12.3484 108.82 12.5336 108.645 12.5851C108.584 12.6057 108.512 12.6159 108.44 12.6159C108.357 12.6159 108.265 12.6057 108.162 12.5748C107.205 12.2661 106.165 11.8339 105.054 11.2988C103.994 10.7843 102.945 10.208 101.936 9.59059C100.928 10.2903 99.8265 10.9386 98.6843 11.5252C97.4906 12.1426 96.2764 12.6159 95.093 12.9452C94.9592 12.9864 94.8563 12.9967 94.7637 12.9967L94.7843 13.007Z" fill="#00133F"/>
<path d="M102.986 17.9669V26.9298C102.986 27.3105 102.852 27.5061 102.584 27.5061H100.598C100.331 27.5061 100.197 27.3105 100.197 26.9298V17.9669H92.9629C92.7879 17.9669 92.6747 17.9052 92.6336 17.792C92.5821 17.6788 92.5616 17.5141 92.5616 17.3083V15.3326C92.5616 15.1268 92.5821 14.9621 92.6336 14.8592C92.685 14.7563 92.7879 14.7049 92.9629 14.7049H110.23C110.508 14.7049 110.652 14.9107 110.652 15.3326V17.3083C110.652 17.7508 110.508 17.9669 110.23 17.9669H102.986ZM104.972 6.82249C104.9 6.89452 104.838 6.96656 104.766 7.03859C104.694 7.10033 104.612 7.17236 104.54 7.25469C104.889 7.42962 105.26 7.60456 105.641 7.80007C106.032 7.99559 106.423 8.17053 106.824 8.34546C107.225 8.5204 107.616 8.68504 107.997 8.84969C108.378 9.01433 108.738 9.14811 109.067 9.2613C109.252 9.33333 109.366 9.42595 109.397 9.51856C109.427 9.61117 109.417 9.7964 109.345 10.0639L108.82 11.9265C108.748 12.194 108.676 12.3381 108.594 12.369C108.512 12.3999 108.388 12.3896 108.244 12.3587C107.308 12.05 106.289 11.6281 105.178 11.1033C104.076 10.5682 102.996 9.97133 101.946 9.32304C100.897 10.0537 99.7854 10.7122 98.602 11.3297C97.4186 11.9368 96.2352 12.4101 95.0518 12.7291C94.846 12.7909 94.7122 12.7909 94.6402 12.7394C94.5682 12.688 94.4961 12.5645 94.4241 12.3484L93.9199 10.455C93.817 10.0331 93.9096 9.76553 94.1977 9.65233C95.0724 9.32304 95.9162 8.96288 96.7291 8.56156C97.5421 8.16024 98.3139 7.74862 99.0239 7.31643C99.7339 6.88423 100.382 6.46233 100.958 6.06101C101.535 5.64939 102.018 5.26865 102.409 4.8982C102.615 4.70268 102.698 4.55862 102.677 4.43513C102.656 4.32194 102.553 4.2602 102.368 4.2602H95.8133C95.6692 4.2602 95.5663 4.22933 95.5149 4.1573C95.4634 4.09555 95.4326 3.9412 95.4326 3.71481V1.53326C95.4326 1.32745 95.4634 1.18339 95.5149 1.12165C95.5663 1.0599 95.6692 1.01874 95.8133 1.01874H105.28C105.918 1.01874 106.402 1.1731 106.721 1.48181C107.04 1.79052 107.194 2.19184 107.194 2.68578C107.194 3.02536 107.133 3.38552 107.009 3.74568C106.886 4.10584 106.731 4.46601 106.526 4.81588C106.32 5.16575 106.083 5.51562 105.816 5.86549C105.538 6.20507 105.26 6.53436 104.961 6.84307L104.972 6.82249Z" fill="#00133F"/>
<path d="M125.151 27.8868C124.956 27.8868 124.503 27.8045 124.503 27.0842V21.0437C124.503 20.8482 124.451 20.8482 124.431 20.8482H115.56C115.396 20.8482 115.262 20.8071 115.149 20.7144C114.974 20.5807 114.953 20.3131 114.953 20.1279V17.8949C114.953 17.5244 115.015 17.3289 115.169 17.226C115.283 17.154 115.416 17.1128 115.571 17.1128H126.108C126.427 17.1128 126.695 17.154 126.911 17.226C127.147 17.3083 127.333 17.4627 127.466 17.6891C127.58 17.8846 127.662 18.1419 127.703 18.4506C127.744 18.7387 127.765 19.0886 127.765 19.5002V27.0944C127.765 27.8251 127.333 27.8971 127.147 27.8971H125.161L125.151 27.8868ZM113.43 16.269C113.194 16.269 113.039 16.0221 112.947 15.8471L111.949 14.0772C111.763 13.7376 111.702 13.5009 111.774 13.3054C111.825 13.151 111.938 12.9761 112.123 12.7703C113.544 11.4017 114.593 9.73466 115.252 7.80007C115.91 5.8552 116.24 3.73539 116.24 1.50239C116.24 1.09078 116.281 0.884969 116.394 0.761485C116.487 0.658581 116.631 0.60713 116.826 0.60713C116.867 0.60713 116.919 0.60713 116.96 0.60713L118.864 0.720323C119.09 0.751194 119.234 0.823227 119.337 0.93642C119.43 1.04961 119.471 1.22455 119.471 1.4921C119.471 2.97391 119.368 4.38368 119.172 5.69056C119.337 6.31827 119.574 6.94598 119.872 7.54282C120.181 8.16024 120.52 8.74678 120.881 9.28188C121.241 9.81698 121.621 10.3006 122.002 10.7122C122.393 11.1341 122.753 11.4737 123.072 11.731C123.309 11.9368 123.422 12.1529 123.422 12.369C123.422 12.4822 123.391 12.5954 123.33 12.7394C123.288 12.8423 123.247 12.9247 123.227 12.9967L122.434 14.8181C122.321 15.0548 122.187 15.2914 121.971 15.312C121.796 15.312 121.642 15.24 121.416 15.0856C121.128 14.8901 120.798 14.6123 120.459 14.2727C120.119 13.9331 119.779 13.5421 119.44 13.0996C119.111 12.6674 118.781 12.1838 118.462 11.6589C118.236 11.2885 118.03 10.9078 117.845 10.5167C116.96 12.6468 115.705 14.4476 114.12 15.8574C113.729 16.1764 113.585 16.2381 113.482 16.2484H113.441L113.43 16.269ZM125.13 16.0221C124.914 16.0221 124.75 15.9603 124.647 15.8368C124.554 15.7236 124.513 15.5487 124.513 15.2811V0.782065C124.513 0.442484 124.575 0.246968 124.709 0.144065C124.822 0.0514517 124.966 0.0102903 125.141 0.0102903H127.168C127.569 0.0102903 127.672 0.236678 127.693 0.339581C127.724 0.463065 127.744 0.60713 127.744 0.782065V15.2503C127.744 15.5178 127.703 15.6928 127.621 15.8162C127.518 15.9603 127.353 16.0323 127.127 16.0323H125.12L125.13 16.0221Z" fill="#00133F"/>
<path d="M113.955 15.703C113.698 15.9089 113.533 16.022 113.441 16.0323C113.358 16.0323 113.255 15.9397 113.153 15.7339L112.144 13.9537C112 13.6861 111.938 13.4906 111.979 13.3671C112.021 13.2437 112.123 13.0996 112.278 12.9247C113.729 11.5355 114.789 9.84785 115.458 7.87211C116.126 5.89636 116.466 3.77655 116.466 1.50239C116.466 1.1731 116.497 0.977582 116.559 0.91584C116.62 0.854098 116.744 0.823227 116.929 0.843807L118.843 0.957001C118.987 0.977582 119.09 1.01874 119.141 1.08048C119.193 1.15252 119.224 1.28629 119.224 1.4921C119.224 2.9842 119.121 4.38368 118.925 5.70085C119.1 6.36972 119.347 7.01801 119.656 7.64572C119.975 8.27343 120.315 8.85998 120.685 9.40536C121.055 9.95075 121.436 10.4344 121.827 10.8666C122.218 11.2988 122.589 11.6487 122.918 11.9162C123.093 12.0706 123.175 12.2249 123.175 12.369C123.175 12.441 123.155 12.5336 123.103 12.6365C123.052 12.7394 123.021 12.832 122.99 12.9041L122.208 14.7049C122.105 14.9313 122.002 15.0548 121.93 15.065C121.848 15.065 121.714 15.0136 121.529 14.8798C121.251 14.6843 120.942 14.427 120.603 14.0875C120.263 13.7582 119.934 13.3671 119.605 12.9452C119.275 12.513 118.956 12.0397 118.637 11.5252C118.318 11.0107 118.04 10.4756 117.804 9.91988C116.919 12.2455 115.632 14.1698 113.945 15.6722L113.955 15.703ZM127.137 27.6501H125.151C124.873 27.6501 124.729 27.4546 124.729 27.0739V21.0334C124.729 20.7453 124.626 20.6012 124.431 20.6012H115.56C115.458 20.6012 115.365 20.5704 115.293 20.5189C115.221 20.4572 115.18 20.3234 115.18 20.1176V17.8846C115.18 17.6171 115.221 17.4627 115.293 17.4112C115.365 17.3598 115.458 17.3392 115.56 17.3392H126.098C126.396 17.3392 126.633 17.3701 126.818 17.4421C127.003 17.5141 127.147 17.6273 127.25 17.8023C127.353 17.9772 127.425 18.2036 127.456 18.4712C127.497 18.749 127.518 19.0886 127.518 19.4899V27.0842C127.518 27.4649 127.394 27.6604 127.137 27.6604V27.6501ZM127.137 15.7957H125.13C124.986 15.7957 124.883 15.7648 124.832 15.6928C124.781 15.631 124.75 15.487 124.75 15.2811V0.782065C124.75 0.535097 124.791 0.380742 124.863 0.319C124.935 0.257258 125.038 0.236678 125.151 0.236678H127.178C127.353 0.236678 127.456 0.288129 127.477 0.391033C127.508 0.493936 127.518 0.62771 127.518 0.782065V15.2503C127.518 15.4561 127.487 15.6001 127.435 15.6825C127.384 15.7545 127.281 15.7957 127.137 15.7957Z" fill="#00133F"/>
<path d="M144.188 27.9383C143.972 27.9383 143.807 27.8765 143.705 27.753C143.612 27.6398 143.571 27.4546 143.571 27.1665V0.782065C143.571 0.514517 143.612 0.339581 143.694 0.216097C143.797 0.0720323 143.962 0 144.188 0H146.236C146.462 0 146.627 0.0720323 146.73 0.216097C146.812 0.339581 146.853 0.514517 146.853 0.782065V27.1562C146.853 27.4443 146.812 27.6295 146.72 27.7427C146.617 27.8662 146.452 27.928 146.236 27.928H144.188V27.9383ZM133.229 23.5443C132.426 23.5443 131.634 23.5237 130.872 23.5031C130.564 23.5031 130.43 23.3591 130.368 23.2253C130.307 23.1018 130.276 22.9166 130.276 22.6696V20.6115C130.276 20.3543 130.317 20.1691 130.389 20.0353C130.471 19.8809 130.626 19.7986 130.821 19.7986C130.852 19.7986 130.883 19.7986 130.924 19.7986L133.239 19.8501C133.507 19.8501 133.764 19.8501 134.032 19.8501C134.484 19.8501 134.947 19.8501 135.4 19.8192V17.864C134.978 17.7302 134.567 17.5347 134.207 17.2775C133.795 16.9996 133.424 16.6498 133.126 16.2381C132.828 15.8265 132.581 15.3635 132.406 14.8592C132.231 14.355 132.138 13.7788 132.138 13.1613C132.138 12.4307 132.272 11.7413 132.529 11.1341C132.786 10.527 133.147 10.0022 133.599 9.55972C134.052 9.11724 134.567 8.77766 135.153 8.55127C135.74 8.32488 136.357 8.2014 137.016 8.2014C137.674 8.2014 138.282 8.31459 138.858 8.55127C139.444 8.77766 139.959 9.11724 140.391 9.55972C140.823 10.0022 141.173 10.527 141.43 11.1341C141.688 11.7413 141.821 12.4204 141.821 13.1613C141.821 13.7685 141.739 14.3447 141.564 14.8695C141.399 15.384 141.153 15.8574 140.844 16.2587C140.535 16.6601 140.175 16.9996 139.763 17.2981C139.393 17.5553 139.002 17.7508 138.58 17.8949V19.6545C139.197 19.6031 139.815 19.5311 140.401 19.4487C141.07 19.3561 141.739 19.2326 142.398 19.0783C142.511 19.0577 142.603 19.0474 142.675 19.0474C142.809 19.0474 142.902 19.0783 142.984 19.14C143.097 19.2326 143.169 19.3973 143.2 19.706L143.365 21.7743C143.406 22.1448 143.365 22.3403 143.231 22.4432C143.149 22.505 143.025 22.5667 142.861 22.6182C141.924 22.8343 140.947 23.0092 139.938 23.143C138.93 23.2767 137.901 23.3796 136.882 23.4311C135.863 23.4928 134.834 23.5237 133.805 23.534C133.61 23.534 133.404 23.534 133.208 23.534L133.229 23.5443ZM137.016 11.6692C136.46 11.6692 136.038 11.8133 135.73 12.122C135.421 12.4204 135.277 12.7703 135.277 13.1922C135.277 13.6141 135.421 13.964 135.719 14.2624C136.018 14.5608 136.44 14.7049 137.016 14.7049C137.592 14.7049 137.973 14.5608 138.271 14.2624C138.57 13.964 138.714 13.6141 138.714 13.1922C138.714 12.7703 138.57 12.4204 138.271 12.122C137.973 11.8236 137.561 11.6795 137.016 11.6795V11.6692ZM131.727 7.83094C131.521 7.83094 131.058 7.74862 131.058 6.99743V5.19662C131.058 4.44542 131.531 4.3631 131.727 4.3631H142.058C142.254 4.3631 142.706 4.44542 142.706 5.19662V7.0283C142.706 7.75891 142.254 7.83094 142.058 7.83094H131.727ZM134.361 3.76626C134.196 3.76626 134.052 3.71481 133.929 3.6222C133.785 3.509 133.713 3.29291 133.713 2.94304V1.11136C133.713 0.782065 133.774 0.576259 133.918 0.452775C134.052 0.339581 134.196 0.277839 134.361 0.277839H139.65C139.856 0.277839 140.319 0.360162 140.319 1.14223V2.92245C140.319 3.69423 139.846 3.78684 139.65 3.78684H134.361V3.76626Z" fill="#00133F"/>
<path d="M142.799 22.4123C141.873 22.6182 140.916 22.7931 139.918 22.9269C138.92 23.0606 137.911 23.1533 136.882 23.215C135.853 23.2767 134.834 23.3076 133.816 23.3179C132.797 23.3179 131.819 23.3179 130.883 23.2767C130.718 23.2767 130.615 23.2253 130.574 23.1327C130.523 23.0401 130.502 22.8857 130.502 22.6799V20.6218C130.502 20.416 130.533 20.2617 130.584 20.1588C130.636 20.0662 130.739 20.025 130.883 20.0456C131.644 20.0662 132.426 20.0867 133.229 20.1073C134.021 20.1279 134.824 20.1073 135.627 20.0764V17.7302C135.153 17.5965 134.721 17.401 134.33 17.1334C133.939 16.8659 133.589 16.5366 133.301 16.1455C133.013 15.7545 132.786 15.312 132.622 14.8284C132.457 14.3447 132.375 13.7993 132.375 13.2128C132.375 12.5028 132.498 11.8648 132.745 11.2782C132.992 10.6917 133.332 10.1977 133.764 9.77582C134.196 9.35391 134.69 9.03491 135.246 8.81882C135.802 8.60272 136.398 8.48952 137.026 8.48952C137.654 8.48952 138.23 8.60272 138.786 8.81882C139.341 9.03491 139.825 9.35391 140.247 9.77582C140.659 10.1977 140.998 10.7019 141.245 11.2782C141.492 11.8648 141.616 12.5028 141.616 13.2128C141.616 13.8096 141.533 14.3447 141.379 14.849C141.214 15.3429 140.988 15.7854 140.7 16.1661C140.401 16.5469 140.062 16.8761 139.66 17.154C139.259 17.4318 138.837 17.6376 138.384 17.7714V19.953C139.094 19.8912 139.784 19.8192 140.463 19.7266C141.142 19.634 141.811 19.5105 142.48 19.3561C142.686 19.315 142.809 19.3252 142.871 19.3664C142.933 19.4179 142.974 19.5516 143.005 19.778L143.169 21.8361C143.2 22.1036 143.18 22.258 143.118 22.3094C143.056 22.3609 142.964 22.4021 142.83 22.4329L142.799 22.4123ZM142.058 7.60456H131.727C131.428 7.60456 131.284 7.40904 131.284 7.00772V5.20691C131.284 4.80559 131.428 4.61007 131.727 4.61007H142.058C142.336 4.61007 142.48 4.80559 142.48 5.20691V7.03859C142.48 7.41933 142.336 7.61485 142.058 7.61485V7.60456ZM139.65 3.53988H134.361C134.258 3.53988 134.155 3.509 134.073 3.43697C133.99 3.37523 133.939 3.20029 133.939 2.93275V1.10107C133.939 0.854098 133.98 0.689452 134.073 0.61742C134.155 0.545388 134.258 0.504226 134.361 0.504226H139.65C139.949 0.504226 140.093 0.710033 140.093 1.13194V2.91216C140.093 3.33407 139.949 3.53988 139.65 3.53988ZM137.016 11.4429C136.398 11.4429 135.915 11.6178 135.565 11.9574C135.215 12.2969 135.04 12.7086 135.04 13.1922C135.04 13.6759 135.215 14.0772 135.555 14.427C135.894 14.7666 136.378 14.9416 137.016 14.9416C137.654 14.9416 138.096 14.7666 138.436 14.427C138.775 14.0875 138.95 13.6759 138.95 13.1922C138.95 12.7086 138.775 12.3072 138.436 11.9574C138.096 11.6178 137.623 11.4429 137.016 11.4429ZM146.246 27.7119H144.198C144.054 27.7119 143.951 27.681 143.9 27.609C143.849 27.5369 143.818 27.3929 143.818 27.1665V0.782065C143.818 0.576259 143.849 0.432194 143.9 0.349871C143.951 0.277839 144.054 0.236678 144.198 0.236678H146.246C146.39 0.236678 146.493 0.277839 146.545 0.349871C146.596 0.421904 146.627 0.565968 146.627 0.782065V27.1562C146.627 27.3826 146.596 27.5369 146.545 27.5987C146.493 27.6604 146.39 27.7016 146.246 27.7016V27.7119Z" fill="#00133F"/>
<path d="M162.32 27.9383C162.104 27.9383 161.939 27.8765 161.836 27.7633C161.733 27.6501 161.682 27.4649 161.682 27.1665V0.782065C161.682 0.514517 161.723 0.329291 161.826 0.205807C161.929 0.0720323 162.104 0 162.32 0H164.347C164.635 0 164.769 0.123484 164.831 0.226387C164.903 0.339581 164.933 0.514517 164.933 0.771775V10.3109H167.197C167.362 10.3109 167.506 10.3521 167.619 10.4241C167.774 10.5167 167.835 10.7225 167.835 11.093V13.2745C167.835 13.5832 167.774 13.7788 167.65 13.892C167.537 13.9949 167.383 14.0463 167.208 14.0463H164.944V27.1665C164.944 27.4546 164.913 27.6295 164.831 27.7427C164.738 27.8765 164.573 27.9383 164.347 27.9383H162.32ZM150.805 22.0728C150.589 22.0728 150.424 21.8773 150.311 21.7126L149.2 20.0764C149.066 19.8912 149.004 19.6957 149.004 19.5002C149.004 19.3047 149.097 19.0783 149.282 18.8107C150.054 17.7714 150.753 16.5469 151.381 15.168C152.009 13.789 152.503 12.3278 152.842 10.846C153.12 9.64204 153.326 8.31459 153.46 6.89452C153.594 5.47446 153.666 3.91033 153.666 2.24329C153.666 1.99632 153.696 1.8111 153.758 1.67732C153.82 1.54355 153.964 1.3789 154.324 1.3789L156.259 1.46123C156.619 1.50239 156.753 1.66703 156.804 1.80081C156.856 1.93458 156.876 2.1301 156.876 2.38736C156.876 4.72326 156.753 6.87394 156.495 8.79824C156.639 9.57001 156.866 10.4035 157.164 11.2679C157.463 12.1426 157.813 12.9967 158.193 13.7993C158.564 14.5917 158.965 15.3429 159.366 16.0323C159.768 16.7012 160.138 17.2466 160.478 17.6273C160.704 17.8846 160.817 18.1213 160.807 18.3477C160.807 18.5535 160.725 18.7696 160.581 19.0165L159.613 20.735C159.459 21.0129 159.264 21.0643 159.119 21.0643C158.924 21.0643 158.728 20.9511 158.512 20.7144C158.255 20.4469 157.957 20.0559 157.627 19.5722C157.308 19.0989 156.979 18.5535 156.639 17.9669C156.31 17.3804 155.991 16.7424 155.682 16.0735C155.477 15.6207 155.291 15.168 155.127 14.7358C154.942 15.2709 154.746 15.7957 154.53 16.3102C154.232 17.0202 153.913 17.72 153.573 18.3785C153.233 19.0371 152.873 19.6545 152.503 20.1999C152.132 20.7659 151.752 21.2495 151.391 21.6612C151.155 21.9184 151 22.0419 150.856 22.0728H150.784H150.805Z" fill="#00133F"/>
<path d="M159.428 20.6012C159.253 20.91 159.017 20.8894 158.708 20.5395C158.451 20.272 158.162 19.9015 157.843 19.4179C157.524 18.9445 157.195 18.4094 156.866 17.8331C156.537 17.2466 156.228 16.6292 155.919 15.9603C155.621 15.2914 155.363 14.6431 155.147 14.0154C154.911 14.7563 154.643 15.487 154.345 16.2073C154.046 16.9276 153.738 17.6068 153.398 18.2551C153.058 18.9033 152.709 19.5105 152.338 20.0559C151.968 20.6115 151.607 21.0849 151.247 21.4862C151.062 21.692 150.918 21.8155 150.836 21.8258C150.753 21.8464 150.64 21.7641 150.506 21.5685L149.405 19.9324C149.302 19.778 149.241 19.634 149.241 19.4899C149.241 19.3458 149.323 19.1606 149.477 18.9342C150.259 17.8846 150.959 16.6601 151.597 15.2503C152.235 13.8508 152.729 12.3896 153.079 10.8872C153.357 9.66262 153.573 8.33517 153.696 6.90481C153.83 5.47446 153.902 3.92062 153.902 2.233C153.902 2.0272 153.923 1.86255 153.974 1.75965C154.026 1.65674 154.139 1.60529 154.324 1.60529L156.248 1.68761C156.434 1.7082 156.547 1.76994 156.588 1.87284C156.629 1.97574 156.65 2.14039 156.65 2.37707C156.65 4.72326 156.526 6.86365 156.269 8.78794C156.413 9.59059 156.639 10.4344 156.948 11.3194C157.257 12.2043 157.607 13.0584 157.988 13.8714C158.368 14.6843 158.77 15.4355 159.171 16.1147C159.582 16.8041 159.953 17.3495 160.303 17.7508C160.488 17.9566 160.581 18.1522 160.57 18.3065C160.57 18.4712 160.498 18.6564 160.375 18.8622L159.408 20.5807L159.428 20.6012ZM167.208 13.8096H164.717V27.1562C164.717 27.3826 164.697 27.5369 164.645 27.5987C164.594 27.6604 164.501 27.7016 164.357 27.7016H162.33C162.186 27.7016 162.083 27.6707 162.021 27.5987C161.96 27.5266 161.929 27.3826 161.929 27.1562V0.782065C161.929 0.576259 161.96 0.432194 162.021 0.349871C162.083 0.277839 162.186 0.236678 162.33 0.236678H164.357C164.501 0.236678 164.604 0.277839 164.645 0.349871C164.697 0.421904 164.717 0.565968 164.717 0.782065V10.5476H167.208C167.331 10.5476 167.424 10.5682 167.496 10.6196C167.568 10.6711 167.609 10.8254 167.609 11.093V13.2745C167.609 13.5009 167.568 13.6553 167.496 13.717C167.424 13.789 167.321 13.8199 167.208 13.8199V13.8096Z" fill="#00133F"/>
<path d="M188.509 28C188.231 28 188.087 27.8868 188.015 27.7839C187.932 27.6707 187.891 27.4855 187.891 27.2179V0.782065C187.891 0.514517 187.932 0.329291 188.035 0.205807C188.138 0.0720323 188.303 0 188.529 0H190.495C190.721 0 190.886 0.0720323 190.989 0.216097C191.071 0.339581 191.112 0.514517 191.112 0.782065V27.2179C191.112 27.4855 191.071 27.6604 190.989 27.7839C190.917 27.8868 190.783 28 190.495 28H188.509ZM184.588 27.0224C184.382 27.0224 184.228 26.971 184.115 26.8681C184.001 26.7652 183.95 26.5799 183.95 26.2404V13.3774H181.244C180.647 14.993 179.885 16.516 178.99 17.9155C178.054 19.3664 176.963 20.6424 175.749 21.7126C175.543 21.867 175.388 21.9287 175.255 21.9287H175.203C174.987 21.8978 174.853 21.692 174.771 21.5377L173.824 19.7266C173.701 19.4899 173.639 19.2944 173.619 19.1297C173.598 18.9239 173.691 18.7181 173.886 18.5226C174.802 17.6685 175.615 16.7012 176.315 15.631C176.942 14.674 177.488 13.6656 177.951 12.6262C177.477 12.6777 177.004 12.7189 176.541 12.7497C175.954 12.7909 175.368 12.8115 174.812 12.8115C174.658 12.8115 174.514 12.7703 174.401 12.6777C174.267 12.5748 174.205 12.369 174.205 12.0397V9.91988C174.205 9.63175 174.236 9.45682 174.318 9.34362C174.411 9.20985 174.555 9.14811 174.72 9.14811C175.594 9.12753 176.417 9.10695 177.158 9.08636C177.838 9.06578 178.527 9.02462 179.216 8.96288C179.309 8.54098 179.391 8.12936 179.463 7.72804C179.546 7.28556 179.597 6.84307 179.618 6.41088C179.649 6.08159 179.587 5.97868 179.556 5.94781C179.556 5.94781 179.525 5.91694 179.453 5.91694H175.316C175.121 5.91694 174.668 5.84491 174.668 5.14517V3.02536C174.668 2.30503 175.121 2.22271 175.316 2.22271H181.11C181.82 2.22271 182.314 2.42852 182.551 2.84013C182.777 3.22087 182.89 3.83829 182.89 4.75413C182.89 6.40059 182.715 8.06762 182.365 9.70379H184.001V1.276C184.001 0.545388 184.444 0.473355 184.629 0.473355H186.481C186.667 0.473355 187.089 0.555678 187.089 1.276V26.2506C187.089 26.5491 187.047 26.724 186.955 26.8372C186.852 26.9607 186.687 27.0224 186.471 27.0224H184.588Z" fill="#00133F"/>
<path d="M175.605 21.548C175.44 21.6612 175.327 21.7126 175.244 21.7023C175.162 21.7023 175.08 21.5994 174.987 21.4348L174.04 19.634C173.938 19.4282 173.876 19.2532 173.855 19.1194C173.845 18.9857 173.907 18.8416 174.061 18.6872C174.987 17.8331 175.8 16.8556 176.51 15.7648C177.22 14.674 177.827 13.5421 178.321 12.3587C177.714 12.4307 177.117 12.4925 176.52 12.5336C175.924 12.5748 175.347 12.5954 174.802 12.5954C174.689 12.5954 174.606 12.5645 174.534 12.513C174.462 12.4513 174.421 12.3072 174.421 12.05V9.93017C174.421 9.70378 174.442 9.54943 174.493 9.48769C174.545 9.42595 174.606 9.38478 174.709 9.38478C175.594 9.3642 176.407 9.34362 177.148 9.32304C177.889 9.30246 178.64 9.2613 179.391 9.17898C179.494 8.70562 179.587 8.23227 179.669 7.77949C179.752 7.31643 179.803 6.87394 179.834 6.43146C179.875 5.93752 179.741 5.69056 179.433 5.69056H175.296C175.018 5.69056 174.874 5.50533 174.874 5.14517V3.02536C174.874 2.64462 175.018 2.4491 175.296 2.4491H181.089C181.717 2.4491 182.139 2.61374 182.334 2.95333C182.53 3.29291 182.633 3.87946 182.633 4.74384C182.633 6.48291 182.437 8.21169 182.046 9.93017H184.197V1.276C184.197 0.895259 184.331 0.699743 184.598 0.699743H186.451C186.708 0.699743 186.831 0.895259 186.831 1.276V26.2506C186.831 26.477 186.8 26.6314 186.749 26.6931C186.698 26.7549 186.595 26.796 186.451 26.796H184.598C184.454 26.796 184.351 26.7652 184.29 26.7137C184.228 26.652 184.197 26.5079 184.197 26.2506V13.1613H181.1C180.492 14.8181 179.731 16.3719 178.805 17.8023C177.879 19.2326 176.819 20.4881 175.605 21.5583V21.548ZM190.505 27.7633H188.519C188.375 27.7633 188.272 27.7222 188.221 27.6501C188.169 27.5781 188.138 27.434 188.138 27.2179V0.782065C188.138 0.576259 188.169 0.432194 188.231 0.349871C188.293 0.277839 188.395 0.236678 188.54 0.236678H190.505C190.649 0.236678 190.752 0.277839 190.803 0.349871C190.855 0.421904 190.886 0.565968 190.886 0.782065V27.2179C190.886 27.4237 190.855 27.5678 190.803 27.6501C190.752 27.7222 190.649 27.7633 190.505 27.7633Z" fill="#00133F"/>
<path d="M206.527 27.9383C206.311 27.9383 206.146 27.8765 206.043 27.753C205.951 27.6398 205.91 27.4546 205.91 27.1665V0.782065C205.91 0.514517 205.951 0.339581 206.033 0.216097C206.136 0.0720323 206.301 0 206.527 0H208.534C208.822 0 208.956 0.113194 209.028 0.216097C209.11 0.339581 209.151 0.514517 209.151 0.782065V27.1562C209.151 27.4546 209.11 27.6295 209.017 27.7427C208.914 27.8662 208.76 27.928 208.534 27.928H206.527V27.9383ZM198.943 21.2084C198.12 21.2084 197.369 20.9614 196.7 20.4778C196.041 20.0044 195.485 19.3252 195.022 18.4712C194.57 17.6273 194.22 16.6086 193.973 15.4458C193.726 14.2933 193.602 13.007 193.602 11.6178C193.602 10.2286 193.726 8.87027 193.973 7.68688C194.22 6.4932 194.57 5.46417 195.022 4.59978C195.485 3.73539 196.041 3.04594 196.7 2.56229C197.369 2.06836 198.13 1.8111 198.953 1.8111C199.777 1.8111 200.559 2.05807 201.227 2.54171C201.886 3.01507 202.462 3.69423 202.915 4.55862C203.368 5.40243 203.718 6.44175 203.965 7.62514C204.212 8.80853 204.335 10.136 204.335 11.556C204.335 12.9761 204.212 14.283 203.965 15.4561C203.718 16.6292 203.368 17.6479 202.915 18.4814C202.462 19.3252 201.886 20.0044 201.227 20.4778C200.559 20.9614 199.787 21.2084 198.953 21.2084H198.943ZM198.943 5.74201C198.655 5.74201 198.398 5.86549 198.151 6.11246C197.883 6.38001 197.657 6.78133 197.461 7.28556C197.266 7.80007 197.101 8.42778 196.988 9.1584C196.875 9.88901 196.823 10.7019 196.823 11.556C196.823 12.4101 196.885 13.151 196.988 13.8714C197.101 14.5814 197.255 15.1988 197.461 15.7133C197.657 16.2176 197.893 16.6189 198.161 16.8967C198.408 17.154 198.665 17.2878 198.943 17.2878C199.241 17.2878 199.509 17.1643 199.746 16.8967C200.013 16.6189 200.25 16.2176 200.445 15.7133C200.641 15.1988 200.806 14.5814 200.919 13.8714C201.032 13.1613 201.083 12.3793 201.083 11.556C201.083 10.7328 201.022 9.88901 200.919 9.1584C200.806 8.42778 200.651 7.80007 200.445 7.28556C200.25 6.78133 200.013 6.3903 199.756 6.11246C199.509 5.86549 199.241 5.74201 198.943 5.74201Z" fill="#00133F"/>
<path d="M198.943 20.982C198.171 20.982 197.461 20.7556 196.834 20.2925C196.206 19.8295 195.671 19.1915 195.228 18.358C194.786 17.5244 194.446 16.5366 194.199 15.3943C193.963 14.2521 193.839 12.9864 193.839 11.6178C193.839 10.2492 193.963 8.91143 194.199 7.73833C194.436 6.56523 194.786 5.55678 195.228 4.71297C195.671 3.86917 196.206 3.22087 196.834 2.74752C197.461 2.28445 198.171 2.04778 198.943 2.04778C199.715 2.04778 200.445 2.27416 201.083 2.73723C201.721 3.20029 202.257 3.8383 202.699 4.67181C203.141 5.50533 203.481 6.50349 203.728 7.67659C203.965 8.84969 204.088 10.1463 204.088 11.556C204.088 12.9658 203.965 14.2521 203.728 15.4046C203.491 16.5571 203.141 17.545 202.699 18.3682C202.257 19.1915 201.721 19.8295 201.083 20.2925C200.445 20.7556 199.735 20.982 198.943 20.982ZM198.943 5.51562C198.593 5.51562 198.274 5.65968 197.986 5.9581C197.698 6.25652 197.451 6.66814 197.245 7.20323C197.039 7.73833 196.875 8.37633 196.761 9.11724C196.648 9.85814 196.587 10.6711 196.587 11.556C196.587 12.441 196.648 13.1819 196.761 13.9022C196.875 14.6329 197.039 15.2606 197.245 15.7957C197.451 16.3308 197.698 16.7527 197.986 17.0511C198.274 17.3598 198.593 17.5141 198.943 17.5141C199.293 17.5141 199.632 17.3598 199.921 17.0511C200.209 16.7424 200.456 16.3308 200.662 15.7957C200.867 15.2606 201.032 14.6329 201.145 13.9022C201.258 13.1716 201.32 12.3896 201.32 11.556C201.32 10.7225 201.258 9.86843 201.145 9.11724C201.032 8.37633 200.867 7.72804 200.662 7.20323C200.456 6.66814 200.209 6.25652 199.921 5.9581C199.632 5.65968 199.303 5.51562 198.943 5.51562ZM208.534 27.7119H206.527C206.383 27.7119 206.28 27.681 206.229 27.609C206.177 27.5369 206.146 27.3929 206.146 27.1665V0.782065C206.146 0.576259 206.177 0.432194 206.229 0.349871C206.28 0.277839 206.383 0.236678 206.527 0.236678H208.534C208.678 0.236678 208.781 0.277839 208.832 0.349871C208.883 0.421904 208.914 0.565968 208.914 0.782065V27.1562C208.914 27.3826 208.883 27.5369 208.832 27.5987C208.781 27.6604 208.678 27.7016 208.534 27.7016V27.7119Z" fill="#00133F"/>
<path d="M225.42 27.9383C225.204 27.9383 225.039 27.8765 224.936 27.753C224.844 27.6398 224.803 27.4546 224.803 27.1665V0.782065C224.803 0.514517 224.844 0.339581 224.926 0.216097C225.029 0.0720323 225.194 0 225.42 0H227.427C227.715 0 227.849 0.113194 227.921 0.216097C228.003 0.329291 228.044 0.514517 228.044 0.771775V27.1459C228.044 27.4443 228.003 27.6193 227.91 27.7325C227.818 27.8559 227.653 27.9177 227.427 27.9177H225.42V27.9383ZM215.624 20.8688C215.233 20.8688 214.862 20.8585 214.533 20.8379C213.998 20.8173 213.586 20.6733 213.308 20.4057C213.02 20.1279 212.886 19.5722 212.886 18.6975V4.21904C212.886 3.81771 212.907 3.49871 212.948 3.25175C212.989 2.97391 213.082 2.75781 213.205 2.59316C213.339 2.41823 213.524 2.29474 213.751 2.233C213.957 2.18155 214.204 2.15068 214.502 2.15068H221.839C222.045 2.15068 222.209 2.20213 222.323 2.31533C222.436 2.42852 222.487 2.61374 222.487 2.89158V5.15546C222.487 5.44359 222.426 5.62881 222.302 5.73172C222.189 5.82433 222.035 5.87578 221.829 5.87578H216.179C216.179 5.87578 216.159 5.87578 216.148 5.87578C216.138 5.91694 216.128 5.97868 216.128 6.04043V9.33333C217.044 9.33333 217.98 9.33333 218.937 9.32304C219.966 9.32304 220.882 9.27159 221.664 9.19956H221.674C221.839 9.19956 221.973 9.22014 222.096 9.27159C222.23 9.32304 222.384 9.46711 222.384 9.82727V11.9471C222.384 12.0809 222.384 12.1838 222.364 12.2558C222.364 12.369 222.354 12.4513 222.333 12.5028V12.5336L222.302 12.5645C222.271 12.6057 222.24 12.6571 222.199 12.6983C222.096 12.8218 221.932 12.832 221.818 12.832C221.006 12.8835 220.038 12.935 218.968 12.9761C218.001 13.007 217.054 13.0276 216.148 13.0379V16.8144C216.148 17.0408 216.21 17.0408 216.241 17.0408C217.219 17.0408 218.32 16.9791 219.493 16.8556C220.666 16.7321 221.798 16.5366 222.858 16.2793C222.93 16.2587 222.992 16.2484 223.053 16.2484C223.239 16.2484 223.341 16.3308 223.393 16.4028C223.475 16.5057 223.527 16.6498 223.558 16.835L223.804 18.9445C223.835 19.2121 223.815 19.3973 223.743 19.5208C223.66 19.6442 223.527 19.7472 223.311 19.8192C222.734 20.0147 222.055 20.1896 221.294 20.3337C220.532 20.4778 219.74 20.591 218.937 20.6836C218.135 20.7659 217.332 20.8276 216.57 20.8585C216.241 20.8688 215.922 20.8791 215.634 20.8791L215.624 20.8688Z" fill="#00133F"/>
<path d="M223.228 19.6031C222.662 19.7986 222.004 19.9632 221.252 20.1073C220.491 20.2514 219.719 20.3646 218.917 20.4469C218.114 20.5292 217.332 20.591 216.56 20.6218C215.799 20.6527 215.13 20.6424 214.553 20.6115C214.07 20.591 213.71 20.4675 213.473 20.2411C213.236 20.0147 213.123 19.5002 213.123 18.6975V4.21904C213.123 3.83829 213.144 3.52958 213.185 3.29291C213.226 3.05623 213.298 2.871 213.401 2.73723C213.504 2.60345 213.638 2.51084 213.823 2.46968C214.008 2.41823 214.234 2.39765 214.512 2.39765H221.849C221.993 2.39765 222.107 2.42852 222.168 2.50055C222.24 2.56229 222.271 2.70636 222.271 2.91216V5.17604C222.271 5.38184 222.24 5.51562 222.168 5.57736C222.096 5.6391 221.993 5.65968 221.849 5.65968H216.2C216.066 5.65968 215.984 5.70085 215.963 5.77288C215.932 5.84491 215.922 5.94781 215.922 6.06101V9.5803C216.91 9.5803 217.929 9.5803 218.968 9.57001C220.007 9.57001 220.923 9.51856 221.716 9.43624C221.839 9.43624 221.942 9.45682 222.035 9.49798C222.127 9.53914 222.179 9.65233 222.179 9.83756V11.9574C222.179 12.0911 222.179 12.1838 222.158 12.2455C222.158 12.3381 222.158 12.4101 222.137 12.441C222.107 12.4822 222.076 12.513 222.045 12.5542C222.014 12.5954 221.942 12.6159 221.829 12.6159C220.985 12.6777 220.028 12.7189 218.968 12.76C217.898 12.8012 216.889 12.8218 215.922 12.8218V16.835C215.922 17.1437 216.025 17.2981 216.241 17.2981C217.229 17.2981 218.32 17.2363 219.513 17.1128C220.707 16.9893 221.839 16.7938 222.909 16.5263C223.053 16.4851 223.156 16.5057 223.208 16.5674C223.259 16.6395 223.3 16.7424 223.331 16.8967L223.568 18.9857C223.599 19.1915 223.588 19.3355 223.537 19.4179C223.485 19.4899 223.383 19.5619 223.228 19.6134V19.6031ZM227.427 27.7119H225.42C225.276 27.7119 225.173 27.681 225.122 27.609C225.07 27.5369 225.039 27.3929 225.039 27.1665V0.782065C225.039 0.576259 225.07 0.432194 225.122 0.349871C225.173 0.277839 225.276 0.236678 225.42 0.236678H227.427C227.571 0.236678 227.674 0.277839 227.725 0.349871C227.777 0.421904 227.807 0.565968 227.807 0.782065V27.1562C227.807 27.3826 227.777 27.5369 227.725 27.5987C227.674 27.6604 227.571 27.7016 227.427 27.7016V27.7119Z" fill="#00133F"/>
<path d="M236.215 27.5061C235.854 27.5061 235.566 27.4752 235.35 27.4135C235.093 27.3414 234.897 27.1974 234.753 26.9915C234.62 26.8063 234.527 26.5491 234.486 26.2506C234.445 25.9728 234.424 25.6229 234.424 25.1804V19.0783C234.424 18.183 234.537 17.5862 234.764 17.2569C235.011 16.907 235.463 16.7321 236.101 16.7321H245.99C246.351 16.7321 246.649 16.7732 246.875 16.8453C247.133 16.9276 247.328 17.0717 247.472 17.2775C247.606 17.473 247.699 17.72 247.74 18.039C247.781 18.3271 247.802 18.6872 247.802 19.1194V25.2216C247.802 25.6538 247.781 26.014 247.73 26.2918C247.678 26.6005 247.585 26.8372 247.441 27.0224C247.297 27.2179 247.102 27.3517 246.855 27.4237C246.639 27.4855 246.381 27.5164 246.073 27.5164H236.204L236.215 27.5061ZM237.666 20.4366C237.666 20.4366 237.645 20.4778 237.645 20.5807V23.6986C237.645 23.7913 237.666 23.8118 237.666 23.8118C237.666 23.8118 244.529 23.8118 244.54 23.8118C244.54 23.781 244.54 23.7295 244.54 23.6678V20.5498C244.54 20.4572 244.519 20.4263 244.519 20.4263C244.519 20.4263 237.666 20.4366 237.655 20.4366H237.666ZM245.198 15.7957C244.972 15.7957 244.807 15.7236 244.704 15.5796C244.622 15.4664 244.581 15.2811 244.581 15.0239V0.782065C244.581 0.0823227 245.023 0.0102903 245.219 0.0102903H247.184C247.411 0.0102903 247.575 0.0823227 247.678 0.226387C247.76 0.349871 247.802 0.524807 247.802 0.792356V15.0239C247.802 15.2914 247.76 15.4664 247.678 15.5796C247.575 15.7236 247.411 15.7957 247.184 15.7957H245.198ZM241.422 15.6207C241.216 15.6207 241.061 15.5796 240.948 15.4767C240.825 15.3738 240.763 15.1782 240.763 14.8695V10.0022H239.724C239.61 10.6917 239.436 11.3194 239.199 11.8956C238.942 12.5233 238.612 13.079 238.232 13.5421C237.84 14.0154 237.388 14.3859 236.873 14.6431C236.348 14.9107 235.782 15.0445 235.175 15.0445C234.455 15.0445 233.786 14.8592 233.189 14.4991C232.603 14.1389 232.098 13.6347 231.687 12.9967C231.286 12.369 230.967 11.6281 230.74 10.7946C230.524 9.97133 230.411 9.05549 230.411 8.0882C230.411 7.12091 230.524 6.23594 230.74 5.41272C230.956 4.5792 231.275 3.84858 231.687 3.22087C232.098 2.59316 232.603 2.08894 233.189 1.73907C233.776 1.3789 234.445 1.19368 235.175 1.19368C235.782 1.19368 236.359 1.32745 236.894 1.60529C237.419 1.87284 237.882 2.25358 238.273 2.73723C238.664 3.21058 238.993 3.77655 239.24 4.41455C239.477 4.99081 239.641 5.62881 239.755 6.31827H240.773V1.24513C240.773 0.977582 240.814 0.792356 240.917 0.668872C241.02 0.535097 241.195 0.463065 241.432 0.463065H243.305C243.531 0.463065 243.696 0.535097 243.799 0.679162C243.881 0.802646 243.922 0.977582 243.922 1.24513V14.8798C243.922 15.1885 243.881 15.3635 243.778 15.4664C243.675 15.5693 243.521 15.6207 243.305 15.6207H241.422ZM235.175 4.99081C234.692 4.99081 234.311 5.26865 234.012 5.82433C233.693 6.43146 233.539 7.18265 233.539 8.07791C233.539 8.5204 233.58 8.9423 233.663 9.35391C233.745 9.74495 233.858 10.1051 234.012 10.3932C234.157 10.6711 234.331 10.8975 234.537 11.0621C234.733 11.2165 234.939 11.2885 235.175 11.2885C235.422 11.2885 235.628 11.2165 235.813 11.0621C236.019 10.9078 236.194 10.6814 236.338 10.3932C236.492 10.0948 236.606 9.75524 236.678 9.3642C236.76 8.97317 236.791 8.54098 236.791 8.07791C236.791 7.18265 236.637 6.42117 236.328 5.82433C236.04 5.26865 235.659 4.99081 235.175 4.99081Z" fill="#00133F"/>
<path d="M235.165 14.8181C234.486 14.8181 233.858 14.6431 233.302 14.3036C232.747 13.964 232.273 13.4803 231.872 12.8732C231.481 12.2661 231.172 11.556 230.956 10.7431C230.74 9.93017 230.637 9.0452 230.637 8.09849C230.637 7.15178 230.74 6.28739 230.956 5.47446C231.172 4.66152 231.471 3.95149 231.872 3.35465C232.263 2.75781 232.747 2.28445 233.302 1.93458C233.858 1.595 234.476 1.42007 235.165 1.42007C235.741 1.42007 236.276 1.54355 236.77 1.8111C237.264 2.06836 237.696 2.42852 238.077 2.88129C238.448 3.34436 238.767 3.87946 239.014 4.49688C239.261 5.1143 239.435 5.80375 239.549 6.54465H241V1.24513C241 1.03932 241.03 0.895259 241.092 0.812936C241.154 0.740904 241.267 0.699743 241.422 0.699743H243.294C243.438 0.699743 243.541 0.740904 243.593 0.812936C243.644 0.884969 243.675 1.02903 243.675 1.24513V14.8798C243.675 15.1062 243.644 15.2503 243.593 15.312C243.541 15.3738 243.438 15.3943 243.294 15.3943H241.422C241.277 15.3943 241.164 15.3635 241.103 15.312C241.031 15.2503 241 15.1165 241 14.8798V9.78611H239.528C239.425 10.527 239.24 11.2062 238.983 11.8236C238.725 12.4307 238.417 12.9658 238.046 13.4083C237.676 13.8611 237.254 14.2007 236.76 14.4579C236.266 14.7049 235.741 14.8284 235.165 14.8284V14.8181ZM235.165 4.76442C234.589 4.76442 234.136 5.08343 233.796 5.72143C233.457 6.35943 233.292 7.15178 233.292 8.0882C233.292 8.55127 233.333 8.98346 233.426 9.40536C233.519 9.82727 233.642 10.1874 233.796 10.5064C233.961 10.8254 234.157 11.0724 234.393 11.2473C234.63 11.4326 234.887 11.5149 235.165 11.5149C235.463 11.5149 235.721 11.4223 235.947 11.2473C236.173 11.0621 236.369 10.8151 236.534 10.5064C236.698 10.1874 236.811 9.82727 236.894 9.41566C236.976 9.00404 237.017 8.56156 237.017 8.0882C237.017 7.15178 236.853 6.36972 236.523 5.72143C236.194 5.08343 235.741 4.76442 235.165 4.76442ZM246.083 27.2797H236.215C235.875 27.2797 235.607 27.2488 235.412 27.1974C235.216 27.1356 235.052 27.0327 234.939 26.8681C234.825 26.7034 234.753 26.4873 234.712 26.2198C234.671 25.9522 234.65 25.6126 234.65 25.1907V19.0886C234.65 18.2448 234.753 17.6891 234.949 17.401C235.144 17.1128 235.535 16.9688 236.091 16.9688H245.98C246.309 16.9688 246.587 16.9996 246.793 17.0717C246.999 17.1437 247.164 17.2569 247.277 17.4112C247.39 17.5759 247.472 17.792 247.503 18.0698C247.544 18.3477 247.565 18.6975 247.565 19.1194V25.2216C247.565 25.6435 247.544 25.9831 247.493 26.2506C247.441 26.5182 247.369 26.724 247.256 26.8784C247.143 27.0327 246.989 27.1356 246.793 27.1974C246.598 27.2591 246.361 27.2797 246.083 27.2797ZM244.776 20.5498C244.776 20.3234 244.694 20.2102 244.54 20.2102H237.686C237.511 20.2102 237.429 20.3337 237.429 20.5807V23.6986C237.429 23.925 237.511 24.0382 237.686 24.0382H244.519C244.622 24.0382 244.694 24.0279 244.735 23.9971C244.766 23.9662 244.786 23.8633 244.786 23.6678V20.5498H244.776ZM247.184 15.5693H245.198C245.054 15.5693 244.951 15.5281 244.9 15.4561C244.848 15.384 244.817 15.24 244.817 15.0239V0.782065C244.817 0.421904 244.951 0.236678 245.219 0.236678H247.184C247.328 0.236678 247.431 0.277839 247.483 0.349871C247.534 0.421904 247.565 0.565968 247.565 0.782065V15.0136C247.565 15.2194 247.534 15.3635 247.483 15.4458C247.431 15.5178 247.328 15.559 247.184 15.559V15.5693Z" fill="#00133F"/>
</svg>
