<svg width="243" height="28" viewBox="0 0 243 28" fill="none" xmlns="http://www.w3.org/2000/svg">
<path d="M31.0016 27.7084V17.1418H26.6317V27.7084H20.5438V0.371993H26.6317V9.87289H31.0016V0.371993H37.0593V27.7084H31.0016Z" fill="#00133F"/>
<path d="M6.08781 0.371993H0V27.7084H6.08781V0.371993Z" fill="#0095D5"/>
<path d="M12.1857 27.7084L6.50974 18.4086V9.73214L12.1555 0.371993H19.6196L11.1208 13.9447L19.7502 27.7084H12.1857Z" fill="#ED1A2E"/>
<path d="M51.5153 27.7889C51.3847 27.7889 51.2742 27.7788 51.1938 27.7587C51.0833 27.7285 50.9728 27.6381 50.8724 27.4772C49.4358 25.386 48.2805 23.1842 47.4467 20.902C46.6129 18.6197 46.191 16.2873 46.191 13.9749C46.191 11.6625 46.6129 9.3702 47.4467 7.10808C48.2805 4.85601 49.4358 2.64417 50.8724 0.532855C50.9628 0.412208 51.0432 0.331777 51.0934 0.271454C51.1738 0.201077 51.2943 0.170916 51.4651 0.170916H53.2934C53.5144 0.170916 53.7756 0.191023 53.8359 0.382047C53.8761 0.502693 53.8359 0.683662 53.6852 0.965171C52.5601 3.20718 51.656 5.44919 50.9829 7.65099C50.3199 9.84273 49.9883 11.9641 49.9883 13.9749C49.9883 15.9856 50.3098 18.1472 50.9527 20.3892C51.5957 22.6312 52.5199 24.8833 53.7154 27.065C53.8359 27.2862 53.8761 27.4571 53.8259 27.5777C53.7455 27.7587 53.4843 27.7788 53.2934 27.7788H51.5153V27.7889Z" fill="#00133F"/>
<path d="M64.8362 26.9142C64.4243 26.9142 64.1932 26.6729 64.1932 26.2305V17.5943H55.0414C54.7702 17.5943 54.5894 17.5138 54.509 17.363C54.4387 17.2323 54.4085 17.0614 54.4085 16.8302V14.8998C54.4085 14.6686 54.4487 14.4977 54.519 14.377C54.5994 14.2363 54.7802 14.1659 55.0515 14.1659H77.1926C77.6246 14.1659 77.8556 14.4273 77.8556 14.9099V16.8402C77.8556 17.5138 77.4337 17.6043 77.1926 17.6043H68.0408V26.2406C68.0408 26.6829 67.8097 26.9242 67.3979 26.9242H64.8462L64.8362 26.9142ZM57.4022 12.5171C57.3017 12.5171 57.2314 12.507 57.1712 12.4768C57.0506 12.4165 56.9401 12.2758 56.8396 12.0345L56.1967 10.1846C56.1163 9.93321 56.1163 9.73214 56.1967 9.56122C56.2771 9.41041 56.4278 9.29982 56.6387 9.2395C57.7438 8.92783 58.8388 8.56589 59.8735 8.17379C60.9082 7.78169 61.9028 7.37953 62.8069 6.95727C63.7211 6.53501 64.5448 6.1228 65.2782 5.7307C66.0115 5.32855 66.6344 4.95655 67.1166 4.60467C67.428 4.38348 67.418 4.293 67.418 4.28294C67.418 4.25278 67.3476 4.21257 67.1367 4.21257H58.7383C58.5073 4.21257 58.3566 4.17235 58.2662 4.08187C58.1657 3.99138 58.1255 3.82047 58.1255 3.55907V1.41759C58.1255 1.16625 58.1757 1.01544 58.2662 0.924955C58.3566 0.83447 58.5173 0.794255 58.7383 0.794255H70.8737C71.7176 0.794255 72.3706 0.955117 72.7925 1.26679C73.2245 1.58851 73.4455 2.02083 73.4455 2.54363C73.4455 2.89551 73.3651 3.25745 73.2044 3.62944C73.0437 3.99138 72.8327 4.35332 72.5715 4.70521C72.3103 5.04704 71.9989 5.39892 71.6473 5.74075C71.2957 6.07253 70.924 6.40431 70.5422 6.69587C70.4619 6.76625 70.3614 6.84668 70.271 6.907C70.2409 6.92711 70.2007 6.95727 70.1705 6.97738L71.366 7.4298C71.8482 7.61077 72.3605 7.79174 72.8829 7.96266L74.3898 8.4553C74.872 8.61616 75.3341 8.74686 75.7661 8.85745C76.0574 8.94794 76.2182 9.04847 76.2784 9.17917C76.3387 9.30987 76.3186 9.5009 76.2182 9.80251L75.5451 11.6223C75.4446 11.9339 75.3241 12.0948 75.1633 12.135C75.1031 12.1551 75.0428 12.1551 74.9624 12.1551C74.872 12.1551 74.7715 12.1451 74.651 12.125C73.4455 11.8233 72.1194 11.4111 70.703 10.8883C69.3166 10.3756 67.9403 9.80251 66.6143 9.17917C65.2882 9.87289 63.8617 10.5264 62.3649 11.1196C60.8479 11.7127 59.3109 12.1752 57.794 12.4969C57.6433 12.5271 57.5228 12.5472 57.4223 12.5472L57.4022 12.5171Z" fill="#00133F"/>
<path d="M79.1616 27.7889C78.9707 27.7889 78.7095 27.7688 78.6292 27.5878C78.5789 27.4671 78.6091 27.2962 78.7397 27.075C79.9351 24.8934 80.8594 22.6413 81.5023 20.3993C82.1452 18.1573 82.4667 15.9957 82.4667 13.9849C82.4667 11.9741 82.1352 9.84273 81.4722 7.66104C80.8091 5.4693 79.895 3.21724 78.7698 0.975224C78.6292 0.693716 78.5789 0.512747 78.6191 0.392101C78.6794 0.201077 78.9406 0.180969 79.1616 0.180969H80.99C81.1607 0.180969 81.2813 0.211131 81.3616 0.281508C81.4219 0.331777 81.4922 0.422262 81.5827 0.532855C83.0293 2.64417 84.1845 4.85601 85.0183 7.11813C85.8522 9.38025 86.2741 11.6926 86.2741 13.9849C86.2741 16.2772 85.8522 18.6298 85.0183 20.912C84.1845 23.1842 83.0293 25.3961 81.5927 27.4873C81.4922 27.6481 81.3817 27.7386 81.2712 27.7587C81.1808 27.7788 81.0703 27.7889 80.9498 27.7889H79.1616Z" fill="#00133F"/>
<path d="M105.713 27.9095C105.482 27.9095 105.321 27.8391 105.221 27.6984C105.14 27.5777 105.1 27.4068 105.1 27.1354V0.774147C105.1 0.502693 105.15 0.321724 105.241 0.201077C105.351 0.070377 105.512 0 105.733 0H107.742C107.963 0 108.134 0.070377 108.234 0.211131C108.325 0.331777 108.355 0.512747 108.355 0.774147V27.1454C108.355 27.4068 108.315 27.5878 108.234 27.7084C108.134 27.8492 107.973 27.9196 107.742 27.9196H105.713V27.9095ZM101.715 26.9343C101.504 26.9343 101.353 26.884 101.242 26.7935C101.122 26.6829 101.082 26.502 101.082 26.1702V13.3415H98.3091C97.6963 14.9501 96.9227 16.4682 95.9985 17.8657C95.0442 19.3034 93.9391 20.5803 92.6934 21.656C92.4824 21.8068 92.3318 21.8671 92.1911 21.8671H92.1409C91.9299 21.837 91.7893 21.6359 91.6989 21.475L90.7345 19.6754C90.6139 19.4341 90.5436 19.2431 90.5235 19.0722C90.5034 18.8711 90.5938 18.67 90.7947 18.4589C91.729 17.6144 92.5628 16.6492 93.2761 15.5734C93.919 14.6183 94.4715 13.6029 94.9437 12.5673C94.4615 12.6176 93.9692 12.6679 93.487 12.698C92.8843 12.7382 92.2815 12.7583 91.719 12.7583C91.5582 12.7583 91.4176 12.7181 91.3071 12.6276C91.1664 12.5171 91.1062 12.326 91.1062 11.9943V9.88294C91.1062 9.59138 91.1463 9.42047 91.2167 9.30987C91.3071 9.18923 91.4477 9.11885 91.6185 9.11885C92.5126 9.09874 93.3464 9.07864 94.1099 9.05853C94.803 9.03842 95.5063 8.99821 96.2195 8.92783C96.3099 8.51562 96.4003 8.10341 96.4707 7.70126C96.551 7.25889 96.6013 6.81652 96.6314 6.3842C96.6615 6.06248 96.5912 5.95188 96.5711 5.92172C96.5711 5.91167 96.531 5.88151 96.4506 5.88151H92.2213C92.0203 5.88151 91.5683 5.80108 91.5683 5.10736V2.99605C91.5683 2.27217 92.0304 2.2018 92.2213 2.2018H98.1282C98.8515 2.2018 99.3438 2.40287 99.5949 2.80503C99.826 3.17702 99.9365 3.80036 99.9365 4.70521C99.9365 6.35404 99.7557 8.01293 99.394 9.65171H101.082V1.25673C101.082 0.532855 101.524 0.462478 101.715 0.462478H103.603C103.784 0.462478 104.216 0.542908 104.216 1.25673V26.1702C104.216 26.4618 104.176 26.6427 104.085 26.7533C103.985 26.874 103.824 26.9343 103.603 26.9343H101.715Z" fill="#00133F"/>
<path d="M124.107 27.8492C123.886 27.8492 123.725 27.7889 123.625 27.6682C123.534 27.5576 123.494 27.3767 123.494 27.0851V0.774147C123.494 0.512747 123.534 0.331777 123.615 0.211131C123.715 0.070377 123.886 0 124.107 0H126.156C126.387 0 126.548 0.070377 126.649 0.211131C126.729 0.331777 126.769 0.502693 126.769 0.774147V27.0851C126.769 27.3767 126.729 27.5576 126.638 27.6682C126.538 27.7889 126.377 27.8492 126.156 27.8492H124.107ZM116.372 21.1332C115.538 21.1332 114.764 20.8919 114.081 20.4093C113.408 19.9368 112.835 19.2632 112.373 18.4086C111.911 17.5641 111.55 16.5487 111.308 15.3925C111.057 14.2363 110.937 12.9594 110.937 11.572C110.937 10.1846 111.067 8.83734 111.308 7.65099C111.56 6.46463 111.921 5.42908 112.373 4.57451C112.835 3.70987 113.418 3.02621 114.081 2.54363C114.764 2.05099 115.528 1.79964 116.372 1.79964C117.215 1.79964 117.999 2.04093 118.692 2.52352C119.365 2.99605 119.948 3.66966 120.41 4.52424C120.872 5.36876 121.224 6.39426 121.475 7.58061C121.726 8.76697 121.847 10.084 121.847 11.5016C121.847 12.9192 121.716 14.2262 121.475 15.3925C121.224 16.5587 120.862 17.5741 120.41 18.4086C119.948 19.2531 119.365 19.9268 118.692 20.3993C118.009 20.8819 117.225 21.1232 116.372 21.1232V21.1332ZM116.372 5.71059C116.08 5.71059 115.809 5.83124 115.558 6.08259C115.287 6.35404 115.046 6.74614 114.845 7.24883C114.644 7.76158 114.483 8.39497 114.362 9.11885C114.252 9.84273 114.192 10.647 114.192 11.5117C114.192 12.3763 114.252 13.1102 114.362 13.814C114.473 14.5178 114.634 15.1411 114.845 15.6539C115.046 16.1566 115.287 16.5587 115.558 16.8402C115.809 17.1016 116.07 17.2323 116.372 17.2323C116.673 17.2323 116.954 17.1016 117.205 16.8402C117.477 16.5587 117.718 16.1566 117.919 15.6539C118.12 15.1411 118.28 14.5178 118.401 13.814C118.511 13.1102 118.572 12.326 118.572 11.5117C118.572 10.6973 118.511 9.85278 118.401 9.11885C118.29 8.39497 118.13 7.77163 117.919 7.24883C117.718 6.74614 117.477 6.35404 117.205 6.08259C116.954 5.83124 116.683 5.71059 116.372 5.71059Z" fill="#00133F"/>
<path d="M144.299 27.8794C144.068 27.8794 143.907 27.809 143.807 27.6682C143.727 27.5476 143.686 27.3666 143.686 27.1052V0.774147C143.686 0.502693 143.727 0.321724 143.827 0.201077C143.937 0.070377 144.098 0 144.319 0H146.328C146.559 0 146.72 0.070377 146.821 0.211131C146.901 0.331777 146.941 0.512747 146.941 0.774147V27.1153C146.941 27.3767 146.901 27.5576 146.821 27.6783C146.72 27.819 146.559 27.8894 146.328 27.8894H144.299V27.8794ZM140.261 26.9343C140.04 26.9343 139.889 26.884 139.789 26.7835C139.688 26.6729 139.648 26.502 139.648 26.1702V13.1706H138.603C138.503 14.1558 138.332 15.0808 138.091 15.9454C137.83 16.8704 137.508 17.6847 137.116 18.3684C136.725 19.0621 136.252 19.6151 135.74 20.0172C135.198 20.4395 134.605 20.6506 133.972 20.6506C133.249 20.6506 132.586 20.3993 132.013 19.8966C131.45 19.414 130.968 18.7404 130.576 17.8959C130.195 17.0614 129.903 16.0661 129.702 14.93C129.502 13.7939 129.401 12.5673 129.401 11.2603C129.401 9.80251 129.512 8.48546 129.723 7.34937C129.934 6.20323 130.245 5.21795 130.647 4.4237C131.049 3.61939 131.531 2.986 132.083 2.54363C132.646 2.0912 133.289 1.87002 133.982 1.87002C134.615 1.87002 135.208 2.06104 135.76 2.42298C136.303 2.78492 136.785 3.30772 137.197 3.99138C137.599 4.66499 137.94 5.48941 138.191 6.44452C138.432 7.33932 138.603 8.36481 138.683 9.49084H139.658V1.25673C139.658 0.995332 139.698 0.814363 139.778 0.693716C139.879 0.552962 140.04 0.482585 140.271 0.482585H142.179C142.36 0.482585 142.792 0.552962 142.792 1.25673V26.1702C142.792 26.4618 142.752 26.6427 142.662 26.7533C142.561 26.874 142.4 26.9343 142.179 26.9343H140.261ZM133.982 5.68043C133.741 5.68043 133.53 5.82118 133.359 6.11275C133.158 6.45458 132.987 6.89695 132.867 7.44991C132.736 8.00287 132.646 8.63627 132.586 9.30987C132.525 9.98348 132.495 10.647 132.495 11.2905C132.495 11.9339 132.525 12.5673 132.586 13.2409C132.646 13.9145 132.746 14.5379 132.877 15.0908C133.008 15.6338 133.178 16.0962 133.389 16.4381C133.57 16.7397 133.761 16.8804 133.992 16.8804C134.203 16.8804 134.394 16.7497 134.575 16.4783C134.786 16.1666 134.977 15.7443 135.127 15.2215C135.288 14.6887 135.409 14.0754 135.489 13.3917C135.569 12.698 135.609 11.9842 135.609 11.2804C135.609 10.5364 135.569 9.80251 135.489 9.11885C135.409 8.44524 135.288 7.83196 135.137 7.2991C134.987 6.78636 134.806 6.37415 134.585 6.07253C134.394 5.81113 134.203 5.68043 133.992 5.68043H133.982Z" fill="#00133F"/>
<path d="M162.683 27.8492C162.462 27.8492 162.301 27.7889 162.201 27.6682C162.111 27.5576 162.07 27.3767 162.07 27.0851V0.774147C162.07 0.512747 162.111 0.331777 162.191 0.211131C162.291 0.070377 162.452 0 162.683 0H164.732C164.964 0 165.124 0.070377 165.225 0.211131C165.315 0.331777 165.345 0.512747 165.345 0.774147V27.0851C165.345 27.3767 165.305 27.5576 165.215 27.6682C165.114 27.7889 164.953 27.8492 164.732 27.8492H162.683ZM154.948 21.1332C154.114 21.1332 153.34 20.8919 152.667 20.4093C151.994 19.9368 151.422 19.2632 150.96 18.4086C150.497 17.5641 150.146 16.5487 149.895 15.3925C149.644 14.2363 149.523 12.9494 149.523 11.572C149.523 10.1946 149.654 8.83734 149.895 7.65099C150.146 6.46463 150.508 5.42908 150.96 4.57451C151.422 3.70987 152.004 3.02621 152.667 2.54363C153.35 2.05099 154.114 1.79964 154.958 1.79964C155.802 1.79964 156.585 2.04093 157.278 2.52352C157.952 2.99605 158.534 3.66966 158.996 4.52424C159.458 5.36876 159.82 6.39426 160.061 7.58061C160.312 8.76697 160.433 10.084 160.433 11.5016C160.433 12.9192 160.312 14.2262 160.061 15.3925C159.81 16.5587 159.448 17.5741 158.996 18.4086C158.534 19.2531 157.952 19.9268 157.278 20.3993C156.595 20.8819 155.812 21.1232 154.958 21.1232L154.948 21.1332ZM154.948 5.71059C154.656 5.71059 154.385 5.83124 154.134 6.08259C153.863 6.35404 153.622 6.74614 153.421 7.24883C153.22 7.76158 153.059 8.39497 152.939 9.11885C152.828 9.84273 152.768 10.647 152.768 11.5117C152.768 12.3763 152.828 13.1102 152.939 13.814C153.049 14.5178 153.21 15.1411 153.421 15.6539C153.622 16.1566 153.863 16.5587 154.134 16.8402C154.385 17.1016 154.656 17.2323 154.948 17.2323C155.259 17.2323 155.53 17.1016 155.782 16.8402C156.053 16.5587 156.294 16.1566 156.495 15.6539C156.696 15.1411 156.856 14.5178 156.977 13.814C157.088 13.1102 157.148 12.326 157.148 11.5117C157.148 10.6973 157.088 9.84273 156.977 9.11885C156.867 8.39497 156.706 7.77163 156.495 7.24883C156.294 6.74614 156.053 6.35404 155.782 6.08259C155.53 5.83124 155.259 5.71059 154.948 5.71059Z" fill="#00133F"/>
<path d="M181.971 27.8492C181.75 27.8492 181.589 27.7889 181.489 27.6682C181.399 27.5576 181.358 27.3767 181.358 27.0851V0.774147C181.358 0.512747 181.399 0.331777 181.479 0.211131C181.579 0.070377 181.74 0 181.971 0H184.021C184.252 0 184.412 0.070377 184.513 0.211131C184.593 0.331777 184.633 0.512747 184.633 0.774147V27.0851C184.633 27.3767 184.593 27.5576 184.503 27.6682C184.402 27.7889 184.242 27.8492 184.021 27.8492H181.971ZM169.233 22.1487C169.022 22.1185 168.902 21.9074 168.821 21.7163L167.977 19.8664C167.847 19.6151 167.807 19.3838 167.867 19.1928C167.917 19.0219 168.017 18.8711 168.158 18.7504C169.836 17.4334 171.252 15.9856 172.367 14.4474C173.482 12.9092 174.306 11.3709 174.798 9.88294C174.829 9.79246 174.839 9.70197 174.849 9.61149C174.839 9.61149 174.829 9.61149 174.809 9.61149H169.685C169.283 9.61149 169.163 9.40036 169.133 9.27971C169.092 9.13896 169.072 8.96804 169.072 8.75691V6.69587C169.072 5.97199 169.514 5.90162 169.705 5.90162H176.667C177.26 5.90162 177.732 6.07253 178.083 6.40431C178.435 6.74614 178.616 7.25889 178.616 7.92244C178.616 8.10341 178.606 8.31454 178.586 8.56589C178.566 8.82729 178.525 9.07864 178.465 9.30987C178.094 10.8381 177.521 12.3562 176.777 13.814C177.32 14.6183 177.913 15.3623 178.536 16.046C179.189 16.7598 179.771 17.3429 180.273 17.7652C180.585 18.0266 180.605 18.288 180.565 18.4589C180.525 18.6399 180.454 18.8409 180.354 19.042L179.47 20.8115C179.329 21.1232 179.128 21.1935 178.988 21.1935C178.937 21.1935 178.887 21.1935 178.837 21.1734C178.666 21.1131 178.475 21.0025 178.274 20.8316C178.063 20.6607 177.812 20.4093 177.521 20.0977C177.23 19.786 176.918 19.4442 176.597 19.0722C176.275 18.6901 175.944 18.288 175.622 17.8758C175.371 17.544 175.13 17.2223 174.909 16.9005C174.216 17.8355 173.452 18.7303 172.629 19.5548C171.734 20.4596 170.76 21.274 169.725 21.9777C169.544 22.0984 169.404 22.1487 169.283 22.1487H169.233ZM171.222 4.73537C171.061 4.73537 170.901 4.67505 170.78 4.56445C170.639 4.44381 170.569 4.22262 170.569 3.91095V1.94039C170.569 1.61867 170.639 1.40754 170.78 1.28689C170.911 1.1763 171.061 1.11598 171.222 1.11598H176.597C176.798 1.11598 177.27 1.19641 177.27 1.97056V3.88079C177.27 4.65494 176.798 4.73537 176.597 4.73537H171.222Z" fill="#00133F"/>
<path d="M191.354 27.5375C191.023 27.5375 190.761 27.4973 190.55 27.4269C190.319 27.3465 190.139 27.2158 190.018 27.0348C189.897 26.8639 189.807 26.6327 189.767 26.3612C189.737 26.1099 189.717 25.8083 189.717 25.4564V21.3443C189.717 20.9724 189.737 20.6607 189.767 20.4294C189.807 20.168 189.887 19.9469 190.018 19.7759C190.149 19.595 190.329 19.4643 190.55 19.3939C190.751 19.3336 191.013 19.2934 191.344 19.2934H199.672C199.672 19.2934 199.672 19.2431 199.672 19.2029V18.1774C199.672 18.1171 199.672 18.0869 199.662 18.0567H190.319C190.038 18.0567 189.887 17.9361 189.817 17.8355C189.727 17.7048 189.686 17.5138 189.686 17.2323V15.2919C189.686 14.5982 190.128 14.5278 190.319 14.5278H201.239C201.942 14.5278 202.395 14.6987 202.616 15.0506C202.816 15.3623 202.917 15.865 202.917 16.5889V20.6506C202.917 21.0427 202.897 21.3645 202.867 21.6158C202.826 21.8973 202.746 22.1084 202.636 22.2693C202.505 22.4503 202.314 22.5709 202.073 22.6312C201.862 22.6815 201.601 22.7117 201.279 22.7117H192.992C192.992 22.7117 192.992 22.7418 192.992 22.772V23.9382C192.992 24.0187 193.002 24.0388 193.002 24.0388L202.796 24.0187C202.997 24.0187 203.158 24.0589 203.269 24.1594C203.399 24.27 203.449 24.461 203.449 24.7928V26.7634C203.449 27.4873 203.007 27.5576 202.816 27.5576H191.364L191.354 27.5375ZM187.517 12.8488C187.225 12.8488 187.034 12.7583 186.954 12.5673C186.904 12.4467 186.874 12.2657 186.874 12.0244V9.99354C186.874 9.73214 186.914 9.55117 186.994 9.43052C187.095 9.27971 187.265 9.19928 187.517 9.19928H199.612C199.652 8.83734 199.702 8.44524 199.742 8.03303C199.793 7.54039 199.833 7.06786 199.863 6.62549C199.893 6.18312 199.923 5.77092 199.943 5.39892C199.963 5.03698 199.973 4.76553 199.973 4.59461C199.973 4.26284 199.933 4.12208 199.913 4.07181C199.913 4.07181 199.873 4.02154 199.652 4.02154H190.38C190.199 4.02154 190.058 3.98133 189.938 3.91095C189.747 3.79031 189.717 3.5088 189.717 3.27756V1.11598C189.717 0.935009 189.737 0.673609 189.918 0.532855C190.038 0.44237 190.189 0.402154 190.37 0.402154H201.551C202.113 0.402154 202.535 0.583124 202.816 0.935009C203.088 1.27684 203.218 1.81975 203.218 2.60395C203.218 3.60934 203.188 4.6851 203.128 5.80108C203.068 6.83662 202.957 7.98276 202.786 9.20934H205.127C205.308 9.20934 205.479 9.27971 205.599 9.41041C205.73 9.54111 205.79 9.73214 205.79 10.0136V12.0445C205.79 12.7885 205.328 12.8689 205.137 12.8689H187.527L187.517 12.8488Z" fill="#00133F"/>
<path d="M206.805 23.2747C206.443 23.2747 206.302 23.0837 206.252 22.963C206.192 22.8223 206.162 22.6513 206.162 22.4503V20.4496C206.162 20.1982 206.192 20.0172 206.262 19.8865C206.322 19.7659 206.463 19.6151 206.805 19.6151H213.967V16.4682H210.481C209.798 16.4682 209.336 16.2772 209.095 15.9052C208.874 15.5634 208.764 15.0205 208.764 14.2363V9.11885C208.764 8.74686 208.784 8.43519 208.824 8.18384C208.874 7.91239 208.954 7.6912 209.075 7.52029C209.206 7.33932 209.386 7.20862 209.607 7.12819C209.818 7.04776 210.09 7.01759 210.411 7.01759H219.131C219.131 7.01759 219.171 6.98743 219.171 6.87684V5.13752C219.171 5.04704 219.151 5.01688 219.151 5.01688H209.487C209.266 5.01688 209.095 4.95655 208.995 4.8158C208.894 4.69515 208.854 4.50413 208.854 4.21257V2.13142C208.854 1.4377 209.296 1.36732 209.487 1.36732H220.668C220.989 1.36732 221.261 1.39749 221.482 1.45781C221.733 1.52819 221.924 1.65889 222.054 1.83986C222.175 2.01077 222.265 2.24201 222.305 2.52352C222.346 2.78492 222.366 3.1167 222.366 3.49874V8.38492C222.366 8.79713 222.346 9.12891 222.305 9.39031C222.255 9.67181 222.175 9.90305 222.054 10.074C221.924 10.2549 221.723 10.3856 221.482 10.456C221.261 10.5163 220.989 10.5465 220.668 10.5465H211.988C211.988 10.5465 211.968 10.5767 211.968 10.637V12.698C211.968 12.7885 211.988 12.8187 211.988 12.8187H222.185C222.386 12.8187 222.537 12.8488 222.637 12.9293C222.778 13.0298 222.838 13.2208 222.838 13.5828V15.6639C222.838 16.3878 222.396 16.4582 222.205 16.4582H217.262V19.605H224.425C224.626 19.605 225.078 19.6855 225.078 20.4294V22.4302C225.078 23.1741 224.616 23.2546 224.425 23.2546H206.795L206.805 23.2747Z" fill="#00133F"/>
<path d="M231.347 27.9899C231.015 27.9899 230.754 27.9497 230.543 27.8794C230.312 27.7989 230.131 27.6682 230.001 27.4873C229.88 27.3163 229.79 27.0851 229.76 26.8136C229.729 26.5623 229.709 26.2607 229.709 25.9088V22.0783C229.709 21.7063 229.729 21.3946 229.76 21.1634C229.8 20.902 229.88 20.6808 230.011 20.5099C230.141 20.3289 230.322 20.1982 230.543 20.1278C230.744 20.0675 231.005 20.0273 231.327 20.0273H239.243C239.243 20.0273 239.243 19.9871 239.243 19.9368V19.1627C239.243 19.0621 239.223 19.032 239.223 19.032L230.292 19.0521C230.071 19.0521 229.9 18.9817 229.8 18.851C229.699 18.7303 229.659 18.5393 229.659 18.2478V16.2772C229.659 15.5835 230.101 15.5031 230.292 15.5031H240.78C241.121 15.5031 241.393 15.5433 241.614 15.6136C241.845 15.6941 242.036 15.8248 242.176 16.0057C242.307 16.1767 242.397 16.3978 242.437 16.6693C242.478 16.9106 242.488 17.2122 242.488 17.5641V21.3645C242.488 21.7566 242.468 22.0783 242.437 22.3296C242.397 22.6011 242.317 22.8323 242.186 22.9932C242.056 23.1641 241.865 23.2847 241.634 23.3451C241.433 23.3953 241.162 23.4255 240.83 23.4255H232.974C232.974 23.4255 232.974 23.4557 232.974 23.4858V24.3706C232.974 24.4409 232.984 24.4711 232.984 24.4711H242.367C242.578 24.4711 242.729 24.5113 242.839 24.6118C242.96 24.7224 243 24.9034 243 25.2352V27.2057C243 27.9296 242.568 28 242.387 28H231.347V27.9899ZM239.866 14.568C239.685 14.568 239.253 14.4977 239.253 13.8241V9.13896H236.731V11.4513C236.731 12.2355 236.611 12.7684 236.37 13.1002C236.109 13.4521 235.636 13.623 234.923 13.623H228.725C228.373 13.623 228.082 13.5928 227.861 13.5325C227.6 13.4621 227.399 13.3314 227.248 13.1605C227.107 12.9896 227.007 12.7483 226.967 12.4366C226.927 12.1551 226.906 11.8032 226.906 11.3709V1.25673C226.906 0.563016 227.318 0.482585 227.499 0.482585H229.579C229.77 0.482585 230.212 0.552962 230.212 1.25673V3.91095H233.416V1.22657C233.416 0.502693 233.858 0.432316 234.049 0.432316H236.098C236.289 0.432316 236.731 0.512747 236.731 1.22657V5.42908H239.253V0.774147C239.253 0.563016 239.273 0.271454 239.474 0.1307C239.594 0.0502693 239.745 0 239.916 0H241.945C242.317 0 242.437 0.191023 242.478 0.31167C242.518 0.44237 242.538 0.593178 242.538 0.774147V13.8039C242.538 14.4977 242.106 14.5781 241.925 14.5781H239.876L239.866 14.568ZM230.202 9.82262C230.202 10.0237 230.252 10.0237 230.282 10.0237H233.336C233.336 10.0237 233.396 9.98348 233.396 9.82262V7.48007H230.191V9.82262H230.202Z" fill="#00133F"/>
</svg>
