<svg width="245" height="28" viewBox="0 0 245 28" fill="none" xmlns="http://www.w3.org/2000/svg">
<path d="M7.94075 0H0V27.6041H7.94075V0Z" fill="#0095D5"/>
<path d="M37.3873 0H29.4465V27.6041H37.3873V0Z" fill="#00133F"/>
<path d="M14.1113 13.7259L28.5564 0H18.8454L8.65896 10.0609V17.665L18.896 27.6041H28.7991L14.1113 13.7259Z" fill="#ED1A2E"/>
<path d="M52.0853 28C51.9538 28 51.8425 27.9898 51.7616 27.9695C51.6503 27.9391 51.539 27.8477 51.4379 27.6853C49.9812 25.5838 48.828 23.3503 47.9884 21.0457C47.1488 18.7411 46.724 16.3959 46.724 14.0508C46.724 11.7056 47.1488 9.40102 47.9884 7.11675C48.828 4.84264 49.9913 2.60914 51.4379 0.477157C51.5289 0.35533 51.6098 0.263959 51.6604 0.213198C51.7413 0.142132 51.8627 0.111675 52.0347 0.111675H53.8757C54.0983 0.111675 54.3613 0.13198 54.422 0.324873C54.4624 0.4467 54.422 0.629442 54.2702 0.913706C53.1373 3.17766 52.2269 5.44162 51.5592 7.65482C50.8916 9.85787 50.5477 12.0102 50.5477 14.0406C50.5477 16.0711 50.8714 18.2538 51.5188 20.5178C52.1662 22.7817 53.0968 25.0558 54.3006 27.2589C54.422 27.4822 54.4624 27.6548 54.4118 27.7766C54.3309 27.9594 54.0679 27.9797 53.8757 27.9797H52.0853V28Z" fill="#00133F"/>
<path d="M65.4986 27.1269C65.0838 27.1269 64.8512 26.8832 64.8512 26.4365V17.7259H55.6358C55.3627 17.7259 55.1806 17.6447 55.0997 17.4924C55.0289 17.3604 54.9986 17.1878 54.9986 16.9543V15.0051C54.9986 14.7716 55.0289 14.599 55.1098 14.4772C55.1908 14.335 55.3728 14.264 55.646 14.264H77.9306C78.3656 14.264 78.5983 14.5279 78.5983 15.0152V16.9645C78.5983 17.6447 78.1734 17.736 77.9306 17.736H68.7153V26.4467C68.7153 26.8934 68.4827 27.1371 68.0679 27.1371H65.4986V27.1269ZM58.013 12.599C57.9118 12.599 57.841 12.5888 57.7803 12.5584C57.659 12.4975 57.5477 12.3553 57.4465 12.1117L56.7991 10.2437C56.7182 9.98985 56.7182 9.7868 56.7991 9.61421C56.8801 9.46193 57.0318 9.35025 57.2442 9.28934C58.3569 8.97462 59.4595 8.60914 60.5014 8.22335C61.5434 7.82741 62.5347 7.42132 63.4451 6.99492C64.3656 6.56853 65.1951 6.15228 65.9234 5.75635C66.6618 5.35025 67.289 4.97462 67.7746 4.61929C68.0882 4.39594 68.078 4.30457 68.078 4.29442C68.078 4.26396 68.0072 4.22335 67.7948 4.22335H59.3382C59.1156 4.22335 58.9538 4.18274 58.8627 4.09137C58.7616 4 58.7211 3.82741 58.7211 3.56345V1.38071C58.7211 1.1269 58.7616 0.974619 58.8627 0.883249C58.9538 0.791878 59.1156 0.751269 59.3382 0.751269H71.5578C72.4075 0.751269 73.065 0.913706 73.4899 1.22843C73.9249 1.5533 74.1474 1.98985 74.1474 2.51777C74.1474 2.8731 74.0665 3.23858 73.9046 3.61421C73.7428 3.9797 73.5303 4.34518 73.2673 4.70051C73.0043 5.04569 72.6908 5.40101 72.3367 5.74619C71.9827 6.08122 71.6084 6.40609 71.224 6.71066C71.1431 6.78173 71.0419 6.86294 70.9509 6.92386C70.9205 6.94416 70.8801 6.97462 70.8497 6.99492L72.0535 7.45178C72.539 7.63452 73.0549 7.81726 73.5809 7.98985L75.0983 8.48731C75.5838 8.64975 76.0491 8.78173 76.4841 8.8934C76.7775 8.98477 76.9393 9.08629 76.9899 9.21827C77.0506 9.35025 77.0303 9.54315 76.9292 9.84772L76.2514 11.6853C76.1503 12 76.0289 12.1624 75.8671 12.203C75.8064 12.2132 75.7457 12.2233 75.6647 12.2233C75.5737 12.2233 75.4725 12.2132 75.3512 12.1929C74.1373 11.8883 72.802 11.4721 71.3757 10.9442C69.9798 10.4264 68.5939 9.84772 67.2587 9.21827C65.9335 9.91878 64.487 10.5787 62.9798 11.1675C61.4523 11.7665 59.9046 12.2335 58.3772 12.5584C58.2254 12.5888 58.104 12.6091 58.0029 12.6091L58.013 12.599Z" fill="#00133F"/>
<path d="M79.9234 28C79.7312 28 79.4682 27.9797 79.3873 27.797C79.3367 27.6751 79.3671 27.5025 79.4986 27.2792C80.7023 25.0761 81.6329 22.8122 82.2803 20.5381C82.9277 18.2741 83.2514 16.0914 83.2514 14.0609C83.2514 12.0305 82.9176 9.87817 82.25 7.67513C81.5824 5.46193 80.6618 3.18782 79.539 0.93401C79.3974 0.649746 79.3468 0.467005 79.3873 0.345178C79.448 0.152284 79.711 0.13198 79.9335 0.13198H81.7746C81.9465 0.13198 82.0679 0.162437 82.1488 0.233503C82.2095 0.284264 82.2803 0.375634 82.3714 0.48731C83.828 2.61929 84.9913 4.85279 85.8309 7.1269C86.6705 9.41117 87.0954 11.7462 87.0954 14.0609C87.0954 16.3756 86.6705 18.7513 85.8309 21.0558C84.9913 23.3503 83.828 25.5838 82.3815 27.6954C82.2803 27.8579 82.1691 27.9492 82.0578 27.9695C81.9668 27.9898 81.8555 28 81.7341 28H79.9234Z" fill="#00133F"/>
<path d="M97.8988 27.4213C97.5043 27.4213 97.1604 27.3909 96.9075 27.3198C96.6344 27.2487 96.4118 27.1269 96.2601 26.9543C96.1084 26.7817 95.9971 26.5482 95.9364 26.264C95.8757 25.9898 95.8454 25.6447 95.8454 25.2284V20.3452C95.8454 19.8883 96.0882 19.6447 96.5332 19.6447H99.2746C99.7298 19.6447 99.9827 19.8985 99.9827 20.3452V23.6447C99.9827 23.868 100.064 23.9492 100.276 23.9492H113.113C113.285 23.9492 113.436 23.9898 113.578 24.0609C113.74 24.1523 113.821 24.3249 113.821 24.5888V26.7716C113.821 27.0964 113.73 27.2995 113.548 27.3503C113.416 27.3909 113.264 27.4112 113.103 27.4112H97.8887L97.8988 27.4213ZM109.289 21.2487C109.046 21.2487 108.884 21.198 108.773 21.0964C108.662 20.9949 108.611 20.8223 108.611 20.5685V0.670051C108.611 0.233503 108.854 0 109.299 0H112.121C112.526 0 112.749 0.243655 112.749 0.670051V9.50254H116.006C116.168 9.50254 116.309 9.52284 116.441 9.56345C116.694 9.65482 116.694 10.0203 116.694 10.1421V12.3858C116.694 12.6396 116.623 12.8122 116.481 12.9137C116.36 12.9949 116.198 13.0355 116.006 13.0355H112.749V20.5787C112.749 20.8223 112.708 20.9949 112.617 21.0964C112.526 21.2081 112.364 21.2589 112.111 21.2589H109.289V21.2487ZM99.6893 18.4873C98.8396 18.4873 98.0303 18.3553 97.2818 18.1117C96.5231 17.8579 95.8555 17.5025 95.289 17.0558C94.7225 16.6091 94.2572 16.0609 93.9335 15.4315C93.5997 14.802 93.4277 14.1117 93.4277 13.3604C93.4277 12.6091 93.5997 11.9492 93.9335 11.3198C94.2673 10.6904 94.7225 10.1523 95.289 9.69543C95.8555 9.24873 96.5332 8.8934 97.2919 8.63959C98.0607 8.38579 98.8699 8.26396 99.7197 8.26396C100.569 8.26396 101.379 8.39594 102.147 8.63959C102.906 8.8934 103.584 9.24873 104.15 9.69543C104.717 10.1421 105.182 10.6904 105.506 11.3198C105.84 11.9492 106.012 12.6396 106.012 13.3604C106.012 14.0812 105.84 14.802 105.506 15.4315C105.172 16.0609 104.717 16.599 104.15 17.0558C103.584 17.5025 102.906 17.8579 102.147 18.1117C101.389 18.3655 100.559 18.4873 99.6893 18.4873ZM99.7197 11.3909C98.961 11.3909 98.354 11.5939 97.9191 11.9898C97.4841 12.3858 97.2818 12.8325 97.2818 13.3604C97.2818 13.8883 97.4942 14.3756 97.9393 14.7919C98.3743 15.2081 98.9812 15.4213 99.7197 15.4213C100.458 15.4213 101.065 15.2081 101.5 14.7919C101.945 14.3756 102.158 13.9086 102.158 13.3604C102.158 12.8122 101.945 12.3858 101.51 11.9898C101.075 11.5939 100.478 11.3909 99.7095 11.3909H99.7197ZM92.1835 7.65482C91.7283 7.65482 91.4653 7.38071 91.4653 6.8934V5.11675C91.4653 4.64975 91.7283 4.38579 92.2038 4.38579H106.801C107.276 4.38579 107.539 4.64975 107.539 5.11675V6.92386C107.539 7.39086 107.276 7.65482 106.801 7.65482H92.1734H92.1835ZM95.9769 3.52284C95.8049 3.52284 95.6532 3.48223 95.5116 3.40102C95.3497 3.30964 95.2587 3.1066 95.2587 2.79188V0.964467C95.2587 0.639594 95.3396 0.4467 95.5116 0.35533C95.6532 0.274112 95.8049 0.243655 95.9769 0.243655H103.24C103.715 0.243655 103.978 0.517766 103.978 1.00508V2.78173C103.978 3.02538 103.938 3.19797 103.847 3.32995C103.746 3.47208 103.543 3.54315 103.24 3.54315H95.9769V3.52284Z" fill="#00133F"/>
<path d="M135.306 27.797C134.831 27.797 134.568 27.5431 134.568 27.0964V20.8629C134.568 20.6091 134.467 20.5584 134.305 20.5584H121.185C121.013 20.5584 120.861 20.5279 120.74 20.4569C120.588 20.3756 120.497 20.203 120.497 19.9391V17.6751C120.497 17.5635 120.497 17.2183 120.74 17.1168C120.871 17.066 121.013 17.0355 121.185 17.0355H127.79V13.6447H117.867C117.604 13.6447 117.422 13.5838 117.321 13.4721C117.23 13.3604 117.179 13.1878 117.179 12.9442V10.8731C117.179 10.6193 117.21 10.4365 117.28 10.3249C117.361 10.1827 117.553 10.1218 117.867 10.1218H134.457C134.527 9.72589 134.588 9.26904 134.649 8.77157C134.72 8.2132 134.77 7.67513 134.831 7.13706C134.892 6.59898 134.932 6.12183 134.952 5.69543C134.983 5.26904 134.993 4.97462 134.993 4.80203C134.993 4.47716 134.942 4.32487 134.902 4.25381C134.882 4.22335 134.79 4.13198 134.366 4.13198H121.751C121.549 4.13198 121.387 4.10152 121.266 4.05076C121.043 3.94924 121.043 3.60406 121.043 3.49239V1.21827C121.043 0.954315 121.114 0.781726 121.266 0.71066C121.387 0.639594 121.549 0.609137 121.762 0.609137H136.975C137.673 0.609137 138.199 0.771574 138.543 1.08629C138.887 1.41117 139.059 1.95939 139.059 2.72081C139.059 3.72589 139.009 4.91371 138.918 6.24365C138.827 7.52284 138.655 8.82234 138.412 10.1117H141.861C142.316 10.1117 142.569 10.3858 142.569 10.8731V12.9442C142.569 13.2183 142.499 13.4112 142.347 13.5127C142.215 13.6041 142.043 13.6548 141.851 13.6548H131.928V17.0457H136.632C137.046 17.0457 137.39 17.0761 137.653 17.1472C137.926 17.2183 138.149 17.3604 138.301 17.5533C138.452 17.7462 138.564 17.9898 138.624 18.2843C138.685 18.5685 138.705 18.9239 138.705 19.33V27.1167C138.705 27.5736 138.473 27.8173 138.048 27.8173H135.316L135.306 27.797Z" fill="#00133F"/>
<path d="M151.522 27.3401C151.117 27.3401 150.783 27.3096 150.53 27.2386C150.257 27.1675 150.035 27.0457 149.883 26.8731C149.731 26.7005 149.62 26.467 149.559 26.1827C149.499 25.9086 149.478 25.5736 149.478 25.1472V18.7411C149.478 18.2741 149.721 18.0102 150.166 18.0102H152.928C153.373 18.0102 153.616 18.2741 153.616 18.7411V23.5127C153.616 23.7259 153.707 23.8173 153.939 23.8173H166.584C166.756 23.8173 166.908 23.8579 167.039 23.9391C167.191 24.0305 167.272 24.203 167.272 24.467V26.7107C167.272 26.8325 167.272 27.198 167.019 27.2893C166.887 27.3299 166.746 27.3503 166.584 27.3503H151.542L151.522 27.3401ZM162.801 19.7563C162.558 19.7563 162.396 19.7056 162.295 19.5939C162.214 19.4924 162.163 19.3198 162.163 19.0761V11.7665H158.188C157.996 11.7665 157.834 11.7157 157.712 11.6244C157.591 11.5228 157.53 11.3503 157.53 11.0964V8.94416C157.53 8.63959 157.601 8.45685 157.753 8.37563C157.874 8.30457 158.016 8.27411 158.188 8.27411H162.163V0.670051C162.163 0.233503 162.386 0 162.79 0H165.613C166.038 0 166.27 0.243655 166.27 0.670051V19.0761C166.27 19.3198 166.22 19.4924 166.118 19.5939C166.017 19.6954 165.855 19.7462 165.613 19.7462H162.79L162.801 19.7563ZM145.968 17.6751C145.837 17.665 145.715 17.5431 145.604 17.2995L144.542 15.0863C144.431 14.8832 144.4 14.7208 144.441 14.5888C144.481 14.4467 144.633 14.3249 144.947 14.1929C146.11 13.6853 147.182 13.0863 148.153 12.4061C149.114 11.736 149.984 11.0152 150.733 10.2538C151.481 9.49239 152.108 8.71066 152.594 7.90863C153.09 7.1066 153.464 6.30457 153.697 5.51269C153.777 5.26904 153.767 5.15736 153.757 5.11675C153.757 5.11675 153.717 5.04568 153.373 5.04568H146.312C146.019 5.04568 145.827 4.96447 145.756 4.80203C145.695 4.67005 145.655 4.50761 145.655 4.31472V2.24365C145.655 2 145.705 1.82741 145.796 1.71574C145.897 1.60406 146.079 1.54315 146.342 1.54315H155.922C156.802 1.54315 157.399 1.69543 157.743 2.0203C158.087 2.34518 158.259 2.8934 158.259 3.65482C158.259 4.85279 157.996 6.12183 157.47 7.43147C156.944 8.74112 156.175 10.0305 155.194 11.269C154.202 12.5076 152.978 13.6751 151.542 14.7513C150.105 15.8274 148.467 16.7411 146.656 17.4619C146.241 17.6345 146.1 17.6548 146.029 17.6548H145.999L145.968 17.6751Z" fill="#00133F"/>
<path d="M177.478 27.9391C177.064 27.9391 176.72 27.9086 176.457 27.8376C176.184 27.7665 175.971 27.6447 175.809 27.4924C175.658 27.3299 175.546 27.1168 175.496 26.8528C175.445 26.6091 175.425 26.3046 175.425 25.9492V22.1015C175.425 21.736 175.445 21.4213 175.496 21.1878C175.546 20.934 175.647 20.731 175.809 20.5685C175.971 20.4061 176.184 20.2944 176.447 20.2335C176.699 20.1726 177.033 20.1421 177.448 20.1421H188.251C188.332 20.1421 188.403 20.132 188.403 19.9492V19.1777C188.403 18.9949 188.332 18.9645 188.221 18.9645H176.052C175.809 18.9645 175.647 18.9137 175.536 18.8122C175.425 18.7107 175.374 18.5279 175.374 18.2538V16.2741C175.374 15.8376 175.617 15.6041 176.062 15.6041H190.325C190.76 15.6041 191.124 15.6345 191.387 15.7056C191.671 15.7766 191.893 15.8985 192.055 16.0508C192.217 16.2132 192.328 16.4264 192.379 16.6802C192.429 16.9137 192.449 17.2183 192.449 17.5634V21.3807C192.449 21.7665 192.429 22.0914 192.379 22.335C192.328 22.599 192.217 22.8122 192.065 22.9645C191.903 23.1168 191.691 23.2183 191.418 23.269C191.155 23.3198 190.811 23.3401 190.376 23.3401H179.684C179.532 23.3401 179.501 23.3909 179.501 23.5025V24.3959C179.501 24.5178 179.532 24.5888 179.714 24.5888H192.47C192.702 24.5888 192.864 24.6294 192.975 24.7005C193.097 24.7817 193.158 24.9645 193.158 25.269V27.2487C193.158 27.7056 192.925 27.9492 192.5 27.9492H177.478V27.9391ZM172.451 14.8528C172.289 14.8528 172.137 14.731 171.986 14.4873L170.701 12.7107C170.458 12.3756 170.377 12.1523 170.438 11.9898C170.488 11.8477 170.64 11.6853 170.934 11.4924C172.845 10.2132 174.302 8.71066 175.263 7.03553C176.224 5.37056 176.71 3.3401 176.71 0.994924C176.71 0.619289 176.76 0.406091 176.882 0.304569C176.973 0.233503 177.114 0.203046 177.316 0.203046C177.367 0.203046 177.428 0.203046 177.488 0.203046L180.108 0.314721C180.351 0.335025 180.513 0.385787 180.604 0.477157C180.705 0.568528 180.756 0.741117 180.756 0.984772C180.756 1.75635 180.705 2.49746 180.614 3.20812C180.523 3.90863 180.392 4.58883 180.23 5.24873C180.503 5.85787 180.857 6.4467 181.272 7.00508C181.697 7.5736 182.172 8.11168 182.668 8.59898C183.163 9.08629 183.679 9.52284 184.195 9.92893C184.711 10.3249 185.197 10.6497 185.632 10.8934C185.945 11.0761 186.087 11.2589 186.077 11.4619C186.066 11.6345 185.986 11.8376 185.824 12.0812L184.792 13.797C184.62 14.0711 184.468 14.203 184.316 14.2335H184.256C184.114 14.2335 183.922 14.1624 183.669 14.0203C183.285 13.8274 182.85 13.5635 182.374 13.2386C181.909 12.9137 181.434 12.5381 180.948 12.1218C180.473 11.7056 180.007 11.2487 179.572 10.7614C179.178 10.3249 178.814 9.85787 178.49 9.38071C177.873 10.3959 177.134 11.3198 176.295 12.1523C175.405 13.0254 174.393 13.8071 173.27 14.4873C172.744 14.7817 172.562 14.8325 172.471 14.8325H172.441L172.451 14.8528ZM189.061 14.4365C188.636 14.4365 188.403 14.203 188.403 13.797V7.91878H184.145C183.952 7.91878 183.79 7.86802 183.669 7.77665C183.548 7.67513 183.487 7.50254 183.487 7.24873V5.1269C183.487 4.92386 183.507 4.62944 183.71 4.53807C183.831 4.48731 183.973 4.45685 184.134 4.45685H188.393V0.670051C188.393 0.375635 188.474 0.182741 188.626 0.101523C188.757 0.0304569 188.919 0 189.101 0H191.863C192.166 0 192.338 0.071066 192.409 0.233503C192.46 0.35533 192.49 0.507614 192.49 0.670051V13.7665C192.49 14.203 192.257 14.4365 191.832 14.4365H189.04H189.061Z" fill="#00133F"/>
<path d="M202.858 27.3401C202.464 27.3401 202.12 27.3096 201.867 27.2386C201.594 27.1675 201.371 27.0457 201.22 26.8731C201.068 26.7005 200.957 26.467 200.896 26.1827C200.835 25.9086 200.805 25.5635 200.805 25.1472V18.7411C200.805 18.2741 201.048 18.0102 201.493 18.0102H204.224C204.679 18.0102 204.932 18.2741 204.932 18.7411V23.5127C204.932 23.736 205.013 23.8173 205.225 23.8173H218.072C218.244 23.8173 218.396 23.8579 218.538 23.9391C218.699 24.0305 218.78 24.203 218.78 24.467V26.7107C218.78 27.0355 218.689 27.2386 218.507 27.2893C218.376 27.3299 218.224 27.3503 218.062 27.3503H202.848L202.858 27.3401ZM214.188 19.5838C213.945 19.5838 213.783 19.533 213.672 19.4315C213.561 19.3299 213.51 19.1574 213.51 18.9036V0.670051C213.51 0.233503 213.753 0 214.198 0H217.02C217.425 0 217.647 0.243655 217.647 0.670051V8.18274H220.986C221.147 8.18274 221.289 8.20304 221.421 8.24365C221.582 8.30457 221.673 8.48731 221.673 8.79188V11.0558C221.673 11.3096 221.603 11.4822 221.461 11.5838C221.34 11.665 221.178 11.7056 220.986 11.7056H217.647V18.9036C217.647 19.1472 217.607 19.3198 217.516 19.4213C217.425 19.533 217.263 19.5838 217.01 19.5838H214.188ZM198.155 17.2284C197.993 17.2284 197.821 17.1066 197.649 16.8629L196.283 15.0254C196.04 14.7107 195.97 14.4873 196.051 14.3046C196.111 14.1624 196.263 14 196.506 13.8071C197.457 13.066 198.316 12.2335 199.055 11.3198C199.793 10.4061 200.41 9.41117 200.896 8.37563C201.382 7.3401 201.756 6.24365 202.009 5.1269C202.262 4.01015 202.383 2.8731 202.383 1.73604C202.383 1.36041 202.434 1.14721 202.555 1.04569C202.646 0.974619 202.788 0.944162 202.99 0.944162C203.04 0.944162 203.101 0.944162 203.162 0.944162L205.893 1.05584C206.136 1.07614 206.298 1.1269 206.389 1.21827C206.49 1.30964 206.54 1.48223 206.54 1.72589C206.54 2.52792 206.49 3.3198 206.399 4.08122C206.308 4.82233 206.176 5.56345 206.014 6.28426C206.237 6.95431 206.551 7.61421 206.965 8.24365C207.39 8.8934 207.866 9.52284 208.361 10.0914C208.867 10.67 209.393 11.198 209.939 11.6548C210.486 12.1218 210.991 12.5076 211.447 12.8122C211.608 12.9137 211.72 13.0152 211.79 13.0964C211.861 13.198 211.902 13.2893 211.902 13.3706V13.4213C211.902 13.4213 211.861 13.4822 211.851 13.5127C211.841 13.5635 211.821 13.6041 211.801 13.6548C211.76 13.7259 211.73 13.7766 211.699 13.8173C211.669 13.868 210.486 15.7868 210.486 15.7868C210.303 16.0406 210.152 16.1624 210 16.1726C209.828 16.1726 209.636 16.1015 209.383 15.9695C208.968 15.7563 208.523 15.4619 208.048 15.1066C207.582 14.7513 207.117 14.335 206.652 13.8782C206.197 13.4213 205.741 12.9137 205.316 12.3756C204.932 11.8985 204.598 11.401 204.305 10.8934C203.678 12.0609 202.919 13.1472 202.069 14.1218C201.159 15.1472 200.117 16.0609 198.964 16.8325C198.468 17.1574 198.286 17.198 198.185 17.198L198.155 17.2284Z" fill="#00133F"/>
<path d="M230.322 27.3096C229.867 27.3096 229.493 27.2792 229.21 27.2183C228.906 27.1574 228.663 27.0457 228.491 26.8832C228.319 26.7208 228.188 26.4975 228.117 26.203C228.046 25.9289 228.016 25.5634 228.016 25.1066V16.6091C228.016 16.1929 228.249 15.9695 228.673 15.9695H231.465C231.708 15.9695 231.87 16.0102 231.981 16.1015C232.103 16.1929 232.153 16.3655 232.153 16.6193V18.5888H240.863V16.5076C240.863 16.2538 240.923 16.0812 241.045 15.9797C241.156 15.8883 241.318 15.8376 241.52 15.8376H244.363C244.565 15.8376 244.717 15.8883 244.828 15.9797C244.939 16.0812 245 16.2538 245 16.5076V25.2081C245 26 244.858 26.5279 244.565 26.8426C244.272 27.1574 243.665 27.3096 242.724 27.3096H230.322ZM232.153 23.6751C232.153 23.7665 232.173 23.8071 232.305 23.8071H240.711C240.842 23.8071 240.863 23.7665 240.863 23.6751V22.0203H232.153V23.6751ZM241.551 14.5279C241.126 14.5279 240.893 14.2944 240.893 13.8883V9.48223H237.09C236.887 10.132 236.584 10.7411 236.21 11.3096C235.815 11.8985 235.319 12.4264 234.743 12.8629C234.166 13.2995 233.509 13.6447 232.78 13.8883C232.052 14.132 231.253 14.2538 230.413 14.2538C229.382 14.2538 228.421 14.0711 227.581 13.6954C226.741 13.3299 226.013 12.8325 225.406 12.2233C224.799 11.6142 224.324 10.8934 224 10.0812C223.666 9.27919 223.504 8.41624 223.504 7.52284C223.504 6.62944 223.666 5.7665 224 4.94416C224.334 4.13198 224.799 3.40102 225.406 2.78173C226.013 2.16244 226.741 1.65482 227.581 1.28934C228.421 0.923858 229.371 0.730964 230.413 0.730964C231.314 0.730964 232.163 0.873096 232.912 1.13706C233.671 1.41117 234.348 1.79695 234.935 2.27411C235.522 2.76142 236.017 3.32995 236.402 3.96954C236.776 4.57868 237.039 5.24873 237.191 5.94924H240.903V0.670051C240.903 0.365482 240.984 0.182741 241.136 0.101523C241.267 0.0304569 241.419 0 241.611 0H244.373C244.666 0 244.848 0.071066 244.919 0.233503C244.97 0.35533 245 0.507614 245 0.670051V13.8477C245 14.2843 244.767 14.5178 244.342 14.5178H241.551V14.5279ZM230.413 4.30457C229.968 4.30457 229.564 4.39594 229.199 4.56853C228.835 4.74112 228.512 4.97462 228.249 5.26904C227.986 5.56345 227.773 5.90863 227.632 6.29442C227.49 6.6802 227.419 7.08629 227.419 7.51269C227.419 7.93909 227.49 8.33502 227.632 8.70051C227.773 9.06599 227.975 9.40102 228.249 9.69543C228.512 9.98985 228.835 10.2233 229.199 10.3858C229.564 10.5482 229.978 10.6294 230.413 10.6294C230.848 10.6294 231.303 10.5482 231.678 10.3858C232.052 10.2233 232.376 9.98985 232.639 9.69543C232.902 9.40102 233.114 9.06599 233.256 8.70051C233.397 8.33502 233.468 7.92893 233.468 7.51269C233.468 7.09645 233.387 6.6802 233.236 6.29442C233.084 5.90863 232.871 5.56345 232.598 5.26904C232.335 4.97462 232.012 4.74112 231.637 4.56853C231.263 4.39594 230.848 4.30457 230.403 4.30457H230.413Z" fill="#00133F"/>
</svg>
