<svg width="15" height="18" viewBox="0 0 15 18" fill="none" xmlns="http://www.w3.org/2000/svg">
<g clip-path="url(#clip0_134_3153)">
<path d="M12.0312 0.900391C13.1649 0.900391 14.0996 1.83129 14.0996 3C14.0996 4.16871 13.1649 5.09961 12.0312 5.09961C10.8976 5.09961 9.96289 4.16871 9.96289 3C9.96289 1.83129 10.8976 0.900391 12.0312 0.900391Z" stroke="#00133F" stroke-width="1.8"/>
<path d="M2.96875 6.90039C4.10243 6.90039 5.03711 7.83129 5.03711 9C5.03711 10.1687 4.10243 11.0996 2.96875 11.0996C1.83507 11.0996 0.900391 10.1687 0.900391 9C0.900391 7.83129 1.83507 6.90039 2.96875 6.90039Z" stroke="#00133F" stroke-width="1.8"/>
<path d="M12.0312 12.9004C13.1649 12.9004 14.0996 13.8313 14.0996 15C14.0996 16.1687 13.1649 17.0996 12.0312 17.0996C10.8976 17.0996 9.96289 16.1687 9.96289 15C9.96289 13.8313 10.8976 12.9004 12.0312 12.9004Z" stroke="#00133F" stroke-width="1.8"/>
<path d="M10.4909 3.42371L4.59534 7.46689L5.4386 8.70133L11.3341 4.65815L10.4909 3.42371Z" fill="#00133F"/>
<path d="M5.43811 9.28683L4.59485 10.5213L10.4904 14.5645L11.3336 13.33L5.43811 9.28683Z" fill="#00133F"/>
</g>
<defs>
<clipPath id="clip0_134_3153">
<rect width="15" height="18" fill="white"/>
</clipPath>
</defs>
</svg>
