<svg width="70" height="26" viewBox="0 0 70 26" fill="none" xmlns="http://www.w3.org/2000/svg">
<mask id="mask0_382_15" style="mask-type:alpha" maskUnits="userSpaceOnUse" x="0" y="0" width="70" height="26">
<rect width="70" height="26" fill="#D9D9D9"/>
</mask>
<g mask="url(#mask0_382_15)">
<path d="M45.8755 17.3854C45.27 18.1778 44.1662 18.3286 43.4101 17.7217C44.166 18.3286 44.288 19.4632 43.6826 20.2555C43.0771 21.048 41.9733 21.1982 41.2172 20.5913L40.4389 19.9667C40.8559 20.3018 41.0804 20.7966 41.0958 21.3065C41.1083 21.7212 40.9826 22.145 40.7113 22.5005C40.1058 23.2929 39.002 23.4431 38.2459 22.8362L36.8339 21.7025C37.2508 22.0376 37.4753 22.5325 37.4907 23.0423C37.5032 23.457 37.4212 23.722 37.1511 24.0678C36.7852 24.5363 35.9292 25.1287 34.9865 24.4664L19.6357 12.6521C19.7812 12.5871 19.9132 12.4852 20.0189 12.3476L25.6968 4.91595C26.0289 4.4813 26.3713 4.16892 26.3713 4.16892C26.6299 4.12683 27.057 4.36541 27.7634 4.3589C29.7689 4.34035 34.2251 4.35184 35.8043 5.29396C36.3348 5.61022 44.5232 13.9977 44.5232 13.9977L45.6031 14.8517C46.3591 15.4586 46.4809 16.5931 45.8755 17.3854Z" fill="white" stroke="#0095D5" stroke-width="1.8" stroke-linecap="round" stroke-linejoin="round"/>
<path d="M43.4103 17.7217L40.3936 15.4175" stroke="#0095D5" stroke-width="1.8" stroke-linecap="round" stroke-linejoin="round"/>
<path d="M40.4389 19.9666L38.1226 18.1119" stroke="#0095D5" stroke-width="1.8" stroke-linecap="round" stroke-linejoin="round"/>
<path d="M36.8339 21.7024L36.314 21.2253" stroke="#0095D5" stroke-width="1.8" stroke-linecap="round" stroke-linejoin="round"/>
<path d="M23.4691 1.24408L27.6572 3.81858C28.1469 4.16766 28.2547 4.84545 27.898 5.33243L21.797 13.6637C21.4404 14.1507 20.7543 14.2625 20.2648 13.9135L16.25 11.0512L23.4691 1.24408Z" fill="#DAF0FA" stroke="#0095D5" stroke-width="1.8" stroke-linecap="round" stroke-linejoin="round"/>
<path d="M41.8086 4.8022C41.5062 4.73352 40.1925 4.52707 39.3513 4.45617C37.1416 4.2691 35.5372 4.61278 33.7299 5.36077L28.3585 7.76842C27.3635 8.32118 27.0344 9.52625 27.6233 10.4601L27.6244 10.462C28.2133 11.3958 29.4973 11.7047 30.493 11.152L36.88 8.18008L46.6989 15.599L48.8219 14.5947" fill="white"/>
<path d="M41.8086 4.8022C41.5062 4.73352 40.1925 4.52707 39.3513 4.45617C37.1416 4.2691 35.5372 4.61278 33.7299 5.36077L28.3585 7.76842C27.3635 8.32118 27.0344 9.52625 27.6233 10.4601L27.6244 10.462C28.2133 11.3958 29.4973 11.7047 30.493 11.152L36.88 8.18008L46.6989 15.599L48.8219 14.5947" stroke="#0095D5" stroke-width="1.8" stroke-linecap="round" stroke-linejoin="round"/>
<path d="M32.2078 20.3161C32.8975 19.7488 33.9302 19.8333 34.5147 20.5047C35.0988 21.1756 35.0129 22.1792 34.3232 22.7465L32.714 23.9471C32.0484 24.2916 31.2035 24.1508 30.6963 23.5681C30.442 23.2761 30.3142 22.9209 30.3083 22.5659C30.3008 22.1061 30.4977 21.6463 30.8878 21.3264L32.2078 20.3162V20.3161Z" fill="white" stroke="#0095D5" stroke-width="1.8" stroke-linecap="round" stroke-linejoin="round"/>
<path d="M26.6283 16.5866C27.0182 16.2666 27.2153 15.8069 27.2078 15.3471C27.2019 14.9922 27.0742 14.637 26.8198 14.3449C26.3127 13.7616 25.4672 13.6218 24.8017 13.9663L22.5424 15.6776C21.8527 16.2449 21.7669 17.2484 22.351 17.9198C22.935 18.5907 23.968 18.6751 24.6579 18.1084L26.6283 16.5865V16.5866Z" fill="white" stroke="#0095D5" stroke-width="1.8" stroke-linecap="round" stroke-linejoin="round"/>
<path d="M30.0321 17.9579L30.7422 17.3741C31.4325 16.8073 32.4651 16.8917 33.0496 17.5627C33.6336 18.2342 33.5478 19.2376 32.8581 19.8049L30.8876 21.3262L29.5984 22.3854C28.9087 22.9523 27.876 22.8682 27.2914 22.1968C27.0371 21.9048 26.9098 21.5496 26.904 21.1951C26.8965 20.7347 27.0934 20.275 27.4829 19.955L30.032 17.9578L30.0321 17.9579Z" fill="white" stroke="#0095D5" stroke-width="1.8" stroke-linecap="round" stroke-linejoin="round"/>
<path d="M26.6284 16.5866L27.9171 15.5276C28.6074 14.9608 29.64 15.0452 30.2241 15.7162C30.4784 16.0083 30.6062 16.3634 30.6121 16.7185C30.6196 17.1783 30.4226 17.638 30.0326 17.958L27.4835 19.9552L26.7735 20.539C26.0838 21.1059 25.051 21.0214 24.4667 20.3504C23.8826 19.679 23.9685 18.6755 24.6582 18.1087L26.6286 16.5868L26.6284 16.5866Z" fill="white" stroke="#0095D5" stroke-width="1.8" stroke-linecap="round" stroke-linejoin="round"/>
<path d="M26.6281 16.5867L24.6577 18.1086" stroke="#0095D5" stroke-width="1.8" stroke-linecap="round" stroke-linejoin="round"/>
<path d="M53.75 12.5601L49.2508 15.0082C48.7022 15.3067 47.9887 15.1139 47.6574 14.5775L41.9895 5.40178C41.6582 4.86536 41.8345 4.18854 42.3831 3.89L46.9057 1.2381L53.7498 12.5602L53.75 12.5601Z" fill="#DAF0FA" stroke="#0095D5" stroke-width="1.8" stroke-linecap="round" stroke-linejoin="round"/>
</g>
</svg>
