<svg width="20" height="17" viewBox="0 0 20 17" fill="none" xmlns="http://www.w3.org/2000/svg">
<path d="M0.598641 8.92756H2.99414V16.4516C2.99414 16.7542 3.26224 17 3.59268 17H7.25161C7.58205 17 7.85015 16.7542 7.85015 16.4516V11.5977H12.1498V16.4516C12.1498 16.7542 12.418 17 12.7484 17H16.4073C16.7378 17 17.0059 16.7542 17.0059 16.4516V8.92756H19.4014C19.6487 8.92756 19.8705 8.78834 19.9597 8.57656C20.0488 8.36543 19.9872 8.12555 19.8042 7.97325L10.4018 0.142657C10.1739 -0.0475522 9.82473 -0.0475522 9.59684 0.142657L0.195817 7.97325C0.0128365 8.12555 -0.0488271 8.36543 0.040317 8.57656C0.129461 8.78768 0.351316 8.92756 0.598641 8.92756Z" fill="#222222" fill-opacity="0.7"/>
</svg>
