<svg width="12" height="17" viewBox="0 0 12 17" fill="none" xmlns="http://www.w3.org/2000/svg">
<g clip-path="url(#clip0_551_2702)">
<path d="M2.34155 5.27148L9.07326 5.32201" stroke="#666666" stroke-linecap="round" stroke-linejoin="round"/>
<path d="M2.34155 7.41992L9.07326 7.47045" stroke="#666666" stroke-linecap="round" stroke-linejoin="round"/>
<path d="M2.34155 9.60534L9.07326 9.58008" stroke="#666666" stroke-linecap="round" stroke-linejoin="round"/>
<path d="M2.34155 11.7285L6.14643 11.7538" stroke="#666666" stroke-linecap="round" stroke-linejoin="round"/>
<path d="M11.3386 16.2198L0.562009 16.1413C0.526263 16.1409 0.490943 16.1338 0.458065 16.1203C0.425186 16.1068 0.395395 16.0873 0.37039 16.0628C0.345386 16.0383 0.325659 16.0093 0.312336 15.9775C0.299013 15.9457 0.292354 15.9117 0.292741 15.8774L0.406887 1.0395C0.408418 0.970493 0.438079 0.904813 0.489509 0.856537C0.540939 0.808262 0.610045 0.781234 0.682009 0.78125L9.12298 0.843004C9.16217 0.842858 9.20089 0.851098 9.23633 0.867122C9.27178 0.883147 9.30305 0.906553 9.32786 0.935636L11.643 3.53493C11.6837 3.58357 11.7063 3.64381 11.7074 3.70616L11.6108 15.9616C11.61 16.0303 11.581 16.096 11.53 16.1444C11.4791 16.1927 11.4103 16.2199 11.3386 16.2198Z" stroke="#666666" stroke-linecap="round" stroke-linejoin="round"/>
<path d="M9.07324 0.845703L9.05275 3.3243C9.05236 3.35882 9.05912 3.39307 9.07262 3.42506C9.08613 3.45706 9.10612 3.48617 9.13143 3.51071C9.15675 3.53525 9.18688 3.55473 9.2201 3.56802C9.25332 3.58132 9.28895 3.58816 9.32495 3.58816L11.5552 3.605L9.07324 0.845703Z" stroke="#666666" stroke-linecap="round" stroke-linejoin="round"/>
</g>
<defs>
<clipPath id="clip0_551_2702">
<rect width="12" height="16" fill="white" transform="translate(0 0.5)"/>
</clipPath>
</defs>
</svg>
