<svg width="70" height="90" viewBox="0 0 70 90" fill="none" xmlns="http://www.w3.org/2000/svg">
<g clip-path="url(#clip0_339_1227)">
<path d="M23.4433 15.66C20.3065 15.66 17.8301 13.1874 17.8301 10.0556C17.8301 6.9237 20.3065 4.45117 23.4433 4.45117C26.5801 4.45117 29.0565 6.9237 29.0565 10.0556C29.0565 13.1874 26.5801 15.66 23.4433 15.66ZM23.4433 7.25337C21.9574 7.25337 20.6367 8.57205 20.6367 10.0556C20.6367 11.5391 21.9574 12.8578 23.4433 12.8578C24.9291 12.8578 26.2499 11.5391 26.2499 10.0556C26.2499 8.57205 24.9291 7.25337 23.4433 7.25337Z" fill="#0095D5"/>
<path d="M32.5232 29.3415C32.5232 29.3415 31.0373 28.6821 31.0373 27.858V21.7591C31.0373 20.1107 29.7166 18.6272 27.9005 18.6272H18.9854C17.3345 18.6272 15.8487 19.9459 15.8487 21.7591V27.858C15.8487 27.858 15.1883 29.3415 14.3628 29.3415C13.5373 29.3415 12.877 28.6821 12.877 27.858V21.7591C12.877 18.4624 15.5185 15.6602 18.9854 15.6602H27.9005C31.2024 15.6602 34.009 18.2975 34.009 21.7591V27.858C34.009 27.858 33.3487 29.3415 32.5232 29.3415Z" fill="#0095D5"/>
<path d="M23.4436 36.2637C13.3728 36.2637 5.2832 28.1868 5.2832 18.1319C5.2832 8.07692 13.3728 0 23.4436 0C33.5143 0 41.604 8.07692 41.604 18.1319C41.604 28.1868 33.5143 36.2637 23.4436 36.2637ZM23.4436 2.96703C15.0238 2.96703 8.08981 9.72528 8.08981 18.1319C8.08981 26.5385 14.8587 33.2967 23.2785 33.2967C31.6983 33.2967 38.4672 26.5385 38.4672 18.1319C38.4672 9.72528 31.8634 2.96703 23.4436 2.96703Z" fill="#A4A4A4"/>
<path d="M51.8398 69.3963C48.703 69.3963 46.2266 66.9238 46.2266 63.7919C46.2266 60.66 48.703 58.1875 51.8398 58.1875C54.9766 58.1875 57.453 60.66 57.453 63.7919C57.453 66.9238 54.9766 69.3963 51.8398 69.3963ZM51.8398 60.9897C50.3539 60.9897 49.0332 62.3084 49.0332 63.7919C49.0332 65.2754 50.3539 66.5941 51.8398 66.5941C53.3256 66.5941 54.6464 65.2754 54.6464 63.7919C54.6464 62.3084 53.3256 60.9897 51.8398 60.9897Z" fill="#0095D5"/>
<path d="M60.9197 83.0778C60.9197 83.0778 59.4338 82.4185 59.4338 81.5943V75.4954C59.4338 73.847 58.1131 72.3635 56.297 72.3635H47.3819C45.731 72.3635 44.2451 73.6822 44.2451 75.4954V81.5943C44.2451 81.5943 43.5848 83.0778 42.7593 83.0778C41.9338 83.0778 41.2734 82.4185 41.2734 81.5943V75.4954C41.2734 72.1987 43.9149 69.3965 47.3819 69.3965H56.297C59.5989 69.3965 62.4055 72.0338 62.4055 75.4954V81.5943C62.4055 81.5943 61.7451 83.0778 60.9197 83.0778Z" fill="#0095D5"/>
<path d="M51.8401 90.0001C41.7693 90.0001 33.6797 81.9231 33.6797 71.8682C33.6797 61.8133 41.7693 53.7363 51.8401 53.7363C61.9108 53.7363 70.0004 61.8133 70.0004 71.8682C70.0004 81.9231 61.9108 90.0001 51.8401 90.0001ZM51.8401 56.5385C43.4203 56.5385 36.6514 63.2968 36.6514 71.7034C36.6514 80.11 43.4203 86.8682 51.8401 86.8682C60.2599 86.8682 67.0287 80.11 67.0287 71.7034C67.0287 63.2968 60.2599 56.5385 51.8401 56.5385Z" fill="#A4A4A4"/>
<path d="M33.5141 79.6159C15.0236 79.6159 0 64.6159 0 46.1544C0 38.4071 2.64151 30.9895 7.59434 25.0555C7.92453 24.7258 8.41981 24.3961 8.91509 24.561C9.41038 24.561 9.90566 24.8906 10.0708 25.3851C12.7123 30.3302 17.8302 33.4621 23.4434 33.4621C31.8632 33.4621 38.6321 26.7038 38.6321 18.2972C38.6321 17.3082 38.6321 16.3192 38.3019 15.3302C38.3019 14.8357 38.3019 14.3412 38.6321 14.0115C38.9623 13.6819 39.4575 13.517 39.9528 13.6819C55.4717 16.8137 66.8632 30.6599 66.8632 46.4841C66.8632 51.2643 65.8726 55.7148 64.0566 60.0005C63.8915 60.495 63.5613 60.6599 63.066 60.8247C62.5708 60.8247 62.0755 60.8247 61.7453 60.495C58.9387 58.1873 55.4717 56.8687 51.8396 56.8687C43.4198 56.8687 36.6509 63.6269 36.6509 72.0335C36.6509 74.0115 36.9811 75.8247 37.8066 77.8027C37.9717 78.2972 37.8066 78.7917 37.8066 79.1214C37.6415 79.4511 37.1462 79.7808 36.6509 79.7808C35.6604 79.7808 34.6698 79.7808 33.6792 79.7808L33.5141 79.6159ZM8.58491 28.6819C4.95283 33.7917 2.9717 40.0555 2.9717 46.3192C2.9717 63.1324 16.6745 76.8137 33.5141 76.8137C33.8443 76.8137 34.1745 76.8137 34.3396 76.8137C33.8443 75.1654 33.6792 73.517 33.6792 71.8687C33.6792 61.8137 41.7689 53.7368 51.8396 53.7368C55.4717 53.7368 59.1038 54.8906 62.0755 56.8687C63.3962 53.4071 64.0566 49.9456 64.0566 46.1544C64.0566 32.3082 54.6462 20.2753 41.6038 16.6489C41.6038 17.1434 41.6038 17.6379 41.6038 17.9676C41.6038 28.0225 33.5141 36.0994 23.4434 36.0994C17.5 36.0994 11.8868 33.1324 8.58491 28.3522V28.6819Z" fill="#A4A4A4"/>
<path d="M50.5185 26.0448C50.5185 26.0448 49.1978 25.5503 49.0327 24.8909L47.7119 18.6272C47.7119 18.6272 47.7119 17.803 47.877 17.4733C48.0421 17.1437 48.3723 16.9788 48.8676 16.814L55.3063 15.6602C55.3063 15.6602 56.7921 15.9898 56.9572 16.814C57.1223 17.6382 56.627 18.2975 55.8015 18.4624L50.8487 19.2865L51.8393 24.0668C51.8393 24.0668 51.5091 25.5503 50.6836 25.7151C50.6836 25.7151 50.5185 25.7151 50.3534 25.7151L50.5185 26.0448Z" fill="#A4A4A4"/>
<path d="M11.3911 77.3069C11.3911 77.3069 10.0704 76.8124 9.90527 76.1531C9.90527 75.3289 10.2355 74.6695 11.0609 74.5047L16.0138 73.6805L15.0232 68.9003C15.0232 68.9003 15.3534 67.4168 16.1789 67.252C17.0043 67.252 17.6647 67.5816 17.8298 68.4058L19.1506 74.6695C19.1506 74.6695 19.1506 75.4937 18.9855 75.8234C18.8204 76.1531 18.4902 76.3179 17.9949 76.4827L11.5562 77.6366C11.5562 77.6366 11.3911 77.6366 11.226 77.6366L11.3911 77.3069Z" fill="#A4A4A4"/>
</g>
<defs>
<clipPath id="clip0_339_1227">
<rect width="70" height="90" fill="white"/>
</clipPath>
</defs>
</svg>
