<svg width="92" height="90" viewBox="0 0 92 90" fill="none" xmlns="http://www.w3.org/2000/svg">
<g clip-path="url(#clip0_339_1240)">
<path d="M82.3285 52.8567H81.9688L46.5399 42.6579C46.5399 42.6579 45.8206 42.3 45.6407 41.9422C45.4609 41.5843 45.4609 41.2265 45.6407 40.6897L53.1941 14.7454C53.1941 14.7454 54.2732 13.4929 55.1724 13.6718L90.6012 23.8706C90.6012 23.8706 91.5004 24.4074 91.6803 24.9442C91.6803 25.4809 91.6803 26.0177 91.5004 26.3756L82.868 37.2901L84.3067 51.0674C84.3067 51.0674 84.3068 52.141 83.7672 52.4988C83.4075 52.6778 83.0479 52.8567 82.6882 52.8567H82.3285ZM48.8779 40.1529L80.5301 49.2782L79.2712 37.1112C79.2712 37.1112 79.2712 36.3954 79.6309 36.0376L87.1842 26.3756L55.532 17.2503L48.8779 40.1529Z" fill="#0095D5"/>
<path d="M40.7845 64.13H40.4248C39.5256 63.9511 39.1659 63.0565 39.3457 62.1618L45.4604 40.6907C45.4604 40.6907 46.5394 39.4382 47.4386 39.6171C48.3378 39.796 48.6975 40.6907 48.5177 41.5853L42.4031 63.0565C42.4031 63.0565 41.5038 64.13 40.9643 64.13H40.7845Z" fill="#0095D5"/>
<path d="M47.6182 73.7185H29.8139C29.8139 73.7185 28.1953 73.0028 28.1953 72.1082C28.1953 66.3826 32.8712 61.7305 38.6261 61.7305C44.3811 61.7305 49.057 66.3826 49.057 72.1082C49.057 73.0028 48.3376 73.7185 47.4384 73.7185H47.6182ZM31.6123 70.4979H45.8198C45.1005 67.2772 42.223 64.7722 38.6261 64.7722C35.0293 64.7722 32.1518 67.2772 31.4325 70.4979H31.6123Z" fill="#A4A4A4"/>
<path d="M62.3654 82.6631H14.8871C14.8871 82.6631 13.2686 81.9474 13.2686 81.0528V72.1064C13.2686 72.1064 13.9879 70.4961 14.8871 70.4961H62.5452C62.5452 70.4961 64.1638 71.2118 64.1638 72.1064V81.0528C64.1638 81.0528 63.4444 82.6631 62.5452 82.6631H62.3654ZM16.3259 79.4424H60.7468V73.5378H16.5057V79.4424H16.3259Z" fill="#A4A4A4"/>
<path d="M71.1782 90.0008H6.2553C6.2553 90.0008 4.63672 89.2851 4.63672 88.3904V81.2334C4.63672 81.2334 5.35609 79.623 6.2553 79.623H71.1782C71.1782 79.623 72.7968 80.3388 72.7968 81.2334V88.3904C72.7968 88.3904 72.0774 90.0008 71.1782 90.0008ZM7.87387 86.7801H69.7395V82.6648H7.69403V86.7801H7.87387Z" fill="#A4A4A4"/>
<path d="M15.247 54.751C12.1897 54.751 9.67188 52.246 9.67188 49.2043V33.2798C9.67188 26.8385 15.0671 21.4707 21.5414 21.4707C22.4406 21.4707 23.16 22.1864 23.16 23.081C23.16 23.9757 22.4406 24.6914 21.5414 24.6914C16.6857 24.6914 12.7292 28.6278 12.7292 33.4588V49.3832C12.7292 50.6357 13.8082 51.7093 15.0671 51.7093C16.326 51.7093 17.4051 50.6357 17.4051 49.3832V39.5423C17.4051 39.5423 18.1244 37.9319 19.0237 37.9319C19.9229 37.9319 20.6422 38.6476 20.6422 39.5423V49.3832C20.6422 52.425 18.1244 54.9299 15.0671 54.9299L15.247 54.751Z" fill="#A4A4A4"/>
<path d="M44.0213 25.9439C44.0213 25.9439 43.4818 25.9439 43.302 25.7649C42.0431 25.0492 40.4245 24.6914 38.9858 24.6914C38.0866 24.6914 37.3672 23.9757 37.3672 23.081C37.3672 22.1864 38.0866 21.4707 38.9858 21.4707C40.964 21.4707 43.1221 22.0075 44.9205 23.081C45.6399 23.4389 45.9996 24.5125 45.4601 25.2282C45.1004 25.7649 44.5609 25.9439 44.0213 25.9439Z" fill="#A4A4A4"/>
<path d="M30.3535 20.3976C24.5986 20.3976 20.1025 15.7455 20.1025 10.1988C20.1025 4.65209 24.7784 0 30.3535 0C35.9286 0 40.6045 4.65209 40.6045 10.1988C40.6045 15.7455 35.9286 20.3976 30.3535 20.3976ZM30.3535 3.22068C26.397 3.22068 23.1599 6.44135 23.1599 10.3777C23.1599 14.3141 26.397 17.5348 30.3535 17.5348C34.31 17.5348 37.5472 14.3141 37.5472 10.3777C37.5472 6.44135 34.31 3.22068 30.3535 3.22068Z" fill="#A4A4A4"/>
<path d="M30.3539 27.1968H27.6563C27.6563 27.1968 26.3974 26.8389 26.2176 26.1232L25.3184 23.4393C25.3184 23.4393 25.3184 21.65 26.2176 21.4711C27.1168 21.1133 28.016 21.4711 28.1958 22.3657L28.7354 23.9761H30.3539C30.3539 23.9761 31.9725 24.6918 31.9725 25.5864C31.9725 26.4811 31.2531 27.1968 30.3539 27.1968Z" fill="#A4A4A4"/>
<path d="M33.0516 27.1962H30.3539C30.3539 27.1962 28.7354 26.4805 28.7354 25.5859C28.7354 24.6912 29.4547 23.9755 30.3539 23.9755H31.9725L32.512 22.3652C32.512 22.3652 33.7709 21.1127 34.4903 21.4706C35.3895 21.8284 35.7492 22.723 35.3895 23.4387L34.4903 26.1226C34.4903 26.1226 33.5911 27.1962 33.0516 27.1962Z" fill="#A4A4A4"/>
<path d="M30.354 45.9845C30.354 45.9845 29.4548 45.9845 29.2749 45.4477L25.1386 40.9746C25.1386 40.9746 24.599 40.2589 24.7789 39.7221L26.2176 25.408C26.2176 25.408 27.1168 23.9766 28.016 23.9766C28.9153 23.9766 29.4548 24.8712 29.4548 25.7658L28.016 39.3642L30.5338 42.0481L33.0516 39.3642L31.6129 25.7658C31.6129 25.7658 32.1524 24.1555 33.0516 23.9766C33.9508 23.9766 34.6702 24.5133 34.85 25.408L36.2888 39.7221C36.2888 39.7221 36.2888 40.6167 35.9291 40.9746L31.7927 45.4477C31.7927 45.4477 31.0734 45.9845 30.7137 45.9845H30.354Z" fill="#A4A4A4"/>
<path d="M30.3539 70.4963C30.3539 70.4963 28.7354 69.7806 28.7354 68.8859V56.54C28.7354 56.54 29.4547 54.9297 30.3539 54.9297C31.2531 54.9297 31.9725 55.6454 31.9725 56.54V68.8859C31.9725 68.8859 31.2531 70.4963 30.3539 70.4963Z" fill="#A4A4A4"/>
<path d="M19.5 73C19.5 73 18 72.2925 18 71.4082V48.5918C18 48.5918 18.6667 47 19.5 47C20.3333 47 21 47.7075 21 48.5918V71.4082C21 71.4082 20.3333 73 19.5 73Z" fill="#A4A4A4"/>
<path d="M79.8103 90H2.11858C2.11858 90 0.5 89.2843 0.5 88.3896C0.5 87.495 1.21937 86.7793 2.11858 86.7793H79.8103C79.8103 86.7793 81.4289 87.495 81.4289 88.3896C81.4289 89.2843 80.7095 90 79.8103 90Z" fill="#A4A4A4"/>
</g>
<defs>
<clipPath id="clip0_339_1240">
<rect width="91" height="90" fill="white" transform="translate(0.5)"/>
</clipPath>
</defs>
</svg>
