<svg width="44" height="44" viewBox="0 0 44 44" fill="none" xmlns="http://www.w3.org/2000/svg">
<rect width="44" height="44" rx="22" fill="url(#paint0_linear_339_1288)"/>
<g clip-path="url(#clip0_339_1288)">
<path d="M31.686 15.654C31.7975 15.1666 31.8594 14.649 31.8594 14.1105C31.8594 13.2365 31.6987 12.4156 31.4199 11.6969C31.3493 11.515 31.273 11.3379 31.1877 11.1703C31.1362 11.0681 31.0809 10.9698 31.0238 10.8731C30.993 10.8212 30.9604 10.7715 30.9285 10.7212C30.9285 10.7209 30.9279 10.7206 30.9279 10.7201C30.8994 10.6751 30.8706 10.6304 30.8409 10.5871C30.8104 10.5427 30.7793 10.4991 30.7473 10.4564C30.7093 10.4047 30.6701 10.3544 30.6303 10.3053C30.6038 10.2726 30.5782 10.2396 30.5511 10.2081C30.4826 10.1276 30.4123 10.05 30.3391 9.97679C30.3386 9.97624 30.3383 9.97568 30.3377 9.9754C30.0623 9.69468 29.7547 9.46703 29.4269 9.30223C29.2388 9.2081 29.0444 9.13547 28.8419 9.08436C28.6273 9.02933 28.4026 9 28.1759 9C27.9492 9 27.7246 9.02933 27.51 9.08631H27.5079C27.3034 9.13547 27.1053 9.21201 26.9149 9.30809C26.5911 9.47289 26.2895 9.69663 26.0162 9.97344C25.6864 10.303 25.3989 10.7095 25.1661 11.1706C24.743 12.0008 24.4941 13.0156 24.4941 14.1108C24.4941 15.206 24.7614 16.2934 25.2125 17.1412C25.2615 17.2339 25.3131 17.3241 25.3663 17.4121C25.3666 17.4127 25.3669 17.4129 25.3672 17.4135C25.4202 17.5009 25.4755 17.5856 25.5328 17.6677C25.8664 18.1467 26.2673 18.535 26.7144 18.8037C26.7731 18.8411 26.8319 18.8744 26.8924 18.9037C27.0056 18.9894 27.0851 19.1073 27.124 19.2408C27.1312 19.2654 27.1361 19.2906 27.141 19.3157C27.1473 19.3548 27.1531 19.3942 27.1516 19.435C27.1516 19.435 27.1516 19.4352 27.1516 19.4355L26.9264 26.2686L26.6862 33.5531C26.6862 33.5531 26.6862 33.5542 26.6862 33.5548C26.6862 33.6009 26.6887 33.6464 26.6934 33.6914C26.6948 33.7073 26.6977 33.7229 26.6997 33.7389C26.7034 33.7682 26.7078 33.7972 26.7135 33.8257C26.7173 33.8444 26.7219 33.8629 26.7262 33.8816C26.7322 33.9064 26.7386 33.931 26.7458 33.9553C26.7515 33.9752 26.7582 33.9947 26.7648 34.014C26.7726 34.0361 26.7806 34.0576 26.7893 34.0791C26.7973 34.0992 26.8057 34.1196 26.8146 34.1391C26.8236 34.1587 26.8333 34.1774 26.8431 34.1964C26.8472 34.2039 26.8506 34.2117 26.8547 34.2193C26.8616 34.2319 26.8682 34.2447 26.8754 34.2573C26.8849 34.2735 26.8953 34.2891 26.9054 34.305C26.9224 34.3319 26.9396 34.3587 26.9584 34.3844C26.9595 34.386 26.961 34.3877 26.9624 34.3897C26.9797 34.4134 26.9975 34.4369 27.0163 34.4595C27.0171 34.4606 27.018 34.4617 27.0188 34.4629C27.0373 34.4849 27.0572 34.5056 27.077 34.5265C27.0822 34.5321 27.0874 34.5377 27.0926 34.5433C27.1781 34.6313 27.2746 34.7089 27.3803 34.774C27.3907 34.7804 27.4014 34.7866 27.412 34.7927C27.4573 34.819 27.5039 34.8433 27.5523 34.8651C27.5612 34.8693 27.5702 34.8737 27.5794 34.8777C27.6353 34.9014 27.6929 34.9221 27.7522 34.9391C27.7643 34.9425 27.7767 34.945 27.7891 34.9483C27.8372 34.9609 27.8862 34.9709 27.936 34.979C27.953 34.9818 27.9697 34.9844 27.987 34.9866C28.0489 34.9941 28.1117 34.9994 28.1759 34.9994C28.1759 34.9994 28.1762 34.9994 28.1765 34.9994C29.0003 34.9994 29.6683 34.3517 29.6683 33.5528L29.2028 19.435C29.1947 19.221 29.2979 19.0286 29.4638 18.9012C29.5225 18.8719 29.579 18.8403 29.6357 18.8051C29.8618 18.6696 30.0764 18.5037 30.2763 18.3107C30.2804 18.3068 30.2844 18.302 30.2884 18.2981C30.6165 17.9789 30.9054 17.5878 31.1416 17.1406C31.3787 16.6951 31.5633 16.1931 31.6869 15.6538L31.686 15.654Z" fill="white"/>
<path d="M19.1606 13.2735V9.47468C19.1606 9.43167 19.1525 9.39005 19.1407 9.34983C19.139 9.34396 19.1378 9.33809 19.1358 9.33223C19.1228 9.29424 19.1047 9.25905 19.0825 9.22609C19.0785 9.2205 19.0747 9.21519 19.0707 9.2096C19.0465 9.17748 19.0191 9.14843 18.9869 9.12385C18.9834 9.12106 18.9794 9.1191 18.9759 9.11659C18.9195 9.07609 18.8532 9.04816 18.7795 9.04117C18.6772 9.03112 18.5825 9.05765 18.5047 9.10681C18.5047 9.10681 18.5041 9.10709 18.5041 9.10737C18.4814 9.12162 18.4603 9.13782 18.441 9.15597C18.4382 9.15877 18.4356 9.16212 18.4327 9.16491C18.4166 9.18111 18.401 9.19759 18.3878 9.21631C18.3823 9.22357 18.3785 9.23195 18.3736 9.23977C18.3641 9.25513 18.3541 9.26994 18.3466 9.2867C18.3402 9.30066 18.3365 9.31547 18.3319 9.33027C18.3281 9.34228 18.3229 9.35346 18.3204 9.36575C18.3143 9.3934 18.3108 9.42217 18.3108 9.45178V11.5651C18.3068 11.5621 18.3036 11.5584 18.2996 11.5554V14.729C18.2996 14.7693 18.2924 14.8084 18.2818 14.8464C18.28 14.8525 18.2786 14.8589 18.2766 14.8651C18.2642 14.9025 18.2478 14.938 18.2264 14.9707C18.225 14.9729 18.2236 14.9746 18.2221 14.9768C18.1749 15.0458 18.1089 15.1017 18.03 15.1335C17.9949 15.1477 17.9583 15.1586 17.9185 15.1625C17.6964 15.1841 17.5052 15.0399 17.46 14.8422C17.4533 14.8134 17.4496 14.7832 17.4496 14.7525V11.1428C17.4456 11.142 17.4415 11.1414 17.4375 11.1406V9.47468C17.4375 9.43167 17.4294 9.39005 17.4176 9.34983C17.4159 9.34396 17.4147 9.33809 17.4127 9.33223C17.3998 9.29424 17.3816 9.25905 17.3594 9.22609C17.3554 9.2205 17.3517 9.21491 17.3476 9.2096C17.3237 9.17748 17.2961 9.14843 17.2641 9.12385C17.2606 9.12106 17.2566 9.1191 17.2531 9.11659C17.2186 9.09201 17.1811 9.07134 17.1397 9.05821C17.1132 9.04983 17.0855 9.04369 17.0567 9.04089C17.0463 9.03978 17.0365 9.04145 17.0262 9.04089C16.9357 9.03838 16.8519 9.06212 16.7819 9.10653C16.7819 9.10653 16.7819 9.10653 16.7816 9.10653C16.7589 9.12106 16.7375 9.13698 16.7182 9.15542C16.7154 9.15821 16.7131 9.16128 16.7102 9.16408C16.6941 9.18028 16.6785 9.19704 16.665 9.21547C16.6595 9.22301 16.6557 9.23139 16.6508 9.23893C16.6413 9.2543 16.6315 9.2691 16.6241 9.28558C16.6177 9.29927 16.614 9.31407 16.6094 9.3286C16.6056 9.34061 16.6004 9.35206 16.5976 9.36463C16.5915 9.39228 16.5881 9.42105 16.5881 9.45066V11.0735H16.576V14.7282C16.576 14.7684 16.5688 14.8075 16.5581 14.8455C16.5564 14.8517 16.5549 14.8581 16.5529 14.8642C16.5405 14.9017 16.5241 14.9371 16.5028 14.9698C16.5014 14.9721 16.4999 14.974 16.4985 14.976C16.4512 15.045 16.3853 15.1008 16.3063 15.1327C16.2712 15.1469 16.2346 15.1581 16.1949 15.1617C15.9728 15.1832 15.7815 15.0388 15.7363 14.8413C15.7297 14.8126 15.7259 14.7824 15.7259 14.7517V11.0741H15.7147V9.47468C15.7147 9.43167 15.7066 9.39005 15.6948 9.34983C15.6931 9.34396 15.6919 9.33809 15.6899 9.33251C15.677 9.29452 15.6588 9.25932 15.6364 9.22636C15.6326 9.22078 15.6286 9.21547 15.6245 9.20988C15.6003 9.17776 15.5727 9.14843 15.5407 9.12413C15.5373 9.12134 15.5332 9.11938 15.5298 9.11687C15.4733 9.07637 15.4071 9.04844 15.3333 9.04145C15.2311 9.0314 15.1363 9.05793 15.0582 9.10709C15.0582 9.10709 15.0582 9.10709 15.058 9.10709C15.0352 9.12162 15.0139 9.13754 14.9946 9.15597C14.9917 9.15877 14.9894 9.16184 14.9865 9.16463C14.9704 9.18083 14.9548 9.19731 14.9413 9.21603C14.9358 9.22357 14.9321 9.23195 14.9272 9.23977C14.9177 9.25513 14.9079 9.26994 14.9004 9.28642C14.8941 9.30011 14.8903 9.31519 14.8857 9.32971C14.882 9.34172 14.8768 9.35318 14.8739 9.36547C14.8679 9.39312 14.8644 9.42189 14.8644 9.4515V11.1411C14.8609 11.142 14.8569 11.1422 14.8534 11.1431V14.729C14.8534 14.7693 14.8462 14.8084 14.8356 14.8464C14.8339 14.8525 14.8324 14.8589 14.8304 14.8651C14.818 14.9025 14.8016 14.938 14.7803 14.9707C14.7788 14.9729 14.7774 14.9748 14.776 14.9768C14.7287 15.0458 14.6628 15.1017 14.5838 15.1335C14.5487 15.1477 14.5121 15.1589 14.4724 15.1625C14.2503 15.1841 14.059 15.0396 14.0138 14.8422C14.0072 14.8134 14.0034 14.7832 14.0034 14.7525V11.5554C13.9991 11.5587 13.9954 11.5626 13.991 11.566V9.47468C13.991 9.43167 13.983 9.39005 13.9712 9.34983C13.9694 9.34396 13.9683 9.33809 13.9663 9.33223C13.9533 9.29424 13.9352 9.25905 13.913 9.22609C13.909 9.2205 13.9052 9.21519 13.9012 9.2096C13.877 9.17748 13.8496 9.14843 13.8174 9.12385C13.8139 9.12106 13.8099 9.1191 13.8064 9.11659C13.75 9.07609 13.6837 9.04816 13.61 9.04117C13.5077 9.03112 13.4129 9.05765 13.3352 9.10681C13.3352 9.10681 13.3346 9.10709 13.3346 9.10737C13.3118 9.12162 13.2908 9.13782 13.2715 9.15597C13.2686 9.15877 13.266 9.16212 13.2632 9.16491C13.247 9.18111 13.2315 9.19759 13.2182 9.21631C13.2127 9.22357 13.209 9.23195 13.2041 9.23977C13.1946 9.25513 13.1845 9.26994 13.1773 9.2867C13.171 9.30066 13.1672 9.31547 13.1626 9.33027C13.1589 9.34228 13.1537 9.35346 13.1511 9.36575C13.1451 9.3934 13.1416 9.42217 13.1416 9.45178V15.3743C13.1416 15.3743 13.1419 15.3768 13.1419 15.3779V16.7094C13.1419 17.6695 13.7744 18.4862 14.6567 18.7915C14.9413 18.8901 15.1372 19.1432 15.1274 19.4359L14.6619 33.5549C14.6619 33.9113 14.7956 34.237 15.0159 34.489C15.0269 34.5015 15.0384 34.513 15.0499 34.525C15.0758 34.5526 15.1023 34.5792 15.1303 34.6046C15.1441 34.6172 15.1582 34.6294 15.1723 34.6417C15.2011 34.6663 15.2311 34.6892 15.2619 34.7116C15.2754 34.7213 15.2887 34.7317 15.3025 34.7409C15.3924 34.8015 15.4892 34.8526 15.592 34.8931C15.6078 34.8993 15.624 34.9046 15.6401 34.9102C15.6767 34.9233 15.7138 34.935 15.7519 34.9454C15.7706 34.9504 15.7896 34.9551 15.8086 34.9596C15.8469 34.9685 15.8861 34.9755 15.9255 34.9814C15.9431 34.9839 15.9607 34.9873 15.9785 34.9892C16.0356 34.9956 16.0935 34.9998 16.1525 34.9998C16.2116 34.9998 16.2657 34.9959 16.321 34.9901C16.3236 34.9898 16.3259 34.9892 16.3285 34.9889C17.0685 34.9043 17.6429 34.2951 17.6429 33.5546L17.1774 19.4359C17.1679 19.1429 17.3638 18.8896 17.6486 18.791C18.5315 18.4854 19.1635 17.6689 19.1635 16.7092V13.2863C19.1635 13.2821 19.1626 13.278 19.1626 13.2738L19.1606 13.2735Z" fill="white"/>
</g>
<defs>
<linearGradient id="paint0_linear_339_1288" x1="0" y1="22" x2="44" y2="22" gradientUnits="userSpaceOnUse">
<stop stop-color="#0095D5"/>
<stop offset="1" stop-color="#00133F"/>
</linearGradient>
<clipPath id="clip0_339_1288">
<rect width="18.72" height="26" fill="white" transform="translate(13.1396 9)"/>
</clipPath>
</defs>
</svg>
