<svg width="44" height="44" viewBox="0 0 44 44" fill="none" xmlns="http://www.w3.org/2000/svg">
<rect width="44" height="44" rx="22" fill="url(#paint0_linear_339_1326)"/>
<g clip-path="url(#clip0_339_1326)">
<path d="M35.9853 20.0083L32.5005 11.7147L31.4479 11H13.5476L12.4949 11.7147L9.01018 20.0083L8.93262 20.4238V32.2022C8.93262 32.6454 9.29273 33.0055 9.73594 33.0055H12.5836C13.0268 33.0055 13.3869 32.6454 13.3869 32.2022V29.8255H31.6196V32.2022C31.6196 32.6454 31.9797 33.0055 32.4229 33.0055H35.2706C35.7138 33.0055 36.0739 32.6454 36.0739 32.2022V20.4238L35.9963 20.0083H35.9853ZM14.2346 26.5679C13.0656 26.5679 12.1127 25.6205 12.1127 24.446C12.1127 23.2715 13.06 22.3241 14.2346 22.3241C15.4091 22.3241 16.3564 23.2715 16.3564 24.446C16.3564 25.6205 15.4091 26.5679 14.2346 26.5679ZM30.7664 26.5679C29.5974 26.5679 28.6445 25.6205 28.6445 24.446C28.6445 23.2715 29.5919 22.3241 30.7664 22.3241C31.9409 22.3241 32.8883 23.2715 32.8883 24.446C32.8883 25.6205 31.9409 26.5679 30.7664 26.5679ZM11.531 19.7867C12.2623 17.9307 13.952 14.2078 14.3232 13.2604H30.6833C31.0545 14.2078 32.7443 17.9252 33.4756 19.7867H11.531Z" fill="white"/>
</g>
<defs>
<linearGradient id="paint0_linear_339_1326" x1="0" y1="22" x2="44" y2="22" gradientUnits="userSpaceOnUse">
<stop stop-color="#0095D5"/>
<stop offset="1" stop-color="#00133F"/>
</linearGradient>
<clipPath id="clip0_339_1326">
<rect width="27.1357" height="22" fill="white" transform="translate(8.93262 11)"/>
</clipPath>
</defs>
</svg>
