<svg width="44" height="44" viewBox="0 0 44 44" fill="none" xmlns="http://www.w3.org/2000/svg">
<rect width="44" height="44" rx="22" fill="url(#paint0_linear_339_1347)"/>
<g clip-path="url(#clip0_339_1347)">
<path d="M16.8953 33.2671L11.806 14.2693C11.6665 13.7464 11.9745 13.2061 12.5031 13.0667C13.026 12.9273 13.5663 13.2352 13.7058 13.7639L18.7951 32.7675C18.9345 33.2904 18.6266 33.8307 18.1037 33.9701C17.5808 34.1096 17.0405 33.7958 16.9011 33.273L16.8953 33.2671Z" fill="white"/>
<path d="M32.2275 20.0973C31.2515 21.1372 30.2348 21.5846 29.2471 21.8344C28.2536 22.0842 27.2834 22.119 26.3248 22.1074C25.3662 22.0958 24.4134 22.0319 23.4548 22.0203C22.4962 22.0087 21.526 22.0493 20.5325 22.2933C19.539 22.5432 18.5281 22.9847 17.5521 24.0305C17.1919 22.6826 16.8898 21.5613 16.6109 20.5156C16.3321 19.4698 16.0706 18.4938 15.7918 17.448C15.5129 16.4023 15.2108 15.281 14.8506 13.9331C15.8266 12.8932 16.8433 12.4458 17.831 12.196C18.8244 11.9462 19.7947 11.9172 20.7533 11.923C21.7119 11.9346 22.6589 11.9927 23.6175 12.0043C24.5761 12.0159 25.5463 11.9811 26.5398 11.7313C27.5274 11.4814 28.5441 11.0399 29.5202 9.99414C29.8804 11.342 30.1825 12.4633 30.4613 13.509C30.7402 14.5548 31.0016 15.5308 31.2863 16.5766C31.5652 17.6223 31.8673 18.7494 32.2275 20.0915V20.0973Z" fill="white"/>
</g>
<defs>
<linearGradient id="paint0_linear_339_1347" x1="0" y1="22" x2="44" y2="22" gradientUnits="userSpaceOnUse">
<stop stop-color="#0095D5"/>
<stop offset="1" stop-color="#00133F"/>
</linearGradient>
<clipPath id="clip0_339_1347">
<rect width="20.4561" height="24" fill="white" transform="translate(11.7715 10)"/>
</clipPath>
</defs>
</svg>
