<svg width="44" height="44" viewBox="0 0 44 44" fill="none" xmlns="http://www.w3.org/2000/svg">
<rect width="44" height="44" rx="22" fill="url(#paint0_linear_339_1294)"/>
<g clip-path="url(#clip0_339_1294)">
<path d="M31.8447 16.831H25.7916L22.4733 14.5273C22.4733 14.5092 22.4783 14.4938 22.4783 14.4758V13.5105C23.0769 13.0807 23.4375 12.5839 23.5577 12.0279C23.6804 11.4513 23.5502 10.9237 23.1896 10.5478C22.7538 10.0922 21.9975 9.8992 21.2587 10.0511C20.7879 10.1489 20.3872 10.4269 20.1593 10.8181C20.0165 11.0626 20.0942 11.3793 20.3321 11.5234C20.57 11.6701 20.878 11.5903 21.0183 11.3458C21.0984 11.2068 21.2637 11.0987 21.4565 11.0601C21.8598 10.9777 22.278 11.0626 22.4758 11.2686C22.5209 11.3149 22.6536 11.4539 22.581 11.8065C22.5084 12.1489 22.2204 12.4783 21.7195 12.7898C21.5692 12.8825 21.4791 13.0498 21.4791 13.23V14.4732C21.4791 14.5015 21.4841 14.5298 21.4866 14.5556L18.2134 16.8284H12.1578C12.0701 16.8284 12 16.9005 12 16.9906V22.136C12 22.2261 12.0701 22.2982 12.1578 22.2982H14.8174C14.9051 22.2982 14.9752 22.3702 14.9752 22.4603V33.8374C14.9752 33.9275 15.0453 33.9996 15.133 33.9996H28.8695C28.9572 33.9996 29.0273 33.9275 29.0273 33.8374V22.4603C29.0273 22.3702 29.0974 22.2982 29.1851 22.2982H31.8447C31.9324 22.2982 32.0025 22.2261 32.0025 22.136V16.9906C32.0025 16.9005 31.9324 16.8284 31.8447 16.8284V16.831ZM22.0025 15.441L25.2807 17.719C24.8976 19.2145 23.5778 20.3213 22.0025 20.3213C20.4272 20.3213 19.1049 19.2171 18.7243 17.719L22.0025 15.441Z" fill="white"/>
</g>
<defs>
<linearGradient id="paint0_linear_339_1294" x1="0" y1="22" x2="44" y2="22" gradientUnits="userSpaceOnUse">
<stop stop-color="#0095D5"/>
<stop offset="1" stop-color="#00133F"/>
</linearGradient>
<clipPath id="clip0_339_1294">
<rect width="20" height="24" fill="white" transform="translate(12 10)"/>
</clipPath>
</defs>
</svg>
