<svg width="44" height="44" viewBox="0 0 44 44" fill="none" xmlns="http://www.w3.org/2000/svg">
<rect width="44" height="44" rx="22" fill="url(#paint0_linear_339_1283)"/>
<g clip-path="url(#clip0_339_1283)">
<path d="M33.505 24.4C33.0625 23.71 32.3425 23.2225 31.5325 23.0575C31.5325 23.0575 31.5325 23.0575 31.525 23.0575C32.155 21.805 32.485 20.425 32.485 19C32.485 14.035 28.45 10 23.485 10C18.52 10 14.485 14.035 14.485 19C14.485 19.99 14.665 20.965 14.98 21.895H10.75C10.3375 21.895 10 22.2325 10 22.645V33.25C10 33.6625 10.3375 34 10.75 34H15.7C16.0975 34 16.42 33.685 16.4425 33.295H25.57C26.4025 33.2725 27.205 33.01 27.9325 32.5L32.7625 28.6C34.0525 27.7075 34.3975 25.78 33.505 24.3925V24.4ZM14.95 32.5H11.5V23.395H14.95V32.5ZM22.39 15.4825H22.87V14.875C22.87 14.4625 23.2075 14.125 23.62 14.125C24.0325 14.125 24.37 14.4625 24.37 14.875V15.4825H25.6225C26.035 15.4825 26.3725 15.82 26.3725 16.2325C26.3725 16.645 26.035 16.9825 25.6225 16.9825H22.3825C21.85 16.9825 21.415 17.4175 21.415 17.95C21.415 18.4825 21.85 18.9175 22.3825 18.9175H24.37C25.735 18.9175 26.8375 20.0275 26.8375 21.385C26.8375 21.7975 26.5 22.135 26.0875 22.135C25.675 22.135 25.3375 21.7975 25.3375 21.385C25.3375 20.8525 24.9025 20.4175 24.37 20.4175H22.3825C21.0175 20.4175 19.915 19.3075 19.915 17.95C19.915 16.5925 21.025 15.4825 22.3825 15.4825H22.39ZM31.8625 27.4L27.0325 31.3C26.5825 31.6075 26.065 31.78 25.5475 31.795H16.45V25.7125C16.45 25.435 17.71 23.6425 19.6075 23.6425H24.2125C24.8875 23.65 25.5025 24.2125 25.87 24.9025C26.05 25.2475 25.945 25.6825 25.615 25.8925L25.33 26.0725C24.8575 26.4025 24.3025 26.575 23.725 26.575H21.3775C20.965 26.575 20.6275 26.9125 20.6275 27.325C20.6275 27.7375 20.965 28.075 21.3775 28.075H23.725C24.61 28.075 25.4575 27.8125 26.1625 27.325L30.265 24.7225C30.5425 24.535 30.8875 24.4675 31.24 24.535C31.6525 24.6175 32.02 24.865 32.245 25.2175C32.695 25.915 32.5375 26.9425 31.87 27.4075L31.8625 27.4Z" fill="white"/>
</g>
<defs>
<linearGradient id="paint0_linear_339_1283" x1="0" y1="22" x2="44" y2="22" gradientUnits="userSpaceOnUse">
<stop stop-color="#0095D5"/>
<stop offset="1" stop-color="#00133F"/>
</linearGradient>
<clipPath id="clip0_339_1283">
<rect width="24" height="24" fill="white" transform="translate(10 10)"/>
</clipPath>
</defs>
</svg>
