<svg width="44" height="44" viewBox="0 0 44 44" fill="none" xmlns="http://www.w3.org/2000/svg">
<rect width="44" height="44" rx="22" fill="url(#paint0_linear_339_1309)"/>
<g clip-path="url(#clip0_339_1309)">
<path d="M33.8575 13.5016C33.8575 12.2729 32.8987 11.2714 31.7267 11.2714H28.8856V10.7103C28.8856 10.3196 28.566 10 28.1754 10C27.7847 10 27.4651 10.3196 27.4651 10.7103V11.2714H17.5213V10.7103C17.5213 10.3196 17.2017 10 16.8111 10C16.4204 10 16.1008 10.3196 16.1008 10.7103V11.2714H13.2597C12.0878 11.2714 11.1289 12.2729 11.1289 13.5016V31.7626C11.1289 32.9914 12.0878 33.9929 13.2597 33.9929H23.2035C23.5941 33.9929 23.9138 33.6733 23.9138 33.2826C23.9138 32.892 23.5941 32.5724 23.2035 32.5724H13.2597C12.8691 32.5724 12.5494 32.2101 12.5494 31.7626V18.3741H32.4441V23.5519C32.4512 23.9426 32.7708 24.2622 33.1615 24.2622C33.5521 24.2622 33.8717 23.9426 33.8717 23.5519L33.8575 13.5087V13.5016Z" fill="white"/>
<path d="M32.2736 27.3659L28.0333 31.9614L25.4764 29.4754C25.1922 29.1984 24.7448 29.2055 24.4749 29.4896C24.1979 29.7737 24.205 30.2212 24.4891 30.4911L27.5645 33.4885C27.6995 33.6163 27.8771 33.6873 28.0617 33.6873H28.083C28.2748 33.6873 28.4595 33.6021 28.5873 33.46L33.3248 28.3319C33.5876 28.0407 33.5734 27.5932 33.2822 27.3304C32.991 27.0605 32.5435 27.0818 32.2807 27.373L32.2736 27.3659Z" fill="white"/>
</g>
<defs>
<linearGradient id="paint0_linear_339_1309" x1="0" y1="22" x2="44" y2="22" gradientUnits="userSpaceOnUse">
<stop stop-color="#0095D5"/>
<stop offset="1" stop-color="#00133F"/>
</linearGradient>
<clipPath id="clip0_339_1309">
<rect width="22.7428" height="24" fill="white" transform="translate(11.1289 10)"/>
</clipPath>
</defs>
</svg>
