<svg width="62" height="90" viewBox="0 0 62 90" fill="none" xmlns="http://www.w3.org/2000/svg">
<g clip-path="url(#clip0_339_1258)">
<path d="M42.4993 74.6701H19.4549C19.4549 74.6701 17.9299 73.987 17.9299 73.1331C17.9299 65.4481 14.8799 58.1046 9.11875 52.2982C2.51042 45.4671 -0.53958 35.9035 0.815976 26.1692C2.84931 12.6777 14.0326 1.74791 27.4188 0.210909C36.2299 -0.813759 44.7021 1.91869 51.3104 7.89592C57.7493 13.7024 61.4771 22.0705 61.4771 30.7802C61.4771 38.9775 58.2576 46.6625 52.4965 52.469C47.0743 57.9339 44.0243 65.1065 44.0243 72.45V73.1331C44.0243 73.1331 43.3465 74.6701 42.4993 74.6701ZM20.8104 71.5961H40.9743C41.1438 63.7403 44.5326 56.2261 50.2938 50.4196C55.5465 45.1255 58.4271 38.2944 58.4271 30.7802C58.4271 22.9244 55.0382 15.4101 49.2771 10.116C43.3465 4.82191 35.7215 2.26024 27.7576 3.28491C15.7271 4.65114 5.56042 14.3855 3.86598 26.5107C2.51042 35.2204 5.39097 43.9301 11.491 50.0781C17.4215 56.0553 20.641 63.7403 20.9799 71.4253L20.8104 71.5961Z" fill="#A4A4A4"/>
<path d="M53.3434 33.8546C53.3434 33.8546 51.8184 33.1714 51.8184 32.3176C51.8184 31.1221 51.8184 29.9267 51.4795 28.7312C51.4795 27.8773 51.8184 27.1942 52.6656 27.0234C53.5128 27.0234 54.1906 27.365 54.36 28.2189C54.5295 29.5851 54.6989 30.9513 54.6989 32.3176C54.6989 33.1714 54.0212 33.8546 53.1739 33.8546H53.3434Z" fill="#A4A4A4"/>
<path d="M51.6488 25.1455C51.6488 25.1455 50.4627 24.8039 50.2933 24.2916C49.6155 22.7546 48.9377 21.3884 48.0905 20.1929C47.5822 19.5098 47.7516 18.4852 48.4294 18.1436C49.1072 17.6313 50.1238 17.802 50.4627 18.4852C51.4794 20.0222 52.3266 21.5592 53.0044 23.2669C53.3433 24.1208 53.0044 24.9747 52.1572 25.3163C51.9877 25.3163 51.8183 25.3163 51.6488 25.3163V25.1455Z" fill="#A4A4A4"/>
<path d="M45.888 16.9476C45.888 16.9476 45.2102 16.9476 44.8713 16.606C44.0241 15.7521 43.0074 15.069 42.1602 14.5567C41.4824 14.0443 41.313 13.1904 41.6519 12.5073C41.9908 11.8242 43.0074 11.6534 43.6852 11.995C44.8713 12.6781 45.888 13.532 46.9046 14.3859C47.5824 14.8982 47.5824 15.9229 46.9046 16.606C46.5658 16.9476 46.2269 17.1183 45.7185 17.1183L45.888 16.9476Z" fill="#A4A4A4"/>
<path d="M40.636 90.0397H21.3193C17.0832 90.0397 13.6943 86.6242 13.6943 82.3547V75.182C13.6943 73.1327 15.2193 71.5957 17.2527 71.5957H44.7027C46.736 71.5957 48.261 73.1327 48.261 75.182V82.3547C48.261 86.6242 44.8721 90.0397 40.636 90.0397ZM17.2527 74.6697C17.2527 74.6697 16.7443 74.8405 16.7443 75.182V82.3547C16.7443 84.9164 18.7777 86.9657 21.3193 86.9657H40.636C43.1777 86.9657 45.211 84.9164 45.211 82.3547V75.182C45.211 75.182 45.0416 74.6697 44.7027 74.6697H17.2527Z" fill="#A4A4A4"/>
<path d="M33.3499 82.3553H15.2193C15.2193 82.3553 13.6943 81.6721 13.6943 80.8183C13.6943 79.9644 14.3721 79.2812 15.2193 79.2812H33.3499C33.3499 79.2812 34.8749 79.9644 34.8749 80.8183C34.8749 81.6721 34.1971 82.3553 33.3499 82.3553Z" fill="#A4A4A4"/>
<path d="M44.3636 64.0818H17.5914C17.5914 64.0818 16.0664 63.3987 16.0664 62.5448C16.0664 61.6909 16.7442 61.0078 17.5914 61.0078H44.3636C44.3636 61.0078 45.8886 61.6909 45.8886 62.5448C45.8886 63.3987 45.2108 64.0818 44.3636 64.0818Z" fill="#A4A4A4"/>
<path d="M30.977 23.6085C26.9104 23.6085 23.5215 20.193 23.5215 16.0943C23.5215 11.9956 26.9104 8.58008 30.977 8.58008C35.0437 8.58008 38.4326 11.9956 38.4326 16.0943C38.4326 20.193 35.0437 23.6085 30.977 23.6085ZM30.977 11.4833C28.4354 11.4833 26.402 13.5326 26.402 16.0943C26.402 18.656 28.4354 20.7053 30.977 20.7053C33.5187 20.7053 35.552 18.656 35.552 16.0943C35.552 13.5326 33.5187 11.4833 30.977 11.4833Z" fill="#0095D5"/>
<path d="M44.0247 48.2004C44.0247 48.2004 42.4997 47.5173 42.4997 46.6634V37.0998C42.4997 33.855 40.4664 30.9518 37.5858 29.9271C37.2469 29.9271 37.0775 29.9271 36.9081 29.9271C33.5192 32.8304 28.4358 32.8304 25.0469 29.9271C24.8775 29.9271 24.5386 29.7563 24.3692 29.9271C21.4886 31.1226 19.4553 34.0258 19.4553 37.0998V46.6634C19.4553 46.6634 18.7775 48.2004 17.9303 48.2004C17.0831 48.2004 16.4053 47.5173 16.4053 46.6634V37.0998C16.4053 32.6596 19.1164 28.5609 23.1831 27.0239C24.5386 26.5116 25.8942 26.6823 26.9108 27.707C29.1136 29.5856 32.6719 29.5856 34.8747 27.707C35.8914 26.8531 37.4164 26.5116 38.6025 27.0239C42.6692 28.5609 45.3803 32.6596 45.3803 37.0998V46.6634C45.3803 46.6634 44.7025 48.2004 43.8553 48.2004H44.0247Z" fill="#0095D5"/>
<path d="M25.2164 48.2007C25.2164 48.2007 23.6914 47.5175 23.6914 46.6637V39.3202C23.6914 39.3202 24.3692 37.7832 25.2164 37.7832C26.0636 37.7832 26.7414 38.4663 26.7414 39.3202V46.6637C26.7414 46.6637 26.0636 48.2007 25.2164 48.2007Z" fill="#0095D5"/>
<path d="M36.7389 48.2007C36.7389 48.2007 35.2139 47.5175 35.2139 46.6637V39.3202C35.2139 39.3202 35.8916 37.7832 36.7389 37.7832C37.5861 37.7832 38.2639 38.4663 38.2639 39.3202V46.6637C38.2639 46.6637 37.5861 48.2007 36.7389 48.2007Z" fill="#0095D5"/>
</g>
<defs>
<clipPath id="clip0_339_1258">
<rect width="61" height="90" fill="white" transform="translate(0.5)"/>
</clipPath>
</defs>
</svg>
