<svg width="44" height="44" viewBox="0 0 44 44" fill="none" xmlns="http://www.w3.org/2000/svg">
<rect width="44" height="44" rx="22" fill="url(#paint0_linear_339_1277)"/>
<g clip-path="url(#clip0_339_1277)">
<path d="M16.8179 14.8078C16.9979 15.2578 17.4404 15.5578 17.9279 15.5578H26.0429C26.5304 15.5578 26.9729 15.2653 27.1529 14.8078L28.6829 11.0353C28.7729 10.8028 28.7504 10.5403 28.6079 10.3378C28.4654 10.1278 28.2329 10.0078 27.9854 10.0078H15.9854C15.7379 10.0078 15.5054 10.1278 15.3629 10.3378C15.2204 10.5478 15.1979 10.8103 15.2879 11.0353L16.8179 14.8078Z" fill="white"/>
<path d="M29.5525 18.2716C28.6975 17.4841 27.565 17.0566 26.4025 17.0566H17.53C16.3525 17.0566 15.2125 17.4916 14.3575 18.2941C11.8825 20.6041 10 23.8441 10 27.1891C10 33.9991 16.0975 33.9991 22 33.9991C27.9025 33.9991 34 33.9991 34 27.1891C34 23.8441 32.0725 20.5891 29.5525 18.2716ZM22.8775 29.1166H22.87V29.6866C22.87 30.0991 22.5325 30.4366 22.12 30.4366C21.7075 30.4366 21.37 30.0991 21.37 29.6866V29.1166H19.645C19.2325 29.1166 18.895 28.7791 18.895 28.3666C18.895 27.9541 19.2325 27.6166 19.645 27.6166H22.885C23.4175 27.6166 23.8525 27.1816 23.8525 26.6491C23.8525 26.1166 23.4175 25.6816 22.885 25.6816H20.8975C19.5325 25.6816 18.43 24.5716 18.43 23.2141C18.43 21.8566 19.54 20.7466 20.8975 20.7466H21.3775V20.1391C21.3775 19.7266 21.715 19.3891 22.1275 19.3891C22.54 19.3891 22.8775 19.7266 22.8775 20.1391V20.7466H24.13C24.5425 20.7466 24.88 21.0841 24.88 21.4966C24.88 21.9091 24.5425 22.2466 24.13 22.2466H20.89C20.3575 22.2466 19.9225 22.6816 19.9225 23.2141C19.9225 23.7466 20.3575 24.1816 20.89 24.1816H22.8775C24.2425 24.1816 25.345 25.2916 25.345 26.6491C25.345 28.0066 24.235 29.1166 22.8775 29.1166Z" fill="white"/>
</g>
<defs>
<linearGradient id="paint0_linear_339_1277" x1="0" y1="22" x2="44" y2="22" gradientUnits="userSpaceOnUse">
<stop stop-color="#0095D5"/>
<stop offset="1" stop-color="#00133F"/>
</linearGradient>
<clipPath id="clip0_339_1277">
<rect width="24" height="24" fill="white" transform="translate(10 10)"/>
</clipPath>
</defs>
</svg>
