<svg width="44" height="44" viewBox="0 0 44 44" fill="none" xmlns="http://www.w3.org/2000/svg">
<rect width="44" height="44" rx="22" fill="url(#paint0_linear_339_1317)"/>
<g clip-path="url(#clip0_339_1317)">
<path d="M11.665 31.7844C11.665 33.0024 12.6617 33.9991 13.8797 33.9991H21.2621V22.9551H11.665V31.7844Z" fill="white"/>
<path d="M33.0737 16.2819H25.935C27.5222 15.2041 28.5557 13.4914 28.5557 11.5646C28.5557 11.1586 28.2235 10.8264 27.8175 10.8264C27.4115 10.8264 27.0793 11.1586 27.0793 11.5646C27.0793 13.4471 25.7283 15.0491 23.8384 15.6914C24.5324 14.8572 25.2263 13.7719 25.2263 12.7679C25.2263 11.7639 24.8055 9.99219 22.0076 9.99219C19.2097 9.99219 18.7889 11.7344 18.7889 12.7679C18.7889 13.8015 19.4828 14.8572 20.1768 15.6914C18.2795 15.0491 16.9359 13.4397 16.9359 11.5646C16.9359 11.1586 16.6037 10.8264 16.1977 10.8264C15.7917 10.8264 15.4595 11.1586 15.4595 11.5646C15.4595 13.4914 16.493 15.2041 18.0802 16.2819H10.9267C10.5207 16.2819 10.1885 16.6142 10.1885 17.0202V20.7409C10.1885 21.1469 10.5207 21.4791 10.9267 21.4791H21.262V17.441C21.5056 17.4631 21.7492 17.4779 22.0002 17.4779C22.2512 17.4779 22.4948 17.4631 22.7385 17.441V21.4791H33.0737C33.4798 21.4791 33.812 21.1469 33.812 20.7409V17.0202C33.812 16.6142 33.4798 16.2819 33.0737 16.2819ZM22.0002 15.5216C21.2398 14.7538 20.2506 13.5505 20.2506 12.7753C20.2506 12.1183 20.3835 11.476 21.9928 11.476C23.6022 11.476 23.7351 12.1183 23.7351 12.7753C23.7351 13.4988 22.827 14.68 21.9928 15.5216H22.0002Z" fill="white"/>
<path d="M22.7383 33.9991H30.1206C31.3387 33.9991 32.3353 33.0024 32.3353 31.7844V22.9551H22.7383V33.9991Z" fill="white"/>
</g>
<defs>
<linearGradient id="paint0_linear_339_1317" x1="0" y1="22" x2="44" y2="22" gradientUnits="userSpaceOnUse">
<stop stop-color="#0095D5"/>
<stop offset="1" stop-color="#00133F"/>
</linearGradient>
<clipPath id="clip0_339_1317">
<rect width="23.6235" height="24" fill="white" transform="translate(10.1885 10)"/>
</clipPath>
</defs>
</svg>
