<svg width="44" height="44" viewBox="0 0 44 44" fill="none" xmlns="http://www.w3.org/2000/svg">
<rect width="44" height="44" rx="22" fill="url(#paint0_linear_339_1301)"/>
<g clip-path="url(#clip0_339_1301)">
<path d="M19.1654 13.645C19.3379 14.08 19.7654 14.365 20.2304 14.365H26.7779C27.2429 14.365 27.6629 14.08 27.8429 13.645L28.9004 11.0275C28.9904 10.795 28.9679 10.5325 28.8254 10.33C28.6829 10.12 28.4504 10 28.2029 10H18.7979C18.5504 10 18.3179 10.12 18.1754 10.33C18.0329 10.54 18.0104 10.8025 18.1004 11.0275L19.1579 13.645H19.1654Z" fill="white"/>
<path d="M33.505 24.3999C33.37 24.1974 33.2125 24.0174 33.0325 23.8449C33.055 23.7774 33.0775 23.7099 33.0775 23.6274C33.0775 21.6024 32.1925 19.6224 30.8875 17.9799C29.8225 16.6299 28.1875 15.8574 26.47 15.8574H20.485C18.835 15.8574 17.2375 16.5474 16.195 17.8299C15.265 18.9699 14.5225 20.3199 14.1625 21.8199C14.1625 21.8424 14.1625 21.8724 14.1625 21.8949H10.75C10.3375 21.8949 10 22.2324 10 22.6449V33.2499C10 33.6624 10.3375 33.9999 10.75 33.9999H15.7C16.0975 33.9999 16.42 33.6849 16.4425 33.2949H25.57C26.4025 33.2724 27.205 33.0099 27.9325 32.4999L32.7625 28.5999C34.0525 27.7074 34.39 25.7799 33.505 24.3999ZM14.95 32.4999H11.5V23.3949H14.95V32.4999ZM31.8625 27.3999L27.0325 31.2999C26.5825 31.6074 26.065 31.7799 25.5475 31.7949H16.45V25.7124C16.54 25.6449 16.615 25.5699 16.6675 25.4724C16.675 25.4574 17.71 23.6424 19.6075 23.6424H24.2125C25.0975 23.6574 25.8775 24.6024 26.1325 25.5624L25.3375 26.0724C24.865 26.4024 24.31 26.5749 23.7325 26.5749H21.385C20.9725 26.5749 20.635 26.9124 20.635 27.3249C20.635 27.7374 20.9725 28.0749 21.385 28.0749H23.7325C24.6175 28.0749 25.465 27.8124 26.17 27.3249L30.2725 24.7224C30.55 24.5349 30.895 24.4674 31.2475 24.5349C31.66 24.6174 32.0275 24.8649 32.2525 25.2174C32.7025 25.9149 32.545 26.9424 31.8775 27.4074L31.8625 27.3999Z" fill="white"/>
</g>
<defs>
<linearGradient id="paint0_linear_339_1301" x1="0" y1="22" x2="44" y2="22" gradientUnits="userSpaceOnUse">
<stop stop-color="#0095D5"/>
<stop offset="1" stop-color="#00133F"/>
</linearGradient>
<clipPath id="clip0_339_1301">
<rect width="24" height="24" fill="white" transform="translate(10 10)"/>
</clipPath>
</defs>
</svg>
