<svg width="100" height="100" viewBox="0 0 100 100" fill="none" xmlns="http://www.w3.org/2000/svg">
<rect width="100" height="100" rx="50" fill="white" fill-opacity="0.3"/>
<g clip-path="url(#clip0_435_157)">
<path d="M50.0041 59.9141L40.6593 50.5693C38.1628 48.0728 36.7881 44.7499 36.7881 41.2245C36.7881 37.6991 38.1628 34.3761 40.6593 31.8796C43.1473 29.3747 46.4703 28 50.0041 28C53.5379 28 56.8525 29.3747 59.3489 31.8712C61.8454 34.3676 63.2201 37.6906 63.2201 41.216C63.2201 44.7414 61.8454 48.0644 59.3489 50.5609L50.0041 59.9057V59.9141ZM50.0041 30.1085C47.0354 30.1085 44.2437 31.2639 42.1437 33.364C40.0436 35.4641 38.8881 38.2557 38.8881 41.2245C38.8881 44.1932 40.0436 46.9849 42.1437 49.0849L50.0041 56.9454L57.8646 49.0849C59.9646 46.9849 61.1201 44.1932 61.1201 41.2245C61.1201 38.2557 59.9646 35.4641 57.8646 33.364C55.7645 31.2639 52.9729 30.1085 50.0041 30.1085Z" fill="white"/>
<path d="M56.6585 47.1792H43.3413V38.3067L49.9957 33.1113L56.6501 38.3067V47.1792H56.6585ZM45.4498 45.0707H54.5501V39.3356L50.0041 35.7849L45.4582 39.3356V45.0707H45.4498Z" fill="white"/>
<path d="M51.0582 40.626H48.9497V46.1249H51.0582V40.626Z" fill="white"/>
<path d="M72.8012 72.0005L60.4539 67.463L50.0042 71.3089L39.5461 67.463L27.1987 72.0005L35.7002 51.4385L37.6568 52.2397L30.9856 68.3654L39.5461 65.2196L50.0042 69.0655L60.4539 65.2196L69.0143 68.3654L62.3515 52.2397L64.2997 51.4385L72.8012 72.0005Z" fill="white"/>
<path d="M51.0582 62.959H48.9497V70.1869H51.0582V62.959Z" fill="white"/>
</g>
<defs>
<clipPath id="clip0_435_157">
<rect width="45.6025" height="44" fill="white" transform="translate(27.1987 28)"/>
</clipPath>
</defs>
</svg>
