<svg width="100" height="100" viewBox="0 0 100 100" fill="none" xmlns="http://www.w3.org/2000/svg">
<rect width="100" height="100" rx="50" fill="white" fill-opacity="0.3"/>
<g clip-path="url(#clip0_432_42)">
<path d="M28 70.4286H72V72H28V70.4286ZM31.1429 29.5714H45.2857V68.8571H46.8571V29.5714H54.7143V42.1429H56.2857V28H29.5714V68.8571H31.1429V29.5714ZM70.4286 68.8571V43.7143H50V68.8571H51.5714V45.2857H62.5714V68.8571H64.1429V45.2857H68.8571V68.8571H70.4286ZM43.7143 32.7143H32.7143V34.2857H43.7143V32.7143ZM43.7143 37.4286H32.7143V39H43.7143V37.4286ZM43.7143 42.1429H32.7143V43.7143H43.7143V42.1429ZM43.7143 46.8571H32.7143V48.4286H43.7143V46.8571ZM43.7143 51.5714H32.7143V53.1429H43.7143V51.5714ZM43.7143 56.2857H32.7143V57.8571H43.7143V56.2857ZM32.7143 62.5714H43.7143V61H32.7143V62.5714ZM54.7143 48.4286H53.1429V51.5714H54.7143V48.4286ZM61 48.4286H59.4286V51.5714H61V48.4286ZM57.8571 48.4286H56.2857V51.5714H57.8571V48.4286ZM54.7143 54.7143H53.1429V57.8571H54.7143V54.7143ZM61 54.7143H59.4286V57.8571H61V54.7143ZM57.8571 54.7143H56.2857V57.8571H57.8571V54.7143ZM53.1429 64.1429H54.7143V61H53.1429V64.1429ZM59.4286 64.1429H61V61H59.4286V64.1429ZM56.2857 64.1429H57.8571V61H56.2857V64.1429Z" fill="white"/>
</g>
<defs>
<clipPath id="clip0_432_42">
<rect width="44" height="44" fill="white" transform="translate(28 28)"/>
</clipPath>
</defs>
</svg>
