<svg width="100" height="100" viewBox="0 0 100 100" fill="none" xmlns="http://www.w3.org/2000/svg">
<rect width="100" height="100" rx="50" fill="white" fill-opacity="0.3"/>
<g clip-path="url(#clip0_432_66)">
<path d="M71.36 71.9996H33.1029C33.1029 71.9996 32.3428 71.6618 32.3428 71.2396C32.3428 70.8173 32.6806 70.4795 33.1029 70.4795H71.36C71.36 70.4795 72.1201 70.8173 72.1201 71.2396C72.1201 71.6618 71.7823 71.9996 71.36 71.9996Z" fill="white"/>
<path d="M55.6518 71.9998H43.4061C43.4061 71.9998 42.646 71.662 42.646 71.2397V65.5814C42.646 65.5814 42.9838 64.8213 43.4061 64.8213H55.6518C55.6518 64.8213 56.4118 65.1591 56.4118 65.5814V71.2397C56.4118 71.2397 56.074 71.9998 55.6518 71.9998ZM44.1661 70.4796H54.8917V66.257H44.1661V70.4796Z" fill="white"/>
<path d="M47.3753 53.5888H40.1968C40.1968 53.5888 39.4368 53.251 39.4368 52.8287V47.6771C39.4368 47.6771 39.7746 46.917 40.1968 46.917H47.3753C47.3753 46.917 48.1354 47.2548 48.1354 47.6771V52.8287C48.1354 52.8287 47.7976 53.5888 47.3753 53.5888ZM40.8725 52.0686H46.6153V48.3527H40.8725V52.0686Z" fill="white"/>
<path d="M47.3753 62.1191H40.1968C40.1968 62.1191 39.4368 61.7812 39.4368 61.359V56.2073C39.4368 56.2073 39.7746 55.4473 40.1968 55.4473H47.3753C47.3753 55.4473 48.1354 55.7851 48.1354 56.2073V61.359C48.1354 61.359 47.7976 62.1191 47.3753 62.1191ZM40.8725 60.5989H46.6153V56.883H40.8725V60.5989Z" fill="white"/>
<path d="M58.9454 62.1191H51.7669C51.7669 62.1191 51.0068 61.7812 51.0068 61.359V56.2073C51.0068 56.2073 51.3446 55.4473 51.7669 55.4473H58.9454C58.9454 55.4473 59.7055 55.7851 59.7055 56.2073V61.359C59.7055 61.359 59.3677 62.1191 58.9454 62.1191ZM52.4425 60.5989H58.1853V56.883H52.4425V60.5989Z" fill="white"/>
<path d="M49.5711 71.9998C49.5711 71.9998 48.811 71.662 48.811 71.2397V65.5814C48.811 65.5814 49.1488 64.8213 49.5711 64.8213C49.9934 64.8213 50.3312 65.1591 50.3312 65.5814V71.2397C50.3312 71.2397 49.9934 71.9998 49.5711 71.9998Z" fill="white"/>
<path d="M51.6824 40.1612H29.6402C29.6402 40.1612 28.9646 39.9078 28.9646 39.57C28.9646 39.2322 28.9646 38.8944 29.3024 38.7255L49.2333 28.0844C49.2333 28.0844 49.6556 28 49.9089 28.0844C50.1623 28.1689 50.2467 28.3378 50.3312 28.5911L52.4425 39.3167C52.4425 39.3167 52.4425 39.7389 52.2736 39.9078C52.1047 40.0767 51.9358 40.1612 51.6824 40.1612ZM32.5116 38.641H50.7535L48.98 29.7735L32.5961 38.7255L32.5116 38.641Z" fill="white"/>
<path d="M51.6825 44.4684H33.1029C33.1029 44.4684 32.3428 44.1306 32.3428 43.7083V39.4857C32.3428 39.4857 32.6806 38.7256 33.1029 38.7256H51.6825C51.6825 38.7256 52.4426 39.0634 52.4426 39.4857V43.7083C52.4426 43.7083 52.1048 44.4684 51.6825 44.4684ZM33.8629 42.9482H50.9224V40.1613H33.8629V42.9482Z" fill="white"/>
<path d="M64.6036 72.0001H34.4539C34.4539 72.0001 33.6938 71.6623 33.6938 71.24V43.7083C33.6938 43.7083 34.0317 42.9482 34.4539 42.9482H51.6823C51.6823 42.9482 52.4424 43.2861 52.4424 43.7083V52.0692H64.6036C64.6036 52.0692 65.3637 52.407 65.3637 52.8292V71.24C65.3637 71.24 65.0259 72.0001 64.6036 72.0001ZM35.214 70.4799H63.928V53.5893H51.7668C51.7668 53.5893 51.0067 53.2515 51.0067 52.8292V44.4684H35.214V70.4799Z" fill="white"/>
<path d="M69.5865 72C69.5865 72 68.8264 71.6622 68.8264 71.2399V28.7601C68.8264 28.7601 69.1642 28 69.5865 28C70.0088 28 70.3466 28.3378 70.3466 28.7601V71.2399C70.3466 71.2399 70.0088 72 69.5865 72Z" fill="white"/>
<path d="M64.6038 32.1382C64.6038 32.1382 63.8438 31.8004 63.8438 31.3781V28.7601C63.8438 28.7601 64.1816 28 64.6038 28C65.0261 28 65.3639 28.3378 65.3639 28.7601V31.3781C65.3639 31.3781 65.0261 32.1382 64.6038 32.1382Z" fill="white"/>
<path d="M64.6038 42.3565C64.6038 42.3565 63.8438 42.0187 63.8438 41.5965V35.178C63.8438 35.178 64.1816 34.418 64.6038 34.418C65.0261 34.418 65.3639 34.7558 65.3639 35.178V41.5965C65.3639 41.5965 65.0261 42.3565 64.6038 42.3565Z" fill="white"/>
<path d="M64.6038 53.5892C64.6038 53.5892 63.8438 53.2514 63.8438 52.8291V45.3128C63.8438 45.3128 64.1816 44.5527 64.6038 44.5527C65.0261 44.5527 65.3639 44.8905 65.3639 45.3128V52.8291C65.3639 52.8291 65.0261 53.5892 64.6038 53.5892Z" fill="white"/>
<path d="M58.1854 32.1382C58.1854 32.1382 57.4253 31.8004 57.4253 31.3781V28.7601C57.4253 28.7601 57.7631 28 58.1854 28C58.6076 28 58.9454 28.3378 58.9454 28.7601V31.3781C58.9454 31.3781 58.6076 32.1382 58.1854 32.1382Z" fill="white"/>
<path d="M58.1854 42.3565C58.1854 42.3565 57.4253 42.0187 57.4253 41.5965V35.178C57.4253 35.178 57.7631 34.418 58.1854 34.418C58.6076 34.418 58.9454 34.7558 58.9454 35.178V41.5965C58.9454 41.5965 58.6076 42.3565 58.1854 42.3565Z" fill="white"/>
<path d="M58.1854 53.5892C58.1854 53.5892 57.4253 53.2514 57.4253 52.8291V45.3128C57.4253 45.3128 57.7631 44.5527 58.1854 44.5527C58.6076 44.5527 58.9454 44.8905 58.9454 45.3128V52.8291C58.9454 52.8291 58.6076 53.5892 58.1854 53.5892Z" fill="white"/>
<path d="M69.5864 46.073C69.5864 46.073 68.8263 45.7352 68.8263 45.3129V42.2726H56.3273V44.5528H66.4616C66.4616 44.5528 67.2217 44.8907 67.2217 45.3129C67.2217 45.7352 66.8839 46.073 66.4616 46.073H55.5672C55.5672 46.073 54.8071 45.7352 54.8071 45.3129V41.597C54.8071 41.597 55.1449 40.8369 55.5672 40.8369H69.5019C69.5019 40.8369 70.262 41.1747 70.262 41.597V45.3129C70.262 45.3129 69.9242 46.073 69.5019 46.073H69.5864Z" fill="white"/>
<path d="M69.5864 35.8542H55.6517C55.6517 35.8542 54.8916 35.5164 54.8916 35.0942V31.3782C54.8916 31.3782 55.2294 30.6182 55.6517 30.6182H69.5864C69.5864 30.6182 70.3465 30.956 70.3465 31.3782V35.0942C70.3465 35.0942 70.0087 35.8542 69.5864 35.8542ZM56.4118 34.3341H68.9108V32.0539H56.4118V34.3341Z" fill="white"/>
</g>
<defs>
<clipPath id="clip0_432_66">
<rect width="43.2399" height="44" fill="white" transform="translate(28.8801 28)"/>
</clipPath>
</defs>
</svg>
