<svg width="100" height="100" viewBox="0 0 100 100" fill="none" xmlns="http://www.w3.org/2000/svg">
<rect width="100" height="100" rx="50" fill="white" fill-opacity="0.3"/>
<g clip-path="url(#clip0_432_31)">
<path d="M68.5756 72.0001H32.4029C32.0387 72.0001 31.7388 71.7002 31.7388 71.3359V68.1222C31.7388 67.758 32.0387 67.458 32.4029 67.458H68.5828C68.947 67.458 69.247 67.758 69.247 68.1222V71.3359C69.247 71.7002 68.947 72.0001 68.5828 72.0001H68.5756ZM33.0671 70.6718H67.9115V68.7935H33.0671V70.6718Z" fill="white"/>
<path d="M71.2253 72.0002H29.7677C29.4035 72.0002 29.1035 71.7003 29.1035 71.3361C29.1035 70.9718 29.4035 70.6719 29.7677 70.6719H71.2253C71.5895 70.6719 71.8894 70.9718 71.8894 71.3361C71.8894 71.7003 71.5895 72.0002 71.2253 72.0002Z" fill="white"/>
<path d="M69.754 50.8603H31.246C30.8817 50.8603 30.5818 50.5604 30.5818 50.1962V47.1681C30.5818 46.8039 30.8817 46.5039 31.246 46.5039H69.754C70.1182 46.5039 70.4182 46.8039 70.4182 47.1681V50.1962C70.4182 50.5604 70.1182 50.8603 69.754 50.8603ZM31.9173 49.532H69.0898V47.8323H31.9101V49.532H31.9173Z" fill="white"/>
<path d="M67.526 47.8322H33.4529C33.2387 47.8322 33.0387 47.7322 32.9173 47.5537C32.7959 47.3823 32.7602 47.1609 32.8245 46.9538C35.0241 40.3763 42.2943 35.7842 50.5002 35.7842C58.706 35.7842 65.9548 40.3763 68.1544 46.9538C68.2187 47.1538 68.1901 47.3823 68.0616 47.5537C67.9402 47.7251 67.7331 47.8322 67.526 47.8322ZM34.417 46.5039H66.569C64.2194 40.9333 57.7633 37.1197 50.5073 37.1197C43.2513 37.1197 36.7738 40.9333 34.4242 46.5039H34.417Z" fill="white"/>
<path d="M62.7267 45.561C62.5196 45.561 62.3125 45.461 62.184 45.2754C60.5199 42.89 57.7775 41.126 54.4566 40.3047C54.0995 40.219 53.8853 39.8548 53.971 39.5049C54.0567 39.1478 54.4209 38.9264 54.7709 39.0192C58.406 39.9119 61.4269 41.8616 63.2766 44.5183C63.4837 44.8183 63.4123 45.2325 63.1124 45.4396C62.9981 45.5182 62.8624 45.561 62.7339 45.561H62.7267Z" fill="white"/>
<path d="M50.5001 37.1199C50.1359 37.1199 49.8359 36.82 49.8359 36.4558V28.6642C49.8359 28.3 50.1359 28 50.5001 28C50.8643 28 51.1643 28.3 51.1643 28.6642V36.4558C51.1643 36.82 50.8643 37.1199 50.5001 37.1199Z" fill="white"/>
<path d="M66.9186 68.7934H34.0597C33.6955 68.7934 33.3955 68.4934 33.3955 68.1292V50.1964C33.3955 49.8322 33.6955 49.5322 34.0597 49.5322H66.9186C67.2829 49.5322 67.5828 49.8322 67.5828 50.1964V68.1292C67.5828 68.4934 67.2829 68.7934 66.9186 68.7934ZM62.6408 67.465H66.2545V50.8606H62.6408V67.465ZM54.2993 67.465H61.3124V50.8606H39.6873V67.465H46.6791V60.359C46.6791 59.9948 46.979 59.6949 47.3432 59.6949H53.6422C54.0064 59.6949 54.3064 59.9948 54.3064 60.359V67.465H54.2993ZM48.0003 67.465H52.9638V61.0232H51.1569V65.5082C51.1569 65.8724 50.857 66.1724 50.4927 66.1724C50.1285 66.1724 49.8286 65.8724 49.8286 65.5082V61.0232H48.0003V67.465ZM34.7239 67.465H38.3518V50.8606H34.7239V67.465ZM59.2627 58.4094H54.6064C54.2421 58.4094 53.9422 58.1094 53.9422 57.7452V53.0602C53.9422 52.696 54.2421 52.396 54.6064 52.396H59.2627C59.627 52.396 59.9269 52.696 59.9269 53.0602V57.7452C59.9269 58.1094 59.627 58.4094 59.2627 58.4094ZM55.2705 57.081H58.5986V53.7244H55.2705V57.081ZM52.8066 58.4094H48.1717C47.8075 58.4094 47.5075 58.1094 47.5075 57.7452V53.0602C47.5075 52.696 47.8075 52.396 48.1717 52.396H52.8066C53.1709 52.396 53.4708 52.696 53.4708 53.0602V57.7452C53.4708 58.1094 53.1709 58.4094 52.8066 58.4094ZM48.8359 57.081H52.1425V53.7244H48.8359V57.081ZM46.372 58.4094H41.7156C41.3514 58.4094 41.0514 58.1094 41.0514 57.7452V53.0602C41.0514 52.696 41.3514 52.396 41.7156 52.396H46.372C46.7362 52.396 47.0362 52.696 47.0362 53.0602V57.7452C47.0362 58.1094 46.7362 58.4094 46.372 58.4094ZM42.3798 57.081H45.7078V53.7244H42.3798V57.081Z" fill="white"/>
</g>
<defs>
<clipPath id="clip0_432_31">
<rect width="42.7931" height="44" fill="white" transform="translate(29.1035 28)"/>
</clipPath>
</defs>
</svg>
