<svg width="100" height="100" viewBox="0 0 100 100" fill="none" xmlns="http://www.w3.org/2000/svg">
<rect width="100" height="100" rx="50" fill="white" fill-opacity="0.3"/>
<g clip-path="url(#clip0_432_61)">
<path d="M73.1972 72H27.803V70.3788H73.1972V72ZM68.3336 68.7576V44.3419L70.8951 46.3912L71.9067 45.1266L50.5001 28L29.0935 45.1266L30.1051 46.3912L32.6666 44.3419V68.7576H34.2879V43.045L50.5001 30.0752L66.7123 43.045V68.7576H68.3336ZM63.4699 68.7576V46.0604H37.5303V68.7576H39.1515V47.6817H61.8487V68.7576H63.4699ZM58.6062 55.7878H42.394V50.9241H58.6062V55.7878ZM56.985 52.5453H44.0152V54.1665H56.985V52.5453ZM42.394 67.1363H58.6062V65.5151H42.394V67.1363Z" fill="white"/>
</g>
<defs>
<clipPath id="clip0_432_61">
<rect width="45.3943" height="44" fill="white" transform="translate(27.803 28)"/>
</clipPath>
</defs>
</svg>
